<svg height='100px' width='100px'  fill="#194792" xmlnsDc="http://purl.org/dc/elements/1.1/" xmlnsCc="http://creativecommons.org/ns#" xmlnsRdf="http://www.w3.org/1999/02/22-rdf-syntax-ns#" xmlnsSvg="http://www.w3.org/2000/svg" xmlns="http://www.w3.org/2000/svg" xmlnsSodipodi="http://sodipodi.sourceforge.net/DTD/sodipodi-0.dtd" xmlnsInkscape="http://www.inkscape.org/namespaces/inkscape" version="1.1" x="0px" y="0px" viewBox="0 0 100 100"><g transform="translate(0,-952.36218)"><path style="color:#000000;enable-background:accumulate;" d="m 50,961.36215 c -14.54121,15.8501 -28,34.654 -28,51.50005 0,16.8462 12.54497,30.5 28,30.5 15.45513,0 28,-13.6538 28,-30.5 0,-16.84605 -13.45886,-35.64995 -28,-51.50005 z m -18.96875,46.93745 a 2.0001998,2.0001998 0 0 1 2.03125,2.2188 c -0.60684,6.4025 3.33875,14.8607 8.0625,18.125 a 2.0001998,2.0001998 0 1 1 -2.28125,3.2813 c -6.34123,-4.3821 -10.55615,-13.6057 -9.78125,-21.7813 a 2.0001998,2.0001998 0 0 1 1.96875,-1.8438 z" fill="#194792" stroke="none" marker="none" visibility="visible" display="inline" overflow="visible"></path></g></svg>