<svg xmlns="http://www.w3.org/2000/svg" viewBox="0 0 164.1 48.32"><defs><style>.cls-1,.cls-3{fill:#beb8a6;}.cls-1,.cls-2{fill-rule:evenodd;}.cls-2,.cls-5{fill:#194792;}.cls-4{fill:#fdfefe;}</style></defs><g id="Layer_2" data-name="Layer 2"><g id="Ñëîé_1" data-name="Ñëîé 1"><path class="cls-1" d="M36.16,34.45a4.55,4.55,0,0,0-.82.1.72.72,0,0,0-.42.28,2.09,2.09,0,0,0-.16.27,1.06,1.06,0,0,0-.08.23.48.48,0,0,1-.09.19.24.24,0,0,1-.2.08.24.24,0,0,1-.22-.12.55.55,0,0,1,0-.24,5.35,5.35,0,0,1,.09-.63l.09-.42.41,0,1.44,0Zm7.56-1.15.26,0,.17,0,.26,0a.2.2,0,0,1,.22.15,1.07,1.07,0,0,1,0,.29c0,.14,0,.46,0,.8s0,.75,0,1h0a.6.6,0,0,1,0,.22.23.23,0,0,1-.21.14.23.23,0,0,1-.23-.14.78.78,0,0,1-.06-.28v-.17a.62.62,0,0,0-.39-.49,1,1,0,0,0,0-.17v-.08c0-.26,0-.57,0-.86Zm-1.93,1.12-1.21,0V40.5c0,.71,0,1.37,0,1.91,0,.17,0,.34,0,.5h0l-.27,0h-.14l-.42,0,0-.13c0-.16,0-.35,0-.55s0-.47,0-.72,0-1.11,0-1.9V34.12l1.1,0a3.45,3.45,0,0,1,.6.05,1.66,1.66,0,0,1,.37.11l.05,0Zm-.71,10h.06l.41,0h.35a.54.54,0,0,1,.24.05.2.2,0,0,1,.13.2.24.24,0,0,1-.14.22.57.57,0,0,1-.27.05c-.6,0-1.2,0-1.67,0H38.76c-.4,0-.87,0-1.21,0a.52.52,0,0,1-.27-.05.22.22,0,0,1-.15-.22v0h.11l.63,0,.7,0,.82,0h.87a1.53,1.53,0,0,0,.3,0,1.16,1.16,0,0,0,.28-.1,1.46,1.46,0,0,0,.24-.17m70.39-2.24h0Zm12.94-4.76-.36,1h.72ZM56.08,33.31l.29,0,.26,0,.08,0a.58.58,0,0,1,.19,0c.18,0,.21.12.21.26a1.37,1.37,0,0,1,0,.16,5.6,5.6,0,0,0-.1.83l0,.32c0,.26,0,.58-.06.7h0a.44.44,0,0,1-.06.16.22.22,0,0,1-.21.11.21.21,0,0,1-.21-.12.35.35,0,0,1,0-.21,1.68,1.68,0,0,0,0-.29,1.41,1.41,0,0,0-.06-.22.54.54,0,0,0-.22-.28L56,34.54c0-.08,0-.19,0-.3l0-.73Zm-2,1h-.85c0,.74,0,1.51,0,2.28h-.9V34.07H53l.48,0h.23l.33.06h0v.17Zm1.73,3.87.25,0a.62.62,0,0,0,.23-.12v0c.12-.14.19-.22.32-.22a.23.23,0,0,1,.16.06.25.25,0,0,1,.07.18s0,.09,0,.18-.06.43-.1.94l0,.52c0,.22,0,.44,0,.49a.63.63,0,0,1,0,.23.23.23,0,0,1-.23.18.23.23,0,0,1-.2-.08.22.22,0,0,1-.06-.17V40.2a3,3,0,0,0,0-.39.58.58,0,0,0-.2-.32.53.53,0,0,0-.15-.08h0v-.18c0-.06,0-.24,0-.44l0-.52Zm-1.95,1.05h-.63c0,.62,0,1.24,0,1.86,0,.4,0,.88,0,1.25-.28,0-.5,0-.65,0a.78.78,0,0,1-.25-.06s0,0,0,0a2.78,2.78,0,0,1,0-.4c0-.3,0-1,0-1.65V39h1.13l.24,0a.65.65,0,0,1,.17,0,1.49,1.49,0,0,1,0,.21m2.44,4.58h0a.91.91,0,0,0,.4-.35,2,2,0,0,0,.21-.68.56.56,0,0,1,.08-.23.24.24,0,0,1,.21-.1c.25,0,.25.17.25.39a7.1,7.1,0,0,1-.08.87,8.36,8.36,0,0,1-.13.85c-.13.49-.28.49-.93.49-.89,0-1.61,0-2.19,0H53.7l-.86,0H51.26l-.56,0h-.49a.56.56,0,0,1-.28-.05.22.22,0,0,1-.15-.22v0h1.44l1.36,0c.63,0,1.39,0,2.16,0a2.25,2.25,0,0,0,1-.13,1.16,1.16,0,0,0,.56-.82M70.71,45.1l-.21,0a8,8,0,0,1-1.27.12,7.59,7.59,0,0,1-2.17-.3h.57l.67,0,.71-.09c.21,0,.4-.07.57-.11l.35-.09Zm3.11-10.42h0A5.67,5.67,0,0,1,75.56,39a6,6,0,0,1-.71,2.86,6.42,6.42,0,0,1-1.17,1.57l-1.06-.54a5.66,5.66,0,0,0,.5-.57,6.09,6.09,0,0,0,.73-1.11,6.59,6.59,0,0,0,.59-1.53,7,7,0,0,0,.2-1.63,7.24,7.24,0,0,0-.49-2.66c-.1-.23-.21-.45-.33-.67m9.45,12.46a2.38,2.38,0,0,0,.37-.06A7.19,7.19,0,0,0,85,46.7l.09,0a.67.67,0,0,1,.19,0,.25.25,0,0,1,.18.08.24.24,0,0,1,.07.18.24.24,0,0,1-.09.2.62.62,0,0,1-.16.1,12.09,12.09,0,0,1-2,.74,10.87,10.87,0,0,1-2.92.41A9.6,9.6,0,0,1,77.82,48c.33,0,.67,0,1,0a11.12,11.12,0,0,0,1.67-.12A13.43,13.43,0,0,0,82,47.6a11.36,11.36,0,0,0,1.17-.4ZM68.64,34.06a3.2,3.2,0,0,0-2.41,1.22,5.44,5.44,0,0,0-1,3.46A6.72,6.72,0,0,0,66,41.8a3.94,3.94,0,0,1-.5-.5,4.6,4.6,0,0,1-.81-1.54,6.62,6.62,0,0,1-.28-2,6.74,6.74,0,0,1,.21-1.8,3.49,3.49,0,0,1,.59-1.24,2.49,2.49,0,0,1,.91-.72,3.08,3.08,0,0,1,1.26-.25,3.27,3.27,0,0,1,1.31.29m15.51-.75.81,0a.78.78,0,0,1,.29,0,.21.21,0,0,1,.16.22.23.23,0,0,1-.13.22.53.53,0,0,1-.23,0h-.2l-.22,0a.44.44,0,0,0-.34.21,1.2,1.2,0,0,0-.13.55c0,.48,0,.9,0,3.21V40a8,8,0,0,0,.29,2.39,2.64,2.64,0,0,1-.32-.22,1.82,1.82,0,0,1-.35-.38,2.27,2.27,0,0,1-.27-.54,4.38,4.38,0,0,1-.2-.89A11.94,11.94,0,0,1,83.21,39V34.57c0-.43,0-.65,0-.88v-.15h.2a1.15,1.15,0,0,0,.26,0,.92.92,0,0,0,.27-.08l.17-.11m7.43,0-.21.12a1.07,1.07,0,0,1-.27.08l-.26,0h-.2v.15c0,.23,0,.45,0,.88v3.92c0,.44,0,.9,0,1.35a8.75,8.75,0,0,1-.21,1.36,5.43,5.43,0,0,1-.53,1.33,4.2,4.2,0,0,1-.93,1.14,5,5,0,0,1-1,.66,4.09,4.09,0,0,1-1,.4,6.27,6.27,0,0,1-.92.19,8.32,8.32,0,0,1-.85,0h-.5a3.12,3.12,0,0,0,.5.14,7.17,7.17,0,0,0,1.6.16A5.59,5.59,0,0,0,88.38,45,4.47,4.47,0,0,0,90,44.12,4,4,0,0,0,91.28,42a10.73,10.73,0,0,0,.24-2.54V37.82c0-2.31,0-2.73,0-3.21a1.2,1.2,0,0,1,.13-.55.44.44,0,0,1,.34-.21l.22,0h.2a.6.6,0,0,0,.25,0,.21.21,0,0,0,.14-.22c0-.2-.14-.26-.44-.26l-.81,0m10,0,.82,0a.75.75,0,0,1,.28,0,.21.21,0,0,1,.16.21.22.22,0,0,1-.12.22.47.47,0,0,1-.24.05h-.2l-.24,0a.48.48,0,0,0-.34.21,1.21,1.21,0,0,0-.12.55c0,.48,0,.9,0,3.21V40.5c0,.75,0,1.43,0,2,0,.16,0,.3,0,.44h0l-.27,0h-.14l-.45,0v-.06c0-.14,0-.33,0-.54v-.73c0-.34,0-1.11,0-2v-5c0-.43,0-.65,0-.88v-.15h.21a1.24,1.24,0,0,0,.27,0,1,1,0,0,0,.29-.1l.14-.09m.47,11.14h.06l.41,0h.35a.54.54,0,0,1,.24.05.2.2,0,0,1,.13.2.24.24,0,0,1-.14.22.57.57,0,0,1-.27.05c-.61,0-1.21,0-1.68,0h-1.4c-.4,0-.87,0-1.21,0a.56.56,0,0,1-.28-.05.22.22,0,0,1-.15-.22v0h.1l.64,0,.63,0,.86,0h.88a1.45,1.45,0,0,0,.3,0,1.42,1.42,0,0,0,.29-.1,1.06,1.06,0,0,0,.23-.17m10.3-9.84c0,.48,0,.91,0,3.21V40.5c0,.74,0,1.35,0,1.84h-.27l-.43,0-.15,0,0,0h0c0-.1,0-.26,0-.46,0-.5,0-1.24,0-2.21v-5c0-.43,0-.65,0-.88l0-.14.23,0h.11l.27,0a1.38,1.38,0,0,0,.27-.08l.21-.12.81,0c.29,0,.44.06.44.26a.22.22,0,0,1-.14.22.65.65,0,0,1-.26,0h-.3l-.27,0a.46.46,0,0,0-.34.21,1.21,1.21,0,0,0-.12.55m3.41,9.2a1,1,0,0,0,.29-.21,1.54,1.54,0,0,0,.23-.39,2.31,2.31,0,0,0,.13-.46.65.65,0,0,1,.06-.21.25.25,0,0,1,.23-.12.2.2,0,0,1,.21.13.59.59,0,0,1,0,.25c0,.1,0,.57-.1,1a5.13,5.13,0,0,1-.13.76.57.57,0,0,1-.28.41,2.06,2.06,0,0,1-.8.09c-.81,0-1.47,0-2,0l-.53,0-.95,0h-1.77l-.56,0h-.49A.59.59,0,0,1,109,45a.23.23,0,0,1-.14-.22v0h.4c.91,0,1.81.06,2.71.06.62,0,1.33,0,2.06,0a5.34,5.34,0,0,0,.6,0,1.88,1.88,0,0,0,.47-.13,1.1,1.1,0,0,0,.46-.38,1.53,1.53,0,0,0,.19-.45m10-2.74h-1.47c-.29.73-.56,1.48-.84,2.22,0,.1-.07.19-.1.29a.83.83,0,0,0-.08-.22.87.87,0,0,0-.36-.35,1.51,1.51,0,0,0-.28-.1l-.25,0,0-.11c.24-.66.5-1.33.75-2h2.49Zm-2.51,3.22a.19.19,0,0,0,.07.12.57.57,0,0,0,.4.1H124a.51.51,0,0,1,.24.05.2.2,0,0,1,.11.2.24.24,0,0,1-.14.23.55.55,0,0,1-.24,0l-.83,0-.79,0H122c-.35,0-.92,0-1.46,0a.64.64,0,0,1-.27,0,.23.23,0,0,1-.14-.23v0h.61l.76,0h0l.83,0,.28,0a1,1,0,0,0,.27-.1.85.85,0,0,0,.37-.33Zm3-11.27a.33.33,0,0,1,.19-.06.33.33,0,0,1,.28.16,1.57,1.57,0,0,1,.21.4c.16.36.7,1.72,1.35,3.33.84,2.13,1.87,4.71,2.42,6h0l-.17,0-.07,0a.48.48,0,0,1-.12-.1,1.75,1.75,0,0,1-.27-.36,6.94,6.94,0,0,1-.34-.71c-.27-.62-.66-1.59-1.1-2.68s-.87-2.4-1.33-3.32-.79-2-1-2.62m5.52,11.37.19.07.29,0h.32a.45.45,0,0,1,.2,0,.21.21,0,0,1,.12.21c0,.13-.06.2-.24.24a3.64,3.64,0,0,1-.58,0h-1.19l-1.69,0h-.07c-.31,0-.51,0-.51-.24v0h2.27l.32,0a1,1,0,0,0,.57-.31"/><path class="cls-2" d="M36.76,42.77c.08-.63.08-1.83.08-3.23V33.43l-2.14.06a4.25,4.25,0,0,0-1,.1.69.69,0,0,0-.42.29,1.51,1.51,0,0,0-.15.26.76.76,0,0,0-.09.23.48.48,0,0,1-.09.19.24.24,0,0,1-.2.09.22.22,0,0,1-.21-.13.54.54,0,0,1,0-.24,4.16,4.16,0,0,1,.1-.63c.08-.48.21-1.06.23-1.15a.66.66,0,0,1,.09-.25.22.22,0,0,1,.21-.13.61.61,0,0,1,.21.06,1.07,1.07,0,0,0,.45.12c.22,0,.48.05.75.06l.76,0h6a6.87,6.87,0,0,0,1-.08l.17,0,.26,0a.21.21,0,0,1,.22.15,1.07,1.07,0,0,1,0,.29c0,.14,0,.46,0,.8s0,.75,0,1h0a.6.6,0,0,1,0,.22.22.22,0,0,1-.21.14.23.23,0,0,1-.23-.14.78.78,0,0,1-.06-.28v-.17A.63.63,0,0,0,42,33.7a3.14,3.14,0,0,0-1.25-.23l-1.79,0v6.11c0,.71,0,1.37,0,1.91s0,1,.07,1.33a1.31,1.31,0,0,0,.12.5.49.49,0,0,0,.37.22l.4,0,.36,0a.53.53,0,0,1,.23,0,.2.2,0,0,1,.13.2.24.24,0,0,1-.14.22.54.54,0,0,1-.27,0c-.6,0-1.2,0-1.67,0h-.72l-.71,0-1.2,0a.56.56,0,0,1-.28,0,.22.22,0,0,1-.15-.22.21.21,0,0,1,.12-.2.49.49,0,0,1,.24,0l.3,0,.23,0a.32.32,0,0,0,.23-.21,1.69,1.69,0,0,0,.11-.52m12.66,0c.07-.63.07-1.83.07-3.23v-5c0-.45,0-.68,0-.92a1,1,0,0,0-.13-.53.68.68,0,0,0-.43-.23h0l-.22,0h-.34a.57.57,0,0,1-.25,0,.23.23,0,0,1,0-.44.75.75,0,0,1,.29,0l1.39,0,.8,0h2l1.82,0,.38,0,.25,0,.08,0a.58.58,0,0,1,.19,0c.18,0,.21.12.21.26s0,.09,0,.17a5.21,5.21,0,0,0-.1.83l0,.31c0,.26,0,.58-.06.7h0a.32.32,0,0,1-.06.15.22.22,0,0,1-.21.11.21.21,0,0,1-.21-.12.35.35,0,0,1,0-.21,1.74,1.74,0,0,0,0-.29.73.73,0,0,0-.06-.21.49.49,0,0,0-.22-.29,1.89,1.89,0,0,0-.7-.19l-.77,0-1.36,0c0,1.28,0,2.65,0,3.93h1.2l1.21,0a2.79,2.79,0,0,0,.42-.07.46.46,0,0,0,.23-.12l0,0c.11-.14.18-.22.31-.22a.23.23,0,0,1,.16.06.25.25,0,0,1,.07.18s0,.09,0,.18-.06.43-.1.94l0,.52c0,.23,0,.44,0,.49a.63.63,0,0,1,0,.23.22.22,0,0,1-.23.18.25.25,0,0,1-.2-.08.27.27,0,0,1-.06-.17v-.14a3,3,0,0,0-.05-.39.58.58,0,0,0-.2-.32,1.17,1.17,0,0,0-.54-.18l-.75,0-1.37,0c0,.62,0,1.24,0,1.86s0,1.41,0,1.72c0,.49.07.78.29.94a2.63,2.63,0,0,0,1.41.22c.2,0,.45,0,.71,0a1.94,1.94,0,0,0,.67-.15.86.86,0,0,0,.4-.35,1.94,1.94,0,0,0,.22-.68.9.9,0,0,1,.07-.23.24.24,0,0,1,.21-.1c.25,0,.25.17.25.39s0,.53-.07.88-.09.68-.13.84c-.14.49-.29.49-.94.49-.89,0-1.6,0-2.19,0H52.1l-.86,0H49.66l-.56,0h-.49a.56.56,0,0,1-.28,0,.22.22,0,0,1-.15-.22.23.23,0,0,1,.12-.2.57.57,0,0,1,.25,0l.29,0,.23,0a.32.32,0,0,0,.23-.21,2.51,2.51,0,0,0,.12-.52m26.25,4.1a17,17,0,0,1-3.32-1.6L70,43.9a6,6,0,0,1-1.11.27,7.9,7.9,0,0,1-1.27.12,6.19,6.19,0,0,1-4.5-1.66,6.34,6.34,0,0,1-1.81-4.5,6.2,6.2,0,0,1,1.88-4.38,6.32,6.32,0,0,1,4.48-1.63,6.58,6.58,0,0,1,4.56,1.61A5.68,5.68,0,0,1,74,38a6.06,6.06,0,0,1-.7,2.85A6.46,6.46,0,0,1,71.43,43l2.87,1.48A18.46,18.46,0,0,0,78.22,46a9.85,9.85,0,0,0,2.29.28A8,8,0,0,0,82,46.12a7.19,7.19,0,0,0,1.39-.38l.09,0a.47.47,0,0,1,.19-.06.27.27,0,0,1,.26.26.25.25,0,0,1-.1.2.62.62,0,0,1-.16.1,12.09,12.09,0,0,1-1.95.74,10.82,10.82,0,0,1-2.92.41,9.66,9.66,0,0,1-3.17-.49M64.93,41.73a4.18,4.18,0,0,0,3.27,1.55,3,3,0,0,0,2.12-.79c.71-.67,1.27-1.89,1.27-4.07a5.87,5.87,0,0,0-1.18-3.79,4,4,0,0,0-3.08-1.54,3.29,3.29,0,0,0-2.7,1.23,5.5,5.5,0,0,0-.95,3.46,6.08,6.08,0,0,0,1.25,3.95m15.81,0a3.72,3.72,0,0,0,1,1.49,4,4,0,0,0,1.86.93,7.17,7.17,0,0,0,1.6.16,5.59,5.59,0,0,0,1.58-.21,4.4,4.4,0,0,0,1.66-.92A4,4,0,0,0,89.68,41a10.74,10.74,0,0,0,.25-2.54V36.87c0-2.32,0-2.74,0-3.22a1.09,1.09,0,0,1,.12-.55.47.47,0,0,1,.34-.21l.22,0h.2a.6.6,0,0,0,.25,0,.21.21,0,0,0,.14-.22c0-.2-.14-.26-.44-.26s-.91,0-1.3,0H89c-.2,0-1-.05-1.71-.05a.72.72,0,0,0-.28,0,.21.21,0,0,0-.16.22.22.22,0,0,0,.14.22.55.55,0,0,0,.24,0h.31l.21,0h0a.68.68,0,0,1,.43.23,1.14,1.14,0,0,1,.13.53c0,.24,0,.47,0,.92v4.2a11.83,11.83,0,0,1-.13,2.13,2.8,2.8,0,0,1-.72,1.55,2.53,2.53,0,0,1-.89.58,3.07,3.07,0,0,1-1.12.21,3.37,3.37,0,0,1-.85-.1,2.37,2.37,0,0,1-1-.5,2.61,2.61,0,0,1-.84-1.22,7.5,7.5,0,0,1-.3-2.43V36.87c0-2.32,0-2.74,0-3.22a1.09,1.09,0,0,1,.12-.55.47.47,0,0,1,.34-.21l.22,0h.2a.53.53,0,0,0,.23,0,.24.24,0,0,0,0-.44.78.78,0,0,0-.29,0l-1.12,0-.75,0-.81,0-1.41,0a.8.8,0,0,0-.3,0,.21.21,0,0,0-.16.22.22.22,0,0,0,.14.22.55.55,0,0,0,.24,0h.34l.22,0h0a.7.7,0,0,1,.43.23,1.14,1.14,0,0,1,.13.53c0,.24,0,.47,0,.92v4.52a7.42,7.42,0,0,0,.39,2.62m17,1.13c.07-.63.07-1.83.07-3.3v-5c0-.45,0-.68,0-.92a1.2,1.2,0,0,0-.12-.54.43.43,0,0,0-.3-.2h0l-.23,0h-.29a.61.61,0,0,1-.24,0,.25.25,0,0,1-.13-.23.2.2,0,0,1,.18-.21.9.9,0,0,1,.31,0l1.12,0,.86,0,.74,0,1.11,0a.72.72,0,0,1,.28,0,.2.2,0,0,1,.17.21.25.25,0,0,1-.13.23.57.57,0,0,1-.24,0h-.2l-.23,0a.52.52,0,0,0-.35.21,1.36,1.36,0,0,0-.12.55c0,.48,0,.9,0,3.22v2.67c0,.75,0,1.43,0,2s0,1,0,1.35a1.09,1.09,0,0,0,.13.45.53.53,0,0,0,.38.19l.4,0,.36,0a.5.5,0,0,1,.23,0,.2.2,0,0,1,.13.2.24.24,0,0,1-.14.22.54.54,0,0,1-.27,0c-.6,0-1.21,0-1.67,0h-.7l-.71,0-1.21,0a.59.59,0,0,1-.28,0,.23.23,0,0,1-.14-.22.22.22,0,0,1,.11-.2.57.57,0,0,1,.25,0l.29,0,.23,0a.32.32,0,0,0,.24-.18,1.31,1.31,0,0,0,.11-.48m13-9.19c0,.48,0,.91,0,3.22v2.67c0,1,0,1.72,0,2.26s.11.81.24.92a1,1,0,0,0,.51.22,6.3,6.3,0,0,0,1.25.08,6.19,6.19,0,0,0,1-.05,1.15,1.15,0,0,0,.67-.33,1.54,1.54,0,0,0,.23-.39,1.41,1.41,0,0,0,.13-.45.64.64,0,0,1,.06-.22.25.25,0,0,1,.23-.12.2.2,0,0,1,.21.13.59.59,0,0,1,0,.25c0,.1,0,.57-.1,1a5.13,5.13,0,0,1-.13.76.57.57,0,0,1-.28.41,2,2,0,0,1-.79.09c-.82,0-1.48,0-2,0l-.53,0-1,0h-1.77l-.55,0h-.5a.52.52,0,0,1-.27,0,.22.22,0,0,1-.15-.22.22.22,0,0,1,.11-.2.57.57,0,0,1,.25,0l.3,0,.22,0a.32.32,0,0,0,.23-.21,2,2,0,0,0,.12-.52c.07-.63.07-1.83.07-3.23v-5c0-.45,0-.68,0-.92a1.14,1.14,0,0,0-.13-.53.68.68,0,0,0-.43-.23h0l-.19,0h-.28a.55.55,0,0,1-.24,0,.22.22,0,0,1-.14-.22.21.21,0,0,1,.16-.22.8.8,0,0,1,.3,0l1.31,0,.77,0,.8,0,1.27,0c.29,0,.44.06.44.26a.22.22,0,0,1-.14.22.62.62,0,0,1-.26,0h-.3l-.27,0a.49.49,0,0,0-.34.21,1.21,1.21,0,0,0-.12.55m15.35,6.46h-3.42c-.29.73-.56,1.48-.84,2.22a4.6,4.6,0,0,0-.16.49,1.93,1.93,0,0,0-.06.4.31.31,0,0,0,.09.24.56.56,0,0,0,.4.11h.23a.49.49,0,0,1,.24,0,.2.2,0,0,1,.11.2.25.25,0,0,1-.13.23.62.62,0,0,1-.25,0l-.83,0-.78,0h-.33c-.36,0-.93,0-1.47,0a.7.7,0,0,1-.27,0,.25.25,0,0,1,0-.43.42.42,0,0,1,.2,0H119l.23,0a1,1,0,0,0,.72-.4,3.27,3.27,0,0,0,.48-.9l3.81-9.55a3.74,3.74,0,0,1,.24-.49.35.35,0,0,1,.3-.19.33.33,0,0,1,.28.16,1.57,1.57,0,0,1,.21.4c.16.36.7,1.72,1.35,3.34.85,2.12,1.87,4.7,2.43,6a4.18,4.18,0,0,0,.74,1.28,1,1,0,0,0,.52.32l.28,0,.32,0a.42.42,0,0,1,.2,0,.21.21,0,0,1,.12.21c0,.13-.06.2-.23.24a2.88,2.88,0,0,1-.59,0h-1.19l-1.69,0h-.07c-.3,0-.5,0-.5-.24a.21.21,0,0,1,.1-.2.52.52,0,0,1,.2-.06h0a.12.12,0,0,0,0,0,.16.16,0,0,0,0-.1l-1.23-3.26Zm-1.69-4.61-1.34,3.6h2.66Z"/><path class="cls-3" d="M1.33,27.79V25.68H4.76V3.49H1.33V1.38H6.27c.53,0,1,0,1.51,0l1.51-.08L11,1.18c.61,0,1.3,0,2.06,0a24.8,24.8,0,0,1,3.39.24,10.69,10.69,0,0,1,3.13.93,6.11,6.11,0,0,1,2.29,1.92,5.34,5.34,0,0,1,.88,3.2,6,6,0,0,1-.35,2,6.19,6.19,0,0,1-1.06,1.82,7,7,0,0,1-1.76,1.48,7.78,7.78,0,0,1-2.45.95v.15a13.41,13.41,0,0,1,2.49.64,8.42,8.42,0,0,1,2.25,1.22,5.83,5.83,0,0,1,1.6,1.89,5.74,5.74,0,0,1,.61,2.71,6,6,0,0,1-1,3.5,7.76,7.76,0,0,1-2.62,2.4,12.32,12.32,0,0,1-3.68,1.38,20.08,20.08,0,0,1-4.17.43q-1.47,0-3.3-.12c-1.22-.07-2.4-.11-3.53-.11ZM11,13.45q.75,0,1.68-.06c.61,0,1.13-.08,1.56-.13a6.57,6.57,0,0,0,3.1-2,4.69,4.69,0,0,0,1.17-3.17A4.29,4.29,0,0,0,17,4.44a7,7,0,0,0-4.3-1.18c-.86,0-1.58,0-2.17.06S9.39,3.4,9,3.45v10ZM12.91,25.9a9.26,9.26,0,0,0,2.74-.39,6.75,6.75,0,0,0,2.17-1.12,5.18,5.18,0,0,0,1.42-1.71,4.82,4.82,0,0,0,.5-2.21A4.63,4.63,0,0,0,19.12,18a4.5,4.5,0,0,0-1.66-1.58A7.25,7.25,0,0,0,15,15.56a18.6,18.6,0,0,0-2.95-.22H9V25.56a8.26,8.26,0,0,0,1.37.25c.55.06,1.39.09,2.55.09"/><polygon class="cls-3" points="27.37 3.49 27.37 1.37 39.1 1.37 39.1 3.49 35.03 3.49 35.03 25.68 45.07 25.68 45.82 24.85 45.82 19.64 48.54 19.64 48.54 27.79 27.37 27.79 27.37 25.68 30.8 25.68 30.8 3.49 27.37 3.49"/><path class="cls-3" d="M58.39,27.79H49.15V25.68h2.94l9.77-24.3h4l9,24.3h2.83v2.11H66.84V25.68H70.2L67.75,19h-10l-2.56,6.64h3.24Zm.19-10.87h8.53L64,8.2l-.94-4h-.15l-1.1,4.08Z"/><polygon class="cls-3" points="98.09 1.37 107.37 1.37 107.37 3.49 103.94 3.49 103.94 28.24 101.49 28.24 86.13 7.53 84.47 4.62 84.31 4.62 84.69 7.56 84.69 25.68 88.13 25.68 88.13 27.79 78.84 27.79 78.84 25.68 82.28 25.68 82.28 3.49 78.84 3.49 78.84 1.37 86.39 1.37 99.6 19.15 101.56 22.39 101.75 22.39 101.53 19.15 101.53 3.49 98.09 3.49 98.09 1.37"/><path class="cls-3" d="M130.05,20.85h2.42v5.92a11.64,11.64,0,0,1-3.09,1.06,17.93,17.93,0,0,1-3.82.41,22.41,22.41,0,0,1-6.22-.79A12,12,0,0,1,114.67,25a11,11,0,0,1-2.92-4.25,16.64,16.64,0,0,1-1-6.15,15.67,15.67,0,0,1,1.13-6.28,11.55,11.55,0,0,1,3.06-4.23,12.23,12.23,0,0,1,4.45-2.4,19,19,0,0,1,5.32-.75c.91,0,1.73,0,2.46.1a16.84,16.84,0,0,1,2,.28,13.38,13.38,0,0,1,1.64.45c.51.17,1,.37,1.47.57V8.77h-2.41v-4l-.53-.76A13.71,13.71,0,0,0,128,3.6a10.83,10.83,0,0,0-2.85-.26,11,11,0,0,0-3.81.64,8,8,0,0,0-3.08,2,9.55,9.55,0,0,0-2.05,3.49,15.2,15.2,0,0,0-.76,5.11q0,5.4,2.74,8.32t7.68,2.93a10.54,10.54,0,0,0,2.28-.21,3.46,3.46,0,0,0,1.38-.55l.52-.71Z"/><path class="cls-3" d="M137.07,14.58A16,16,0,0,1,138,9.13a12.61,12.61,0,0,1,2.62-4.34,11.88,11.88,0,0,1,4.23-2.85,15.08,15.08,0,0,1,5.72-1,15.26,15.26,0,0,1,5.74,1,12,12,0,0,1,4.26,2.85,12.21,12.21,0,0,1,2.64,4.34,15.78,15.78,0,0,1,.91,5.45,15.84,15.84,0,0,1-.91,5.46,12.3,12.3,0,0,1-2.64,4.34,12,12,0,0,1-4.26,2.84,15.06,15.06,0,0,1-5.74,1,14.89,14.89,0,0,1-5.72-1,11.86,11.86,0,0,1-4.23-2.84A12.7,12.7,0,0,1,138,20a16.08,16.08,0,0,1-.91-5.46m4.72,0a17.8,17.8,0,0,0,.55,4.53A10.62,10.62,0,0,0,144,22.77a8.26,8.26,0,0,0,2.85,2.46,8.62,8.62,0,0,0,4.06.9,7.41,7.41,0,0,0,3.73-.9,7.8,7.8,0,0,0,2.62-2.46,11.28,11.28,0,0,0,1.57-3.66,18.75,18.75,0,0,0,.53-4.53,17.66,17.66,0,0,0-.55-4.52,10.41,10.41,0,0,0-1.68-3.67,8.13,8.13,0,0,0-2.85-2.45A8.58,8.58,0,0,0,150.21,3a7.69,7.69,0,0,0-3.87.91,7.5,7.5,0,0,0-2.62,2.45,10.54,10.54,0,0,0-1.47,3.67,20.92,20.92,0,0,0-.46,4.52"/><path class="cls-4" d="M.53,27.31V25.2H4V3H.53V.9h5c.53,0,1,0,1.51,0L8.5.78,10.21.71c.62,0,1.31,0,2.06,0a23.38,23.38,0,0,1,3.4.25,10.12,10.12,0,0,1,3.13.93,6,6,0,0,1,2.28,1.91A5.36,5.36,0,0,1,22,7a5.76,5.76,0,0,1-.36,2,6,6,0,0,1-1.05,1.82,7.16,7.16,0,0,1-1.76,1.48,7.78,7.78,0,0,1-2.45,1v.15a13.41,13.41,0,0,1,2.49.64,8.21,8.21,0,0,1,2.24,1.22,5.9,5.9,0,0,1,1.61,1.9,5.67,5.67,0,0,1,.6,2.7,6,6,0,0,1-1,3.5,8,8,0,0,1-2.62,2.41A12.59,12.59,0,0,1,16,27.11a20.08,20.08,0,0,1-4.17.43c-1,0-2.08,0-3.31-.11S6.12,27.31,5,27.31ZM10.23,13c.5,0,1.07,0,1.68-.05s1.14-.09,1.57-.14a6.59,6.59,0,0,0,3.09-2,4.69,4.69,0,0,0,1.17-3.17A4.28,4.28,0,0,0,16.16,4a7,7,0,0,0-4.3-1.17c-.86,0-1.58,0-2.17,0S8.6,2.92,8.2,3V13Zm1.89,12.45A9.31,9.31,0,0,0,14.86,25,6.65,6.65,0,0,0,17,23.91a5.15,5.15,0,0,0,1.41-1.71A4.79,4.79,0,0,0,19,20a4.74,4.74,0,0,0-.62-2.51,4.58,4.58,0,0,0-1.66-1.58,7.62,7.62,0,0,0-2.44-.82,18.47,18.47,0,0,0-2.94-.22H8.2V25.08a8.07,8.07,0,0,0,1.37.25,23,23,0,0,0,2.55.09"/><polygon class="cls-4" points="26.57 3.01 26.57 0.9 38.31 0.9 38.31 3.01 34.23 3.01 34.23 25.2 44.27 25.2 45.03 24.37 45.03 19.16 47.74 19.16 47.74 27.31 26.57 27.31 26.57 25.2 30.01 25.2 30.01 3.01 26.57 3.01"/><path class="cls-4" d="M57.59,27.31H48.35V25.2h2.94L61.07.9h4L74,25.2h2.83v2.11H66.05V25.2h3.36L67,18.56h-10L54.35,25.2h3.24Zm.19-10.87h8.53L63.22,7.72l-.94-4h-.15L61,7.8Z"/><polygon class="cls-4" points="97.3 0.9 106.58 0.9 106.58 3.01 103.14 3.01 103.14 27.77 100.69 27.77 85.33 7.05 83.67 4.14 83.52 4.14 83.9 7.08 83.9 25.2 87.34 25.2 87.34 27.31 78.05 27.31 78.05 25.2 81.48 25.2 81.48 3.01 78.05 3.01 78.05 0.9 85.6 0.9 98.81 18.67 100.77 21.91 100.96 21.91 100.73 18.67 100.73 3.01 97.3 3.01 97.3 0.9"/><path class="cls-4" d="M129.26,20.37h2.42v5.92a11.6,11.6,0,0,1-3.1,1.06,17.79,17.79,0,0,1-3.81.42,22.47,22.47,0,0,1-6.23-.8,11.84,11.84,0,0,1-4.66-2.47A10.92,10.92,0,0,1,111,20.26a16.73,16.73,0,0,1-1-6.16,15.7,15.7,0,0,1,1.13-6.28,11.72,11.72,0,0,1,3.06-4.23,12.13,12.13,0,0,1,4.45-2.39A18.64,18.64,0,0,1,123.9.44c.91,0,1.73,0,2.45.1a17,17,0,0,1,2,.28,15.45,15.45,0,0,1,1.64.45q.75.27,1.47.57V8.29H129v-4l-.53-.75a10.61,10.61,0,0,0-1.31-.46,11.29,11.29,0,0,0-2.85-.26,11,11,0,0,0-3.8.64,7.9,7.9,0,0,0-3.08,2A9.7,9.7,0,0,0,115.41,9a15.47,15.47,0,0,0-.75,5.11c0,3.6.91,6.38,2.74,8.32s4.38,2.93,7.67,2.93a11.32,11.32,0,0,0,2.29-.2,3.62,3.62,0,0,0,1.37-.56l.53-.71Z"/><path class="cls-4" d="M136.28,14.1a15.82,15.82,0,0,1,.91-5.45,12.46,12.46,0,0,1,2.62-4.34A11.84,11.84,0,0,1,144,1.46a16.6,16.6,0,0,1,11.46,0,12,12,0,0,1,4.27,2.85,12.5,12.5,0,0,1,2.64,4.34,16.06,16.06,0,0,1,.9,5.45,16.08,16.08,0,0,1-.9,5.46,12.5,12.5,0,0,1-2.64,4.34,12,12,0,0,1-4.27,2.85,16.76,16.76,0,0,1-11.46,0,11.84,11.84,0,0,1-4.22-2.85,12.46,12.46,0,0,1-2.62-4.34,15.84,15.84,0,0,1-.91-5.46m4.72,0a17.74,17.74,0,0,0,.55,4.53,10.44,10.44,0,0,0,1.68,3.66,8.26,8.26,0,0,0,2.85,2.46,8.58,8.58,0,0,0,4,.9,7.48,7.48,0,0,0,3.74-.9,7.89,7.89,0,0,0,2.62-2.46,11.5,11.5,0,0,0,1.57-3.66,18.69,18.69,0,0,0,.53-4.53A18.12,18.12,0,0,0,158,9.58a10.76,10.76,0,0,0-1.68-3.67,8.44,8.44,0,0,0-2.85-2.45,8.72,8.72,0,0,0-4.09-.9,7.8,7.8,0,0,0-3.87.9,7.72,7.72,0,0,0-2.63,2.45,10.9,10.9,0,0,0-1.47,3.67A21.58,21.58,0,0,0,141,14.1"/><path class="cls-5" d="M0,26.87V24.76H3.43V2.57H0V.46H4.94c.53,0,1,0,1.51,0L8,.34,9.68.26c.62,0,1.3,0,2.06,0a24.69,24.69,0,0,1,3.39.24,10.69,10.69,0,0,1,3.13.93,6.11,6.11,0,0,1,2.29,1.92,5.34,5.34,0,0,1,.89,3.2,5.84,5.84,0,0,1-.36,2A6,6,0,0,1,20,10.35a6.81,6.81,0,0,1-1.76,1.48,7.78,7.78,0,0,1-2.45.95v.15a13.41,13.41,0,0,1,2.49.64,8.42,8.42,0,0,1,2.25,1.22,5.51,5.51,0,0,1,2.21,4.6,6,6,0,0,1-1,3.49,7.6,7.6,0,0,1-2.62,2.41,12,12,0,0,1-3.68,1.37,20.06,20.06,0,0,1-4.16.44c-1,0-2.09,0-3.31-.12s-2.39-.11-3.53-.11ZM9.7,12.53q.75,0,1.68-.06c.61,0,1.14-.08,1.56-.13a6.57,6.57,0,0,0,3.1-2,4.69,4.69,0,0,0,1.17-3.17,4.29,4.29,0,0,0-1.59-3.69,7,7,0,0,0-4.3-1.18c-.85,0-1.58,0-2.17.06s-1.09.08-1.49.13v10ZM11.59,25a9.19,9.19,0,0,0,2.73-.39,6.75,6.75,0,0,0,2.17-1.12,5.29,5.29,0,0,0,1.42-1.71,4.82,4.82,0,0,0,.51-2.21A4.63,4.63,0,0,0,17.79,17a4.42,4.42,0,0,0-1.66-1.58,7.25,7.25,0,0,0-2.43-.82,18.47,18.47,0,0,0-2.94-.22H7.66V24.64A8.4,8.4,0,0,0,9,24.89q.81.09,2.55.09"/><polygon class="cls-5" points="26.04 2.57 26.04 0.45 37.78 0.45 37.78 2.57 33.7 2.57 33.7 24.76 43.74 24.76 44.49 23.93 44.49 18.72 47.21 18.72 47.21 26.87 26.04 26.87 26.04 24.76 29.47 24.76 29.47 2.57 26.04 2.57"/><path class="cls-5" d="M57.06,26.87H47.82V24.76h2.94L60.53.46h4l9,24.3h2.83v2.11H65.51V24.76h3.37l-2.46-6.64h-10l-2.56,6.64h3.24ZM57.25,16h8.53l-3.1-8.72-.94-4h-.15L60.5,7.36Z"/><polygon class="cls-5" points="96.76 0.45 106.05 0.45 106.05 2.57 102.61 2.57 102.61 27.32 100.16 27.32 84.8 6.61 83.14 3.7 82.99 3.7 83.36 6.64 83.36 24.76 86.8 24.76 86.8 26.87 77.52 26.87 77.52 24.76 80.95 24.76 80.95 2.57 77.52 2.57 77.52 0.45 85.06 0.45 98.28 18.23 100.23 21.47 100.42 21.47 100.2 18.23 100.2 2.57 96.76 2.57 96.76 0.45"/><path class="cls-5" d="M128.73,19.93h2.42v5.92a11.86,11.86,0,0,1-3.1,1.06,17.86,17.86,0,0,1-3.82.41,22.46,22.46,0,0,1-6.22-.79,11.9,11.9,0,0,1-4.66-2.47,11.08,11.08,0,0,1-2.93-4.25,16.64,16.64,0,0,1-1-6.15,15.49,15.49,0,0,1,1.14-6.28,11.41,11.41,0,0,1,3-4.23,12.19,12.19,0,0,1,4.46-2.4A18.59,18.59,0,0,1,123.37,0c.91,0,1.72,0,2.45.1a15,15,0,0,1,2,.28,13.38,13.38,0,0,1,1.64.45c.51.17,1,.37,1.48.57V7.85H128.5v-4L128,3.13a13.71,13.71,0,0,0-1.3-.45,10.73,10.73,0,0,0-2.85-.27,11.09,11.09,0,0,0-3.81.65,7.87,7.87,0,0,0-3.07,2,9.48,9.48,0,0,0-2.06,3.49,15.16,15.16,0,0,0-.76,5.11q0,5.4,2.74,8.32t7.68,2.93a10.47,10.47,0,0,0,2.28-.21,3.46,3.46,0,0,0,1.38-.55l.53-.71Z"/><path class="cls-5" d="M135.75,13.66a15.78,15.78,0,0,1,.91-5.45,12.43,12.43,0,0,1,2.61-4.34A11.88,11.88,0,0,1,143.5,1,16.6,16.6,0,0,1,155,1a12,12,0,0,1,4.26,2.85,12.21,12.21,0,0,1,2.64,4.34,15.78,15.78,0,0,1,.91,5.45,15.84,15.84,0,0,1-.91,5.46,12.3,12.3,0,0,1-2.64,4.34A12.11,12.11,0,0,1,155,26.3a15.06,15.06,0,0,1-5.74,1,14.92,14.92,0,0,1-5.72-1,12,12,0,0,1-4.23-2.84,12.53,12.53,0,0,1-2.61-4.34,15.84,15.84,0,0,1-.91-5.46m4.72,0a18.26,18.26,0,0,0,.54,4.53,10.81,10.81,0,0,0,1.68,3.66,8.36,8.36,0,0,0,2.85,2.46,8.65,8.65,0,0,0,4.06.9,7.48,7.48,0,0,0,3.74-.9A7.89,7.89,0,0,0,156,21.85a11.49,11.49,0,0,0,1.56-3.66,18.27,18.27,0,0,0,.53-4.53,17.8,17.8,0,0,0-.55-4.53,10.61,10.61,0,0,0-1.67-3.66A8.31,8.31,0,0,0,153,3a8.62,8.62,0,0,0-4.1-.91A7.69,7.69,0,0,0,145,3a7.5,7.5,0,0,0-2.62,2.45,10.57,10.57,0,0,0-1.47,3.66,21.09,21.09,0,0,0-.45,4.53"/></g></g></svg>