<svg xmlns="http://www.w3.org/2000/svg" viewBox="0 0 245.75 95.81"><defs><style>.cls-1,.cls-6{fill:#194792;}.cls-1,.cls-2,.cls-3{fill-rule:evenodd;}.cls-2,.cls-4{fill:#beb8a6;}.cls-3{fill:#062235;}.cls-5{fill:#fdfefe;}</style></defs><g id="Layer_2" data-name="Layer 2"><g id="Ñëîé_1" data-name="Ñëîé 1"><path class="cls-1" d="M102.8,11.68a.24.24,0,0,1,.25.25v5a.24.24,0,0,1-.07.18.25.25,0,0,1-.18.08h-.17v.41h4V15.76h-.41V16a2.32,2.32,0,0,0,0,.24l0,.21,0,.19,0,.15h0a.49.49,0,0,1-.51.36h-1.3V14.7h.79a.4.4,0,0,1,.22.06s.07,0,.08.07l0,.06,0,.08s0,.07,0,.1,0,.08,0,.12h0v.17h.41V13.52h-.41v.17h0c0,.05,0,.08,0,.12s0,.07,0,.1l0,.08,0,.06s0,0-.08.07a.4.4,0,0,1-.22.06h-.79V11.76h1.3a.49.49,0,0,1,.51.36h0s0,.09,0,.14l0,.19,0,.21a1.94,1.94,0,0,0,0,.24v.23h.41V11.26h-4v.42Zm6.27,5.95a2.14,2.14,0,0,0,1.46-.5,1.77,1.77,0,0,0,.46-.63,1.9,1.9,0,0,0,.18-.83,1.55,1.55,0,0,0-.44-1.13,3.35,3.35,0,0,0-1.32-.76,2.26,2.26,0,0,1-.9-.48,1.1,1.1,0,0,1-.25-.79.68.68,0,0,1,.39-.66,1.32,1.32,0,0,1,.62-.13,1.09,1.09,0,0,1,1.11.79,1.55,1.55,0,0,1,0,.15,1.62,1.62,0,0,0,0,.19s0,.09,0,.14l0,.15h.39V11.7l-.08,0a3.23,3.23,0,0,0-1.54-.39,1.91,1.91,0,0,0-1.31.48A1.61,1.61,0,0,0,107.4,13a1.66,1.66,0,0,0,.4,1.15,2.55,2.55,0,0,0,1,.66,4.76,4.76,0,0,1,1.15.59.93.93,0,0,1,.31.75,1,1,0,0,1-.32.77,1.38,1.38,0,0,1-.9.27,1.54,1.54,0,0,1-.8-.21,1.13,1.13,0,0,1-.48-.58l0-.1a.52.52,0,0,0,0-.11l0-.13a.69.69,0,0,0,0-.13v-.15h-.4V17.2l.09,0a3.47,3.47,0,0,0,1.7.39M112.38,13v-.06a1.94,1.94,0,0,0,0-.24c0-.07,0-.15,0-.21l0-.19s0-.1.05-.14h0a.49.49,0,0,1,.51-.36h.61V17a.25.25,0,0,1-.08.18.21.21,0,0,1-.17.08h-.17v.41h2.1v-.41h-.17a.25.25,0,0,1-.18-.08.24.24,0,0,1-.07-.18v-5.2h.63a.5.5,0,0,1,.51.36h0a1,1,0,0,0,0,.14l0,.19c0,.06,0,.14,0,.21a1.94,1.94,0,0,1,0,.24.18.18,0,0,1,0,.06v.17h.4V11.26H112v1.88h.41Zm6.49-1.17a2,2,0,0,1,1.08.73,3,3,0,0,1,.63,1.92,3,3,0,0,1-.63,1.92,2,2,0,0,1-1.08.72Zm-.29,5.83h.29a2.93,2.93,0,0,0,.95-.23,3,3,0,0,0,1-.7,3.35,3.35,0,0,0,.67-1.06,3.36,3.36,0,0,0,0-2.39,3.35,3.35,0,0,0-.67-1.06,3,3,0,0,0-1-.7,2.93,2.93,0,0,0-.95-.23h-1.68v.41h.16a.25.25,0,0,1,.18.08.24.24,0,0,1,.07.18v5a.24.24,0,0,1-.25.25h-.16v.42h1.39Zm4.34-1.16a.55.55,0,0,0-.42.17.57.57,0,0,0-.17.41.61.61,0,0,0,.17.42.58.58,0,0,0,.42.16.56.56,0,0,0,.41-.16.61.61,0,0,0,.17-.42.57.57,0,0,0-.17-.41.53.53,0,0,0-.41-.17m7.34-1.3h-.42v.22c0,.09,0,.17,0,.24s0,.15,0,.21l0,.19a1.55,1.55,0,0,1,0,.15h0a.51.51,0,0,1-.52.36h-1.34c.48-.68.89-1.23,1.23-1.64a3.72,3.72,0,0,0,1-2.09,1.51,1.51,0,0,0-.35-1,1.45,1.45,0,0,0-1-.5h-.55a2.89,2.89,0,0,0-1.17.39l-.09,0v1.82h.41v-.16a.35.35,0,0,0,0-.06,1.66,1.66,0,0,1,0-.24q0-.12,0-.21l0-.19a1.55,1.55,0,0,1,0-.15,2.2,2.2,0,0,1,.09-.21,1.18,1.18,0,0,1,.2-.28,1.05,1.05,0,0,1,.27-.2.69.69,0,0,1,.18-.05.74.74,0,0,1,.37,0,.51.51,0,0,1,.26.21,1.67,1.67,0,0,1,.21.86v.09a3,3,0,0,1-.38,1.38,17.46,17.46,0,0,1-1.26,1.9h0c-.26.35-.5.68-.75,1l-.36.4v0h3.88Zm4.06,1.14c-.26.49-.57.74-.92.74s-.66-.25-.92-.74a4,4,0,0,1-.42-1.9,4,4,0,0,1,.42-1.91c.26-.5.57-.74.92-.74s.66.24.92.74a4,4,0,0,1,.42,1.91,4,4,0,0,1-.42,1.9m.07-4.8a2,2,0,0,0-1-.25,2.09,2.09,0,0,0-1,.25,2.77,2.77,0,0,0-.8.7,3.54,3.54,0,0,0-.72,2.24,3.51,3.51,0,0,0,.72,2.23,2.62,2.62,0,0,0,.8.7,2.09,2.09,0,0,0,1,.25,2,2,0,0,0,1-.25,2.55,2.55,0,0,0,.81-.7,3.51,3.51,0,0,0,.72-2.23,3.54,3.54,0,0,0-.72-2.24,2.68,2.68,0,0,0-.81-.7m4.55,6.08v-.37h-.17a.25.25,0,0,1-.17-.08.24.24,0,0,1-.07-.18v-5.7h-.46l-1.53,1.34.28.4.44-.4V17a.24.24,0,0,1-.07.18.25.25,0,0,1-.17.08h-.17v.41h2.09Zm4.18-6.33h-3.55v2.47H140V13.5c0-.09,0-.17,0-.24s0-.15,0-.21l0-.19a1.31,1.31,0,0,1,.05-.15h0a.49.49,0,0,1,.51-.36h1.68L141,17a.3.3,0,0,1-.32.25h-.3v.41H142v-.41h-.36a.13.13,0,0,1-.11-.06.12.12,0,0,1,0-.1Z"/><polygon class="cls-1" points="99.75 14.04 73.63 14.42 99.75 14.85 99.75 14.04"/><polygon class="cls-1" points="146 14.04 172.12 14.42 146 14.85 146 14.04"/><path class="cls-2" d="M77.5,58.87a4.55,4.55,0,0,0-.82.1.69.69,0,0,0-.42.28,2.09,2.09,0,0,0-.16.27,1.06,1.06,0,0,0-.08.23.48.48,0,0,1-.09.19.24.24,0,0,1-.2.08.24.24,0,0,1-.22-.12.55.55,0,0,1,0-.24,5.35,5.35,0,0,1,.09-.63l.09-.42.41,0,1.44,0Zm7.56-1.15.26,0,.17,0,.26,0a.2.2,0,0,1,.22.15,1.07,1.07,0,0,1,0,.29c0,.14,0,.46,0,.8s0,.75,0,1h0a.6.6,0,0,1,0,.22.23.23,0,0,1-.21.14.23.23,0,0,1-.23-.14.78.78,0,0,1-.06-.28v-.17A.64.64,0,0,0,85,59.1a.88.88,0,0,0,0-.17v-.08c0-.26,0-.57,0-.86Zm-1.93,1.12-1.21,0v6.11c0,.71,0,1.37,0,1.91,0,.17,0,.34,0,.5h0a1.24,1.24,0,0,0-.27,0h-.14l-.42,0,0-.13c0-.16,0-.34,0-.55s0-.47,0-.72,0-1.11,0-1.9V58.54l1.1,0a3.45,3.45,0,0,1,.6,0,1.66,1.66,0,0,1,.37.11l.05,0Zm-.71,10h.06l.41,0h.35a.54.54,0,0,1,.24,0,.2.2,0,0,1,.13.2.24.24,0,0,1-.14.22.57.57,0,0,1-.27,0c-.6,0-1.2,0-1.67,0h-.72l-.71,0-1.21,0a.59.59,0,0,1-.28,0,.23.23,0,0,1-.14-.22v0h1.44l.82,0h.87a1.53,1.53,0,0,0,.3,0,1.16,1.16,0,0,0,.28-.1,1.46,1.46,0,0,0,.24-.17m70.39-2.24h0l0,0Zm12.94-4.76-.36,1h.72ZM97.42,57.73l.29,0,.26,0,.08,0a.58.58,0,0,1,.19,0c.18,0,.21.12.21.26s0,.09,0,.17a5.21,5.21,0,0,0-.1.83l0,.31c0,.26,0,.58-.06.7h0a.44.44,0,0,1-.06.16.22.22,0,0,1-.21.11.21.21,0,0,1-.21-.12.35.35,0,0,1,0-.21,1.68,1.68,0,0,0,0-.29,1.8,1.8,0,0,0-.06-.22.54.54,0,0,0-.22-.28l-.09,0c0-.08,0-.19,0-.3l0-.73Zm-2,1.05-.85,0c0,.74,0,1.52,0,2.28h-.9V58.49h.66l.48,0,.23,0a1.78,1.78,0,0,1,.33.05h0v.18Zm1.73,3.86.25,0a.5.5,0,0,0,.23-.12v0c.12-.14.19-.22.32-.22a.23.23,0,0,1,.16.06.25.25,0,0,1,.07.18s0,.09,0,.18-.06.43-.1.94l0,.52c0,.23,0,.44,0,.49a.63.63,0,0,1,0,.23.23.23,0,0,1-.23.18.23.23,0,0,1-.2-.08.22.22,0,0,1-.06-.17v-.14a3,3,0,0,0,0-.39.58.58,0,0,0-.2-.32.53.53,0,0,0-.15-.08h0v-.18s0-.24,0-.44l0-.52Zm-2,1h-.63c0,.62,0,1.24,0,1.86,0,.4,0,.88,0,1.25a5.32,5.32,0,0,1-.65,0,.78.78,0,0,1-.25-.06s0,0,0,0a2.78,2.78,0,0,1,0-.4c0-.3,0-1.05,0-1.65V63.41h1.13l.24,0a.65.65,0,0,1,.17,0,1.49,1.49,0,0,1,0,.21m2.44,4.58h0a.91.91,0,0,0,.4-.35,2,2,0,0,0,.21-.68.56.56,0,0,1,.08-.23.24.24,0,0,1,.21-.1c.25,0,.25.17.25.39a7.41,7.41,0,0,1-.08.88c0,.34-.09.68-.13.84-.13.49-.28.49-.93.49-.89,0-1.61,0-2.19,0H95l-.86,0H92.6l-.56,0h-.49a.56.56,0,0,1-.28,0,.22.22,0,0,1-.15-.22v0l.4,0h1l1.36.05c.63,0,1.39,0,2.16,0a2.25,2.25,0,0,0,1-.13,1.16,1.16,0,0,0,.56-.82m14.39,1.25-.21,0a8,8,0,0,1-1.27.12,7.59,7.59,0,0,1-2.17-.3H109l.67,0,.71-.09c.21,0,.4-.07.57-.11l.35-.09Zm3.11-10.42h0a5.67,5.67,0,0,1,1.72,4.27,6,6,0,0,1-.71,2.86A6.42,6.42,0,0,1,115,67.81L114,67.27a5.66,5.66,0,0,0,.5-.57,6.37,6.37,0,0,0,.73-1.1,6.85,6.85,0,0,0,.59-1.54,7,7,0,0,0,.2-1.63,7.24,7.24,0,0,0-.49-2.66c-.1-.23-.21-.45-.33-.67m9.45,12.46a2.38,2.38,0,0,0,.37-.06,7.19,7.19,0,0,0,1.39-.38l.09,0a.48.48,0,0,1,.18-.06.26.26,0,0,1,.19.08.24.24,0,0,1,.07.18.24.24,0,0,1-.09.2.62.62,0,0,1-.16.1,12.09,12.09,0,0,1-2,.74,10.93,10.93,0,0,1-2.92.41,9.6,9.6,0,0,1-2.62-.33c.33,0,.67,0,1,0a11.09,11.09,0,0,0,1.67-.13,13.43,13.43,0,0,0,1.44-.31,11.36,11.36,0,0,0,1.17-.4ZM110,58.48a3.2,3.2,0,0,0-2.41,1.22,5.44,5.44,0,0,0-.95,3.46,6.72,6.72,0,0,0,.67,3.06,3.94,3.94,0,0,1-.5-.5,4.6,4.6,0,0,1-.81-1.54,7.41,7.41,0,0,1-.07-3.77,3.46,3.46,0,0,1,.59-1.25,2.49,2.49,0,0,1,.91-.72,3.08,3.08,0,0,1,1.26-.25,3.27,3.27,0,0,1,1.31.29m15.51-.75.81,0a.78.78,0,0,1,.29,0,.21.21,0,0,1,.16.22.23.23,0,0,1-.13.22.53.53,0,0,1-.23,0h-.2l-.22,0a.47.47,0,0,0-.34.21,1.2,1.2,0,0,0-.13.55c0,.48,0,.9,0,3.21v2.13a8,8,0,0,0,.29,2.39,2.64,2.64,0,0,1-.32-.22,1.82,1.82,0,0,1-.35-.38,2.09,2.09,0,0,1-.27-.54,4.38,4.38,0,0,1-.2-.89,11.75,11.75,0,0,1-.07-1.31V59c0-.43,0-.65,0-.88V58h.2l.26,0a1.43,1.43,0,0,0,.27-.09l.17-.11m7.43,0-.21.12a1.07,1.07,0,0,1-.27.08l-.26,0H132v.15c0,.23,0,.45,0,.88v3.92c0,.45,0,.9-.05,1.35a7.72,7.72,0,0,1-.22,1.36,5,5,0,0,1-.52,1.33,4.4,4.4,0,0,1-.93,1.15,6.11,6.11,0,0,1-1,.66,4.53,4.53,0,0,1-.95.39,6.27,6.27,0,0,1-.92.19,8.32,8.32,0,0,1-.85,0H126a3.12,3.12,0,0,0,.5.14,7.17,7.17,0,0,0,1.6.16,5.59,5.59,0,0,0,1.58-.21,4.47,4.47,0,0,0,1.66-.92,4,4,0,0,0,1.24-2.13,10.73,10.73,0,0,0,.24-2.54V62.24c0-2.31,0-2.73,0-3.21a1.2,1.2,0,0,1,.13-.55.47.47,0,0,1,.34-.21l.22,0h.2a.6.6,0,0,0,.25,0,.21.21,0,0,0,.14-.22c0-.2-.14-.26-.44-.26l-.81,0m10,0,.82,0a.75.75,0,0,1,.28,0,.21.21,0,0,1,.16.21.22.22,0,0,1-.12.22.47.47,0,0,1-.24,0h-.21l-.23,0a.52.52,0,0,0-.34.21,1.21,1.21,0,0,0-.12.55c0,.48,0,.9,0,3.21v2.68c0,.75,0,1.43,0,2,0,.16,0,.3,0,.44h0a1.24,1.24,0,0,0-.27,0h-.14l-.45,0V67.2q0-.21,0-.54v-.73c0-.33,0-1.11,0-2V59c0-.43,0-.65,0-.88V58h.21l.27,0a1,1,0,0,0,.29-.1l.14-.09m.47,11.14h.06l.41,0h.35a.54.54,0,0,1,.24,0,.2.2,0,0,1,.13.2.24.24,0,0,1-.14.22.57.57,0,0,1-.27,0c-.61,0-1.21,0-1.68,0h-.69l-.71,0-1.21,0a.56.56,0,0,1-.28,0,.22.22,0,0,1-.15-.22v0h1.37l.86,0h.88a1.45,1.45,0,0,0,.3,0,1.42,1.42,0,0,0,.29-.1,1.06,1.06,0,0,0,.23-.17M153.7,59c0,.48,0,.91,0,3.21v2.68c0,.74,0,1.36,0,1.84h-.27a3.42,3.42,0,0,1-.43,0l-.15,0,0,0h0s0,0,0,0,0-.26-.05-.46c0-.5,0-1.24,0-2.21V59c0-.43,0-.65,0-.88l0-.14.23,0h.11l.27,0a1.38,1.38,0,0,0,.27-.08l.21-.12.81,0c.29,0,.44.06.44.26a.22.22,0,0,1-.14.22.65.65,0,0,1-.26,0h-.3l-.27,0a.49.49,0,0,0-.34.21,1.21,1.21,0,0,0-.12.55m3.41,9.2a1,1,0,0,0,.29-.21,1.54,1.54,0,0,0,.23-.39,2.13,2.13,0,0,0,.13-.46.65.65,0,0,1,.06-.21.25.25,0,0,1,.23-.12.2.2,0,0,1,.21.13.81.81,0,0,1,0,.25c0,.1,0,.57-.1,1a5.13,5.13,0,0,1-.13.76.57.57,0,0,1-.28.41,2.06,2.06,0,0,1-.8.09c-.81,0-1.47,0-2,0l-.53,0-.95,0h-1.77l-.56,0h-.49a.59.59,0,0,1-.28,0,.23.23,0,0,1-.14-.22v0l.4,0c.91,0,1.81.06,2.71.06.62,0,1.33,0,2.06,0a5.34,5.34,0,0,0,.6,0,1.88,1.88,0,0,0,.47-.13,1.1,1.1,0,0,0,.46-.38,1.53,1.53,0,0,0,.19-.45m10-2.74h-1.47c-.29.73-.56,1.48-.84,2.22,0,.1-.07.19-.1.29a.83.83,0,0,0-.08-.22.87.87,0,0,0-.36-.35,1,1,0,0,0-.28-.09,1,1,0,0,0-.25,0l0-.11c.24-.66.5-1.33.75-2H167Zm-2.51,3.22a.19.19,0,0,0,.07.12.57.57,0,0,0,.4.1h.23a.51.51,0,0,1,.24,0,.2.2,0,0,1,.11.2.24.24,0,0,1-.14.23.55.55,0,0,1-.24,0l-.83,0-.79,0h-.33c-.35,0-.92,0-1.46,0a.64.64,0,0,1-.27,0,.22.22,0,0,1-.14-.23v0h.61l.76,0h0l.83,0,.28,0a1,1,0,0,0,.27-.1.85.85,0,0,0,.37-.33Zm3-11.27a.33.33,0,0,1,.19-.06.33.33,0,0,1,.28.16,1.57,1.57,0,0,1,.21.4c.16.36.7,1.72,1.35,3.33.84,2.13,1.87,4.71,2.42,6h0l-.17,0-.07,0a.48.48,0,0,1-.12-.1,1.75,1.75,0,0,1-.27-.36,6,6,0,0,1-.34-.71c-.27-.62-.66-1.59-1.1-2.68s-.87-2.4-1.33-3.32-.79-2-1.05-2.62m5.52,11.37.19.07.29,0h.32a.45.45,0,0,1,.2,0,.21.21,0,0,1,.12.21c0,.13-.06.2-.24.24a3.64,3.64,0,0,1-.58,0h-1.19l-1.69,0h-.07c-.31,0-.51,0-.51-.24v0h2.27l.32,0a1,1,0,0,0,.57-.31"/><path class="cls-1" d="M78.1,67.19c.08-.63.08-1.83.08-3.23V57.85L76,57.91a4.25,4.25,0,0,0-1,.1.73.73,0,0,0-.42.29,1.51,1.51,0,0,0-.15.26.88.88,0,0,0-.09.23.48.48,0,0,1-.09.19.24.24,0,0,1-.2.09.22.22,0,0,1-.21-.13.54.54,0,0,1,0-.24,4.36,4.36,0,0,1,.1-.63c.08-.48.21-1.06.23-1.15a.66.66,0,0,1,.09-.25.22.22,0,0,1,.21-.13.61.61,0,0,1,.21.06,1.07,1.07,0,0,0,.45.12c.22,0,.48.05.75.06l.76,0h6a9.13,9.13,0,0,0,1-.07l.17,0a1.25,1.25,0,0,1,.26,0,.21.21,0,0,1,.22.15,1.07,1.07,0,0,1,0,.29c0,.14,0,.46,0,.8s0,.75,0,1h0a.55.55,0,0,1,0,.22.22.22,0,0,1-.21.14.23.23,0,0,1-.23-.14.78.78,0,0,1-.06-.28v-.17a.63.63,0,0,0-.43-.51,3.14,3.14,0,0,0-1.25-.23l-1.79,0V64c0,.71,0,1.37,0,1.91s0,1,.07,1.33a1.31,1.31,0,0,0,.12.5.49.49,0,0,0,.36.22l.41,0,.36,0a.53.53,0,0,1,.23,0,.2.2,0,0,1,.13.2.24.24,0,0,1-.14.22.57.57,0,0,1-.27,0c-.6,0-1.2,0-1.67,0h-.72l-.71,0-1.2,0a.72.72,0,0,1-.28,0,.25.25,0,0,1-.15-.23A.21.21,0,0,1,77,68a.49.49,0,0,1,.24,0l.3,0,.23,0a.32.32,0,0,0,.23-.21,1.69,1.69,0,0,0,.11-.52m12.66,0c.07-.63.07-1.83.07-3.23V59c0-.45,0-.68,0-.92a1,1,0,0,0-.13-.53.68.68,0,0,0-.43-.23h0l-.22,0h-.35a.55.55,0,0,1-.24,0,.22.22,0,0,1-.14-.22.22.22,0,0,1,.16-.22.8.8,0,0,1,.3,0c.46,0,.93,0,1.39,0l.8,0h3.8l.38,0,.25,0,.08,0a.58.58,0,0,1,.19,0c.18,0,.21.12.21.26a1.49,1.49,0,0,1,0,.17,5.21,5.21,0,0,0-.1.83l0,.31c0,.26,0,.58-.06.7h0a.32.32,0,0,1-.06.15.26.26,0,0,1-.42,0,.4.4,0,0,1,0-.22,1.74,1.74,0,0,0,0-.29.73.73,0,0,0-.06-.21.49.49,0,0,0-.22-.29,1.89,1.89,0,0,0-.7-.19l-.77,0L93,57.8c0,1.28,0,2.65,0,3.93h1.19l1.22,0a2.79,2.79,0,0,0,.42-.07.39.39,0,0,0,.23-.12v0c.12-.14.19-.22.32-.22a.23.23,0,0,1,.16.06.27.27,0,0,1,.07.18s0,.09,0,.18-.06.43-.1.94l0,.52c0,.23,0,.44,0,.49a.63.63,0,0,1,0,.23.22.22,0,0,1-.23.18A.25.25,0,0,1,96,64a.27.27,0,0,1-.06-.17v-.14a3,3,0,0,0-.05-.39.53.53,0,0,0-.2-.31,1.06,1.06,0,0,0-.54-.19l-.75,0-1.37,0c0,.62,0,1.24,0,1.86s0,1.41,0,1.72c0,.49.07.78.29.94a2.63,2.63,0,0,0,1.41.22c.2,0,.45,0,.71,0a1.94,1.94,0,0,0,.67-.15.86.86,0,0,0,.4-.35,1.87,1.87,0,0,0,.22-.68.9.9,0,0,1,.07-.23.24.24,0,0,1,.21-.1c.25,0,.25.17.25.39s0,.53-.07.88-.09.68-.13.84c-.14.49-.29.49-.94.49-.89,0-1.6,0-2.19,0l-.45,0-.86,0H91l-.56,0H90a.72.72,0,0,1-.28,0,.25.25,0,0,1-.15-.23.23.23,0,0,1,.12-.2.57.57,0,0,1,.25,0l.29,0,.23,0a.32.32,0,0,0,.23-.21,2.51,2.51,0,0,0,.12-.52M117,71.29a17,17,0,0,1-3.32-1.6l-2.34-1.37a6.9,6.9,0,0,1-1.11.28,7.88,7.88,0,0,1-1.27.11,6.19,6.19,0,0,1-4.5-1.66,6.34,6.34,0,0,1-1.81-4.5,6.2,6.2,0,0,1,1.88-4.38A6.32,6.32,0,0,1,109,56.54a6.54,6.54,0,0,1,4.56,1.62,5.64,5.64,0,0,1,1.72,4.27,6.06,6.06,0,0,1-.7,2.85,6.46,6.46,0,0,1-1.83,2.13l2.87,1.48a18.26,18.26,0,0,0,3.92,1.51,9.85,9.85,0,0,0,2.29.28,8.84,8.84,0,0,0,1.53-.13,7.23,7.23,0,0,0,1.39-.39l.09,0a.47.47,0,0,1,.19-.06.25.25,0,0,1,.18.08.24.24,0,0,1,.07.18.24.24,0,0,1-.09.2.62.62,0,0,1-.16.1,12.09,12.09,0,0,1-2,.74,10.82,10.82,0,0,1-2.92.41,9.66,9.66,0,0,1-3.17-.49m-10.74-5.14a4.18,4.18,0,0,0,3.27,1.55,3,3,0,0,0,2.12-.79c.71-.67,1.27-1.89,1.27-4.07a5.87,5.87,0,0,0-1.18-3.79,4,4,0,0,0-3.08-1.54,3.29,3.29,0,0,0-2.7,1.23,5.44,5.44,0,0,0-1,3.46,6.08,6.08,0,0,0,1.25,4m15.81,0a3.83,3.83,0,0,0,1,1.5,4.07,4.07,0,0,0,1.86.92,7.17,7.17,0,0,0,1.6.16,5.59,5.59,0,0,0,1.58-.21,4.4,4.4,0,0,0,1.66-.92A4,4,0,0,0,131,65.45a10.74,10.74,0,0,0,.25-2.54V61.29c0-2.31,0-2.74,0-3.22a1.09,1.09,0,0,1,.12-.55.47.47,0,0,1,.34-.21l.22,0h.2a.6.6,0,0,0,.25,0,.21.21,0,0,0,.14-.22c0-.2-.14-.26-.44-.26s-.91,0-1.3,0h-.47c-.2,0-1,0-1.71,0a.72.72,0,0,0-.28,0,.21.21,0,0,0-.16.22.22.22,0,0,0,.14.22.55.55,0,0,0,.24,0h.31l.21,0h0a.68.68,0,0,1,.43.23,1.14,1.14,0,0,1,.13.53c0,.24,0,.47,0,.92v4.2a11.83,11.83,0,0,1-.13,2.13,2.8,2.8,0,0,1-.72,1.55,2.53,2.53,0,0,1-.89.58,3.07,3.07,0,0,1-1.12.21,3.37,3.37,0,0,1-.85-.1,2.37,2.37,0,0,1-1-.5,2.61,2.61,0,0,1-.84-1.22,7.43,7.43,0,0,1-.31-2.42V61.29c0-2.31,0-2.74,0-3.22a1.09,1.09,0,0,1,.12-.55.47.47,0,0,1,.34-.21l.22,0h.2a.53.53,0,0,0,.23,0,.24.24,0,0,0,0-.44.78.78,0,0,0-.29,0l-1.12,0-.75,0-.81,0-1.41,0a.8.8,0,0,0-.3,0,.21.21,0,0,0-.16.22.22.22,0,0,0,.14.22.55.55,0,0,0,.24,0h.34l.22,0h0a.7.7,0,0,1,.43.23,1.14,1.14,0,0,1,.13.53c0,.24,0,.47,0,.92v4.52a7.42,7.42,0,0,0,.39,2.62m17,1.13c.07-.63.07-1.83.07-3.3V59c0-.45,0-.68,0-.92a1.2,1.2,0,0,0-.12-.54.43.43,0,0,0-.3-.2h0l-.23,0h-.29a.61.61,0,0,1-.24,0,.25.25,0,0,1-.13-.23.2.2,0,0,1,.18-.21.9.9,0,0,1,.31,0l1.12,0,.86,0,.74,0,1.11,0a.72.72,0,0,1,.28,0,.2.2,0,0,1,.17.21.25.25,0,0,1-.13.23.57.57,0,0,1-.24,0H142l-.23,0a.52.52,0,0,0-.35.21,1.36,1.36,0,0,0-.12.55c0,.48,0,.91,0,3.22V64c0,.75,0,1.43,0,2s0,1,.05,1.35a1,1,0,0,0,.13.45.53.53,0,0,0,.38.19l.4,0,.36,0a.5.5,0,0,1,.23,0,.2.2,0,0,1,.13.2.24.24,0,0,1-.14.22.54.54,0,0,1-.27,0c-.6,0-1.21,0-1.67,0h-.7l-.71,0-1.21,0a.75.75,0,0,1-.28,0,.25.25,0,0,1-.14-.23A.22.22,0,0,1,138,68a.57.57,0,0,1,.25,0l.29,0,.23,0a.32.32,0,0,0,.24-.18,1.31,1.31,0,0,0,.11-.48m13-9.19c0,.48,0,.91,0,3.22V64c0,1,0,1.72,0,2.26s.11.81.24.92a.93.93,0,0,0,.51.22,6.3,6.3,0,0,0,1.25.08,6.19,6.19,0,0,0,1,0,1.15,1.15,0,0,0,.67-.33,1.54,1.54,0,0,0,.23-.39,1.41,1.41,0,0,0,.13-.45.64.64,0,0,1,.06-.22.25.25,0,0,1,.23-.12.2.2,0,0,1,.21.13.59.59,0,0,1,0,.25c0,.1,0,.57-.1,1a5.13,5.13,0,0,1-.13.76c-.06.2-.11.33-.28.41a2,2,0,0,1-.79.09c-.82,0-1.48,0-2,0l-.53,0-.95,0h-1.77l-.55,0H149a.67.67,0,0,1-.27,0,.25.25,0,0,1-.15-.23.22.22,0,0,1,.11-.2.57.57,0,0,1,.25,0l.3,0,.22,0a.32.32,0,0,0,.23-.21,2,2,0,0,0,.12-.52c.07-.63.07-1.83.07-3.23V59c0-.45,0-.68,0-.92a1.14,1.14,0,0,0-.13-.53.68.68,0,0,0-.43-.23h0l-.19,0h-.28a.55.55,0,0,1-.24,0,.22.22,0,0,1-.14-.22.21.21,0,0,1,.16-.22.8.8,0,0,1,.3,0l1.31,0,.77,0,.8,0,1.27,0c.29,0,.44.06.44.26a.22.22,0,0,1-.14.22.62.62,0,0,1-.26,0h-.3l-.27,0a.49.49,0,0,0-.34.21,1.21,1.21,0,0,0-.12.55m15.35,6.46H164s0,0,0,0c-.29.73-.56,1.48-.84,2.22-.07.18-.12.35-.16.49a1.93,1.93,0,0,0-.06.4.31.31,0,0,0,.09.24.56.56,0,0,0,.4.11h.23a.49.49,0,0,1,.24,0,.2.2,0,0,1,.11.2.25.25,0,0,1-.13.23.62.62,0,0,1-.25,0l-.83,0-.78,0h-.33c-.36,0-.93,0-1.47,0a.7.7,0,0,1-.27,0,.23.23,0,0,1-.14-.23.21.21,0,0,1,.1-.2.42.42,0,0,1,.2,0h.23l.23,0a1.07,1.07,0,0,0,.72-.39,3.5,3.5,0,0,0,.48-.91l3.81-9.55a4.52,4.52,0,0,1,.24-.49.35.35,0,0,1,.3-.19.33.33,0,0,1,.28.16,1.57,1.57,0,0,1,.21.4c.16.36.7,1.72,1.35,3.34.85,2.12,1.87,4.7,2.43,6a4.22,4.22,0,0,0,.74,1.27,1.07,1.07,0,0,0,.51.32l.29,0,.32,0a.42.42,0,0,1,.2,0,.21.21,0,0,1,.12.21c0,.13-.06.2-.23.24a2.88,2.88,0,0,1-.59,0h-1.19l-1.69,0h-.07c-.31,0-.5,0-.5-.24a.22.22,0,0,1,.1-.2.52.52,0,0,1,.2-.06h0a.12.12,0,0,0,.05,0,.16.16,0,0,0,0-.1l-1.23-3.26Zm-1.69-4.61-1.34,3.6h2.66Z"/><path class="cls-2" d="M80.5,83.25a1.33,1.33,0,0,1-.21.57V84l-.23.27a2.78,2.78,0,0,1-.29.8l.06.26a3.93,3.93,0,0,1-.12.48,2,2,0,0,0-.09.49.49.49,0,0,0,0,.12l-.29.27-.14.37.06.14-.06.22.06.17-.06.31-.21.17c0,.12-.12.29-.22.53a5.8,5.8,0,0,0-.5.47c.34-.08.84-.17,1.52-.29l0,.16-.12.19a5.22,5.22,0,0,1-1.23.51l-.57.27V90l-.1,0a1.9,1.9,0,0,0-.69.18h-.35l-.08-.08-.28-.06-.08-.15.08-.22.22-.06.06-.21a1.46,1.46,0,0,1,.51-.14c.24-.55.36-.83.37-.84a3.32,3.32,0,0,0,.1-1,3.58,3.58,0,0,1,.12-.89l.12-.16.21-.13v-.16h.08v-.57a.58.58,0,0,0,.15-.27l.15-.12c0-.11.07-.27.14-.49a.64.64,0,0,0,.12-.15v-.12a2.81,2.81,0,0,0,.25-.35l0-.15a2.52,2.52,0,0,0-.43.28l-.22,0-.28.21a1.35,1.35,0,0,1-.65.07l-.08-.28.08-.14h.14l.07-.13.43-.08.06-.08a4.17,4.17,0,0,1,.66-.35l.33,0,.35-.18a2.77,2.77,0,0,1,.75-.07l.29.07m7.56,3.46c-.11.23-.25.59-.43,1.07l-.21.22a4.15,4.15,0,0,0-.17.43l-.12.08a2.85,2.85,0,0,1-.37.57l-.21.13a5,5,0,0,0-.56.71l-.22.15-.49.14c-.24,0-.58-.11-1-.22a6,6,0,0,1-1.34-.78h-.21L82.64,89l-.07-.08-.06-.13-.16-.08v-.06a.71.71,0,0,1-.14-.29l-.13-.14v-.14a1.23,1.23,0,0,1-.43-.59,2,2,0,0,0,.08-.71l-.14-.13v-.08l.12-.13-.08-.14c0-.15.12-.36.23-.64l.49-.36a1.93,1.93,0,0,1,.37-.07,5.43,5.43,0,0,0,.92-.43l.22-.29.14-.06a1.4,1.4,0,0,1,.35-.3V84.1a1.09,1.09,0,0,0,.5-.3l.43.14v.16l.06.05a1.27,1.27,0,0,1,.65.14l.15.29v.14a15.41,15.41,0,0,1,1.41.86,5.94,5.94,0,0,0,.43.72Zm-1.14.15-.23-.29-.43-.14a1.39,1.39,0,0,0-.2-.21l-.16-.41c0-.19-.07-.38-.11-.56a1.17,1.17,0,0,0-.37-.54l-.7,0-.73.48h0v.16l-.3.06v.07l-.21.06-.08.08a1,1,0,0,1,0,.41,3.07,3.07,0,0,0-.08.51c.06.2.1.36.15.51l.14.07a3,3,0,0,1,.07.35.77.77,0,0,0-.07.28l.13.38a2.37,2.37,0,0,1,.86.78.78.78,0,0,1,.41.33l.16.1h.08l.13.06a.7.7,0,0,0,.37-.12,1.52,1.52,0,0,1,.63-.53,2.42,2.42,0,0,0,.64-1.84m8.4-.15a11.49,11.49,0,0,0-.43,1.07l-.22.22a3,3,0,0,0-.16.43l-.12.08a2.85,2.85,0,0,1-.37.57l-.21.13a5.78,5.78,0,0,0-.57.71l-.21.15-.49.14c-.24,0-.58-.11-1-.22a5.81,5.81,0,0,1-1.34-.78H90L89.9,89l-.08-.08-.06-.13-.15-.08v-.06a.6.6,0,0,1-.14-.29l-.14-.14v-.14a1.21,1.21,0,0,1-.42-.59,2,2,0,0,0,.07-.71l-.13-.13v-.08l.11-.13-.07-.14a3.69,3.69,0,0,1,.23-.64l.49-.36a1.81,1.81,0,0,1,.37-.07,5.82,5.82,0,0,0,.92-.43l.22-.29.14-.06a1.52,1.52,0,0,1,.34-.3V84.1a1.12,1.12,0,0,0,.51-.3l.43.14v.16l.06.05a1.22,1.22,0,0,1,.64.14l.16.29v.14a15.41,15.41,0,0,1,1.41.86,4.84,4.84,0,0,0,.43.72Zm-1.14.15L94,86.57l-.43-.14a1.39,1.39,0,0,0-.2-.21l-.16-.41a5.05,5.05,0,0,0-.12-.56,1.07,1.07,0,0,0-.36-.54l-.71,0q-.23.16-.72.48h0v.16l-.3.06v.07l-.21.06-.08.08a1.25,1.25,0,0,1,0,.41,3.07,3.07,0,0,0-.08.51c.06.2.1.36.15.51l.14.07a3,3,0,0,1,.07.35.77.77,0,0,0-.07.28l.13.38a2.45,2.45,0,0,1,.86.78.82.82,0,0,1,.41.33l.16.1h.07l.14.06a.7.7,0,0,0,.37-.12,1.52,1.52,0,0,1,.63-.53,2.42,2.42,0,0,0,.64-1.84m10.75-6.53-.08.17V81l-.1.22,0,.06h-.18a1.84,1.84,0,0,1-.53.35h-.16l-.12.06a3.52,3.52,0,0,1-.85-.29v0l-.41-.17-.23-.23a.27.27,0,0,0,0,.23l-.14.1,0,.29a8.16,8.16,0,0,0-.69,1.09v.1l-.23.24v.11l-.12.18-.17.1v.12l-.27.45.06.24-.06.44a2.74,2.74,0,0,0-.35.71H100l0,.1v.11l-.23.47h0l-.12.22v.11a1,1,0,0,0-.47.43,4.31,4.31,0,0,1-.25.88l-.17.12v.06h-.12v.46a2.29,2.29,0,0,0-.34.68,4.21,4.21,0,0,1-.34.74H97.8l-.13.24.06.09-.06.14-.23,0,0,0-.13.1L97,90.19l-.12.12,0-.06v-.18h0l-.06-.15.21-.3v-.1a1.15,1.15,0,0,0,.29-.52l.12-.1.06-.18a4.25,4.25,0,0,1,.67-.77v-.51l.24-.33h.23a.68.68,0,0,1,.16-.33v-.14l.13-.09a2.63,2.63,0,0,0,.1-.74l.29-.45.33-.24a1.65,1.65,0,0,0,.24-.45v-.58l.18-.4.17-.12.15-.23h.12l.12-.1.1-.23v-.18a1.16,1.16,0,0,0,.31-.51v-.17a2.12,2.12,0,0,0,.27-.84,7.35,7.35,0,0,1,.45-.7,2.34,2.34,0,0,1-.65-.22c-.36-.17-.58-.26-.66-.29h-.06l-.14,0-.15,0-.55-.06-.35.23H99v0a.49.49,0,0,0-.23.24v.07a.51.51,0,0,0,.35,0l.12.06.24.35h.09v0l.24.35V82l-.06.22-.12.12-.06.23-.09.06a2.64,2.64,0,0,1-.47.8,2.85,2.85,0,0,1-.77.23l-.49.08-.12,0-.18,0-.44-.1-.22-.39v-.06h0a.7.7,0,0,1,0-.35l-.24-.35-.18-.1v-.45a.8.8,0,0,1,.24-.35,2.26,2.26,0,0,1,0-.35l.18-.06.29-.33.57-.29.36,0,.1,0a.53.53,0,0,0,.18-.33,2.85,2.85,0,0,1,1.6-.39l.33,0a1.85,1.85,0,0,0,.35,0l.13,0,.14,0a3.49,3.49,0,0,1,1,.51h.07l.12-.23.1,0c.09-.21.36-.38.79-.52l.18,0a.57.57,0,0,0,.23-.18l.57.06a3.46,3.46,0,0,0,.86.27l0,.15h.06l.07.17Zm-.62.21v-.21a.8.8,0,0,0-.23-.35l-.12,0-.06-.11c-.39.05-.62.07-.69.07l-.06.09a.54.54,0,0,1-.41.08l-.1.1v.17l-.11,0-.12.17.41.18.14.14.13.14.46.16.41,0,.12-.06ZM99.46,82a1.69,1.69,0,0,1-.18-.53l-.17-.24h-.18l-.06-.15h-.33l-.12-.12h-.11l-.1.12a1,1,0,0,0-.31.06v.1l-.17.07v0l-.16.06v.06H97.5v.06h-.06l-.22.24v.09l0,.08V82h.08v.23l-.12.18v.22h.12a.48.48,0,0,0,.06.35,2.6,2.6,0,0,1,.46.1l0,.14.64-.24.06.1.1.08h.13l.1-.24a.28.28,0,0,0,.18-.12l-.06-.21.12-.3.17-.12Zm3.63,6.61A2.89,2.89,0,0,0,103,88l-.16-.15.06-.06h-.17l-.18-.33-.12-.08a.56.56,0,0,1-.39-.06l-.3.14v0h-.16l-.16-.26h-.47l-.31.1a3.2,3.2,0,0,0-.54.53l-.13,0-.11.23v.12a2.57,2.57,0,0,1-.24.35l.06.45a1.61,1.61,0,0,1,.3.35v.45a2.83,2.83,0,0,1,.27.39,1.22,1.22,0,0,0,.53.18l.17-.06,0,.06.12-.06h.23l.1-.06a1.61,1.61,0,0,0,.93-.28l.23-.52a.55.55,0,0,0,.29-.16l0-.35.11-.12Zm-.44-.27-.05-.23-.24-.22h-.12l0-.18h-.42l-.06-.12h-.12l-.12.12a.69.69,0,0,0-.27.06v.12l-.24,0v0l-.12.09v0h-.06l0,.06h-.06l-.17.23v.12l.06.06v.12h0v.23l-.16.16,0,.15.1.08a.63.63,0,0,0,0,.33.6.6,0,0,0,.27.06.77.77,0,0,1,.27.06l.06.1.63-.22v.12a.48.48,0,0,0,.22.06,2.72,2.72,0,0,1,.3-.27.94.94,0,0,1,.06-.53l0-.18a2,2,0,0,1,.16-.45Zm17-8.3-.21.42-.22.16-.14.21-.29.19-.33-.21v-.27a11.44,11.44,0,0,0-1.17-.4,2.06,2.06,0,0,0-1.1.44c-.13.23-.19.38-.17.47l-.12.06a1.91,1.91,0,0,0-.08.29h-.13l-.08.43-.28.35.08.06a1.94,1.94,0,0,0-.29.86l.08.14-.08.15v.06a3.59,3.59,0,0,0-.34.6,3.79,3.79,0,0,0-.3.7l-.14.14-.16.41,0,.31-.15.14-.06.21h-.09l-.35.43a2.91,2.91,0,0,1-.37,1.27v.07l-.2.14v.52c-.13.17-.31.45-.54.83l.1.25.28.2.51-.14v-.06a1.35,1.35,0,0,0,.43-.35,2.54,2.54,0,0,1,.36-.37l.08-.22c.14-.16.37-.4.7-.71a1.58,1.58,0,0,0,.14-.29l.15-.14h.35a.9.9,0,0,1,.06.43l-.27.22a7.34,7.34,0,0,0-.45.82l-.28.1,0,.29-.22.06a.82.82,0,0,0-.21.3c-.11.08-.29.2-.52.34a3.54,3.54,0,0,0-.55.28l-.33.06-.22,0a1.14,1.14,0,0,0-.25,0l-.35-.2-.2-.23-.06-.41a6.45,6.45,0,0,0-.81.62h-.35l-.35.14a1.7,1.7,0,0,0-1.16-.22l0-.14-.43-.21v-.29l-.22-.28v-.08a13.45,13.45,0,0,1,.16-1.51l-.06-.19.15-.16v-.14l.16-.07.06-.27.29-.22a4.94,4.94,0,0,1,.45-.82l.59-.43.14-.25h.35l.22-.14a6.67,6.67,0,0,1,1.14-.14l0,.24.23,0V85h.08l.06.14h.07v.08a.8.8,0,0,1-.51.08l-.56,0a3.55,3.55,0,0,1-.74.8v.22l-.07.19-.22.08.06.07v.06a1.9,1.9,0,0,1-.06.22h-.08a1.93,1.93,0,0,1-.07.37l-.14.06.08.33-.06.29-.16.19a2.35,2.35,0,0,0-.16.87l.12.39.08.08.22.06.13-.06.28,0,.17-.1a1,1,0,0,0,.51-.24c.3-.23.46-.34.48-.35a3,3,0,0,0,.33-1l.14-.21a6.56,6.56,0,0,1,.14-.88l.23-.25-.08-.21a1.47,1.47,0,0,1,.22-.86v-.14h.08a1.24,1.24,0,0,0,.14-.64,1.3,1.3,0,0,0,.25-.53l.27-.24.08-.41.22-.3a3.39,3.39,0,0,1,0-.45,1.82,1.82,0,0,1,.12-.56,4,4,0,0,0,.43-.73,5.86,5.86,0,0,1,.4-.72,4.87,4.87,0,0,0,.58-.48l.29-.06.25-.25.26,0,.21-.17a1.68,1.68,0,0,0,.49-.06,2.57,2.57,0,0,1,.46-.08,3.11,3.11,0,0,1,1.28.24c.41,0,.73-.1.93-.14l.22.21Zm2,6a2,2,0,0,1-.1-.35,1.28,1.28,0,0,0-.1-.34l-.15-.17L121,85l-.09-.14-.2-.07-.19-.22a1.84,1.84,0,0,1-.44-.11,1.53,1.53,0,0,0-.42-.1,1.94,1.94,0,0,1-.34.09l-.23-.09-.27.07h-.3A3.24,3.24,0,0,0,117,85.51l-.14.51-.15.06v.64a.8.8,0,0,1-.27.43l-.08.29-.13.14,0,.06-.07.07c-.06.38-.11.62-.14.74a5.78,5.78,0,0,1,.1.57,3.14,3.14,0,0,0,.93,1.13l.35.08.06.06.44.08a3.52,3.52,0,0,1,.91-.14,2.71,2.71,0,0,0,.91-.21,4.69,4.69,0,0,0,1-1.21l-.08-.22-.4.12a1.25,1.25,0,0,1-.35.41l-.14,0a3.11,3.11,0,0,0-.47.27,1.91,1.91,0,0,1-.51.24l-.59-.06h-.12a1.47,1.47,0,0,1-.32-.1l-.3-.61c0-.06,0-.14,0-.25s0-.2,0-.26.06-.19.17-.5a3.5,3.5,0,0,1,.19-.52l.24-.12a6.62,6.62,0,0,0,1.1.26,4.53,4.53,0,0,0,1,.12l.14.08.43.06.14,0,.15,0a1.82,1.82,0,0,0,.49-.7l0-.29.08-.24-.08-.19,0-.22Zm-1.12.23-.08-.08c0-.24,0-.41,0-.53a3.06,3.06,0,0,0-.74-.73,2.62,2.62,0,0,0-1,.24l-.1.16-.18.12-.08.18-.05.06v.15l-.12.1a1.51,1.51,0,0,0-.1.4H118l0,.18.06.23a5.88,5.88,0,0,0,2.17.38.56.56,0,0,1,.21-.37Zm23.67-9.51c-.14.21-.28.45-.43.72a4.44,4.44,0,0,1-1.42.49l-.27.22.06.13h-.06v.22a7.93,7.93,0,0,1-.87,1.15v.29l-.72.35-.14.16-.08.43h.08l.08.41a8.06,8.06,0,0,1-.29.87l-.22.13-.35.95.21.13h.85l.84-.27.11-.3-.12-.3-.14-.06-.06-.3.85-.22.36.14.37.37v.44a2.08,2.08,0,0,1-.08.27l-.49.08-.16.14-.14.3a15.13,15.13,0,0,0-3.12.79l-.15.36a2.71,2.71,0,0,0,.21.5l-.21.27-.06,1.13a.68.68,0,0,0-.3.59A3.05,3.05,0,0,0,137.9,89v.26l.08.08-.08.14.08.07.06.5a6.74,6.74,0,0,0,1-.54,3.48,3.48,0,0,1,1-.46s.29-.23.84-.65V88.3l.16-.16.13-.44.27-.35.3.08.28-.22.41.43a1.22,1.22,0,0,1-.19.65h-.59l-.34.35-.14.06-.14.37-.86.57a12.92,12.92,0,0,1-1.57,1v.08a2.28,2.28,0,0,0-1.07.28l-.72-.24-.42-.33-.07-.71a4.57,4.57,0,0,1-.69-.41V89l-.15-.29a2.46,2.46,0,0,1,1-1.92l.07-.14a1,1,0,0,1,.36-.85l-.14-.36.14-.64.51-.43V84l-.22-.15c-.36-.05-.73-.11-1.09-.18a4.15,4.15,0,0,1-1.07-.31h-.21A8.86,8.86,0,0,0,134,84.5c-.44.7-.68,1.08-.74,1.16s-.24.31-.43.57a10.53,10.53,0,0,0-1.05,1v.13l-.21.14-.14.29-.38.3h-.14a3.07,3.07,0,0,1-1.07,1,3.06,3.06,0,0,0-.56.27,1.87,1.87,0,0,0-.71.29l-.21.28-.51.29-.7-.14a2.39,2.39,0,0,0-.73-.43l-.06-.08-.72-.27v-.37l-.14-.14a2.51,2.51,0,0,1,0-.39,5.33,5.33,0,0,1,.68-2.09l.28-.16.29-.35V85.5l.5-.41h.07l.36-.38.21,0,.08-.16c.24-.11.6-.3,1.07-.57l.27.08a2.79,2.79,0,0,1,.55,1.6c0,.11,0,.26,0,.47l-.16.22-.06.56-.15.21-.41.07-.22-.22-.15-.56-.35-.14a2.73,2.73,0,0,0,0-.56,3.13,3.13,0,0,0-.1-.65l-.29.08-.65.49-.13.21v.3l-.31.13v.36a1.73,1.73,0,0,0-.43.53c-.12.19-.23.39-.35.59l-.06.44.27.78.43.38.8.21c.18-.12.47-.29.86-.51v-.08a8,8,0,0,0,1.91-1.44,6.84,6.84,0,0,1,.51-.48c.12-.06.3-.15.54-.29a13.44,13.44,0,0,0,1.24-1.21l.14-.35.29-.21.36-.78.34-.21a3.85,3.85,0,0,1,.43-.66l-.07-.13h-.7a1.76,1.76,0,0,1-.75.32,2.53,2.53,0,0,0-.79.26l0,.36.14.05h.65l.13.22-.08.13a10,10,0,0,0-1.14.16l-.27-.08a.84.84,0,0,0-.38-.29v-.2l.15-.16-.07-.22.13-.35v-.22a1.61,1.61,0,0,1,.66-.06l.21-.15h.29l.78-.35.53,0,.53,0,.25,0,.25,0,.35-.57.36-.22.57-.92a2.94,2.94,0,0,0,.91-.61l.88-.77a5.69,5.69,0,0,1,1.35-.7h.14l.65-.43h.35l.72-.35h.27l.08-.22.35-.08.14-.13-.84.13a2,2,0,0,0-.82-.06h-.68l-.5.19h-.29a7,7,0,0,1-1.5-.24,6.45,6.45,0,0,0-1.5-.25h-1l-.07.14a2.37,2.37,0,0,0-.69.43,3.35,3.35,0,0,1-.66.43l-.86-.08-.27.15-.08.21h-.08l-.13.36h-.14a3.52,3.52,0,0,0-.76.1c-.41.1-.66.16-.75.17s-.58-.16-1-.27l-.16-.22h-.06a7,7,0,0,1-.11-1,2.2,2.2,0,0,1,.25-.91l.43-.06.06-.22a3.09,3.09,0,0,1,.9-.29,4.88,4.88,0,0,1,1-.14,11.15,11.15,0,0,1,2.36.35l.19.14h.72l.22-.14a1.27,1.27,0,0,1,.42-.56v-.08h.23l.35-.15.14-.21h.29a1.56,1.56,0,0,1,.55-.28,2.63,2.63,0,0,0,.58-.21v-.08a.8.8,0,0,1,.47-.07H138l.22.15.14.35-.08.22-.35.22a4.14,4.14,0,0,0-.55-.16,2.52,2.52,0,0,0-1,.27l-.92.45-.36.35.08.08a2.09,2.09,0,0,0,.44-.08s.32,0,.81.16a13.79,13.79,0,0,0,2.39.34l.24,0,.25,0c-.12,0,.07,0,.59,0a1,1,0,0,0,.32-.06l.3-.1h.63c.15,0,.61-.06,1.4-.17a12.39,12.39,0,0,0,1.4-.26l.21.06Zm-3.55,2.07a2.65,2.65,0,0,0-1.16.49h-.22a3.67,3.67,0,0,0-1.14.73,1.27,1.27,0,0,0-.92.65l-.22,0v.16a1.92,1.92,0,0,0-.76.7,2.73,2.73,0,0,1-.74.79l-.06.22A3,3,0,0,1,137,83l.7.06.35-.51.65-.3.16-.21a.88.88,0,0,1,0-.2,4,4,0,0,1,.23-1.16,9.94,9.94,0,0,1,.93-.93,1.2,1.2,0,0,1,.29-.49,3.68,3.68,0,0,0,.36-.51m-7.15-1.7-.06-.14-.86-.07-.21-.14h-1a3.8,3.8,0,0,0-1.51.29,2,2,0,0,0-.57.56l-.13.08-.08.2.21.36.08.06.06.16.37,0a3.06,3.06,0,0,0,.42,0,3.19,3.19,0,0,1,.42,0l.08-.16a4.26,4.26,0,0,0,1.29-.43l.36-.27a5.23,5.23,0,0,0,1.13-.5m15.35,8v-.22l-.06-.08-.51.08-.36-.08-.21.22a1,1,0,0,0-.22,0l-.19,0A1.11,1.11,0,0,1,147,85a1.13,1.13,0,0,0-.29-.06,4.47,4.47,0,0,0-1.48.22,3.52,3.52,0,0,0-.8.45,2.35,2.35,0,0,0-.66.54l0,.14a1.15,1.15,0,0,0-.37.51l-.16.08-.05.13H143v.14h-.16a4.87,4.87,0,0,1-.21.58,3.15,3.15,0,0,0,0,.76q.1.5.12.63l.29.23.26.07.25.22a1.91,1.91,0,0,0,1.85-.64l.21-.06v-.08l.08-.07-.08-.14.37-.21.06-.08v-.06l.08-.08V88l-.57.09v.06l-.34.15-.22.21v.06l-.16.22-.43.21H144l-.08,0,.08-.51.13-.07a1.92,1.92,0,0,1,.08-.37l.1-.23.25-.2a1.91,1.91,0,0,0,.14-.35l.08-.08.06-.35h.08v-.21a1.43,1.43,0,0,1,.48-.39l.08-.36a1.64,1.64,0,0,1,.86-.47l.35.16a.84.84,0,0,0,.3.36l-.22.35c0,.07,0,.27-.06.58a1.8,1.8,0,0,1-.11.55l0,.18a1.29,1.29,0,0,0-.17.77h-.06l-.08.14,0,.41a4.24,4.24,0,0,0-.43.52l-.06.27a.73.73,0,0,0-.21.36l-.22.07v.08l0,.06s-.09.25-.22.64a2.35,2.35,0,0,1-.33.65,1.36,1.36,0,0,1-.13.45A3.88,3.88,0,0,0,144,93c-.38.75-.6,1.17-.68,1.29l-.28.05v.08l-.21.06a1,1,0,0,1-.64.37v.06a1.43,1.43,0,0,1-.51.28,3.29,3.29,0,0,1-.63-.07l-.43.07a2.14,2.14,0,0,0-1.15-.29l-.22-.13v-.08h-.14a1,1,0,0,0-.14-.62l.14-.21v-.07l.08-.08.71-.14.08.14h.13a4.09,4.09,0,0,1,.35.22l.38-.06,0-.08V93.6l.16-.08v-.14l-.08-.06h-.08v-.08h0V93.1l-.43-.08v.08l-.3-.08h-.49l-.08.08-.43.06-.21.16a1.48,1.48,0,0,1-.22.35v.06l-.27.43v.15l-.08.14v.27l.14.18.27.14.1.19.27.22h.51a.77.77,0,0,1,.21.13,1.47,1.47,0,0,0,.64.08.58.58,0,0,1,.16.14,9.3,9.3,0,0,0,2-.14l.49-.29v-.06h.08l.14-.15a2.87,2.87,0,0,0,.73-.22l.06-.13h.08a1.37,1.37,0,0,0,.29-.35,1.83,1.83,0,0,0,.62-.51h.08v-.06l.1-.2,0-.17.13-.2.06-.29a4.35,4.35,0,0,0,.51-.56,1.14,1.14,0,0,1,.22-.44l.13-.08,0-.12.06-.1-.08-.06v-.19l.26-.2a1.64,1.64,0,0,1,.18-.51,1.4,1.4,0,0,0,.17-.54,3.66,3.66,0,0,0,0-.37l.27-.2a.39.39,0,0,1,0-.33l0-.23h.08l.08-.14h.06c.08-.38.15-.67.21-.86l.18-.2v-.18l.08-.19v-.28a5.39,5.39,0,0,0,.28-.85v-.14h.07l.14-.21.29-.08a1.41,1.41,0,0,1,0-.65Zm7.9-.23-.08.14-.14.08v.08l-.56,0-.08.16v.2l-.06.07v.22h-.07v.08l-.12.13,0,.18-.16.12.06.14a3.91,3.91,0,0,0-.25.7l-.29.35H155v.08a2.08,2.08,0,0,0-.51.44l0,.11,0,.1-.08.65h-.06V89l-.14.21.06.14.21.06a2,2,0,0,1,.79-.48l.12.21-.19.37a2.82,2.82,0,0,0-.72.7,2.39,2.39,0,0,1-.78.14v-.06h-.22a1.73,1.73,0,0,0-.43-.38,1.87,1.87,0,0,0-.06-.62l-.16-.16h-.06a1.67,1.67,0,0,0-.5.57l-.35.07-.14.22-.4.16-.25-.08-.23,0a1.72,1.72,0,0,0-.62-.26l-.27-.21a2.64,2.64,0,0,1-.29-1,1.12,1.12,0,0,1,.08-.39h.06c0-.09.08-.26.14-.5l-.06-.15V87.6a.56.56,0,0,1,.12-.28.83.83,0,0,0,.13-.29,1.69,1.69,0,0,0,.7-1.21,1.59,1.59,0,0,0,.33-.29,3.16,3.16,0,0,0,.5-.2h.08a2.52,2.52,0,0,1,.49-.43l.08-.15.64-.22.56.08.22.14h.27l.3-.28h.27l.37.14.28-.08.16.08.06.14.51-.06.21-.16.14.08.21-.08a.71.71,0,0,1,.14.29m-2.22.29-.43-.15a2.07,2.07,0,0,1-.72.07l-.51.22-.27.27a9.14,9.14,0,0,1-.35,1,5.2,5.2,0,0,1-.38.82l0,.21-.2.18,0,.14,0,.13-.22.31v.25l-.12.12v.2l-.08.13V89l-.19.08v.27l.06.08.3.14a3.11,3.11,0,0,0,.72-.43h.08l.21-.14c.08-.11.2-.25.36-.43v-.06l.14-.08c.14-.26.36-.65.65-1.15v-.08l.21-.21a1.7,1.7,0,0,1,.25-.7,1.21,1.21,0,0,1,.06-.37l.16-.06v-.08l0-.08c0-.09.11-.23.21-.41h.06Z"/><path class="cls-2" d="M164.72,84.94l-.2.11v.14h-.14l-.06.28-.14.08-.07-.08v-.12l-.18,0-.08.08h-.21l-.06.14a1.77,1.77,0,0,0-.52.45,2.42,2.42,0,0,1-.44.43v.21a.79.79,0,0,0-.2.33h-.06l-.08.19-.14.14,0,.21c-.23.21-.39.36-.47.45a1.23,1.23,0,0,0-.27.58l-.22.19c0,.06-.1.3-.27.74h-.06v.14h-.08v.13l-.25.19v.08h-.08l-.14.06-.05.28-.14.14a.79.79,0,0,0-.55-.06l-.06.12,0-.06a1.33,1.33,0,0,1-.69-.9l0-.27-.15-.1a4.1,4.1,0,0,1-.14-.49,8.08,8.08,0,0,1-.17-1.81l-.13-.44h-.08v-.11a1.68,1.68,0,0,0-.28-.55l-.39.21h-.49l-.3-.07-.36-.09-.07-.2.13-.22,1-.2a6,6,0,0,1,.58-.32l.08-.14v-.21l-.06-.12v-.21l.22-.16h.13l.09-.08.39-.11a1.5,1.5,0,0,1,.62.19,1,1,0,0,0,.19.39,1.51,1.51,0,0,1-.09.5l.14.29-.1.35c.22,1,.33,1.45.33,1.51a4.46,4.46,0,0,1-.16.73,3.69,3.69,0,0,0,.34.42l.06.13h.08v.2l.12.08h.07l.14-.14V88.5l.14-.2v-.13l.05-.08V88l.3-.43.21-.11v-.08h.08a1.43,1.43,0,0,0,.43-.5l.08-.06.13-.29.19-.11v-.08h.07a.91.91,0,0,1,.21-.55l.29-.11a1.5,1.5,0,0,0,.25-.55l.27-.08.08-.11h.06a4.82,4.82,0,0,1,.27-.5l.41-.06.47.06v.08l.2.27ZM169.53,86a2.13,2.13,0,0,1-.09-.35,3.14,3.14,0,0,0-.1-.34l-.16-.17-.27-.12-.1-.14-.2-.08-.19-.21a1.79,1.79,0,0,1-.43-.11,2.45,2.45,0,0,0-.43-.11,1.28,1.28,0,0,1-.33.1l-.24-.1-.27.08h-.29a3.26,3.26,0,0,0-1.52,1.08l-.14.51-.15.06v.64a.8.8,0,0,1-.27.43l-.08.29-.13.14,0,.06-.08.07c-.06.38-.11.62-.14.74a3.82,3.82,0,0,1,.1.57,3.24,3.24,0,0,0,.94,1.13l.35.08.05.06.44.08a3.52,3.52,0,0,1,.91-.14,2.44,2.44,0,0,0,.91-.21,4.52,4.52,0,0,0,1-1.21l-.07-.22-.4.12a1.29,1.29,0,0,1-.36.41l-.13,0a3.59,3.59,0,0,0-.48.27,1.91,1.91,0,0,1-.51.24l-.59-.06H166a1.34,1.34,0,0,1-.33-.1l-.29-.61c0-.06,0-.14,0-.25s0-.2,0-.26a4.51,4.51,0,0,1,.16-.5c.11-.32.17-.49.19-.52l.25-.12a5.52,5.52,0,0,0,1.1.26,4.51,4.51,0,0,0,1,.12l.14.08.43.06.15,0,.14,0a1.72,1.72,0,0,0,.49-.7l0-.29.08-.24-.08-.19,0-.22Zm-1.12.23-.08.49a.56.56,0,0,0-.21.37,6,6,0,0,1-2.16-.38l-.06-.23,0-.18H166a1.51,1.51,0,0,1,.1-.4l.12-.1v-.15l.06-.06.08-.18.17-.12.1-.16a2.67,2.67,0,0,1,1-.24,2.78,2.78,0,0,1,.73.73,3.72,3.72,0,0,1,0,.53Z"/><path class="cls-3" d="M193.56,61.1c6.34-1.73,14-1.31,19.34,2.45a10.63,10.63,0,0,1,4.22,7,2.72,2.72,0,0,1-.88,2.88c-1,.68-1.87.47-2-.63a1.15,1.15,0,0,0-2.27.13c0,3.08,3.59,4.35,6.14,2.39,3.32-2.51,1.47-7.09-.87-9.56a21,21,0,0,0-12-6.45A29.88,29.88,0,0,0,190.09,61a34.77,34.77,0,0,0-9.51,5.26,48.59,48.59,0,0,1,13-5.16m16-2.3h0v-.1c6.09-1.86,12.77,3.25,16.38,7.08,2,2.1,3.93,4.73,6.48,6.31,1.05.65,3.71,1.74,4.55.2A2.45,2.45,0,0,0,235,68.85v-.3a3.42,3.42,0,0,1,3.55,4.6c-1.13,3.71-6.7,2.8-9.37,1.28-3.54-2-6.14-5.6-8.7-8.51-3-3.44-5.67-6.67-10.95-7.12m23.81,15.41a18.78,18.78,0,0,1-6.49-4.16c-1.88-1.79-3.37-3.86-5.31-5.6l-.12.1c3,3.65,6.12,9.41,11.9,9.75Zm-44.92-8.54h0l-.09-.12A16.86,16.86,0,0,1,198,62c2.6-.12,8.3.16,9.1,3a.88.88,0,0,1-.85,1.1c-1.35.22-2.68-.61-3.94-1a23.33,23.33,0,0,0-4.5-.82,22.53,22.53,0,0,0-9.38,1.3"/><path class="cls-3" d="M53.77,60.8C48.12,59.25,41.31,59.62,36.55,63a9.43,9.43,0,0,0-3.76,6.25,2.42,2.42,0,0,0,.78,2.56c.85.6,1.67.42,1.81-.56a1,1,0,0,1,2,.11c0,2.75-3.2,3.88-5.46,2.14-3-2.25-1.32-6.32.77-8.52a18.7,18.7,0,0,1,10.67-5.74,26.54,26.54,0,0,1,13.48,1.49,30.49,30.49,0,0,1,8.47,4.68A42.93,42.93,0,0,0,53.77,60.8m-14.22-2h0v-.09C34.13,57,28.19,61.55,25,65c-1.75,1.87-3.49,4.22-5.77,5.62-.94.58-3.31,1.55-4,.18a2.18,2.18,0,0,1,1.73-3.06l0-.27a3,3,0,0,0-3.16,4.09c1,3.31,6,2.5,8.35,1.15,3.15-1.8,5.47-5,7.75-7.58,2.71-3.07,5.05-6,9.75-6.34M18.35,72.47a16.88,16.88,0,0,0,5.78-3.71c1.67-1.59,3-3.44,4.72-5l.11.08c-2.69,3.26-5.45,8.38-10.59,8.69Zm40-7.61h0l.08-.11a15.07,15.07,0,0,0-8.61-3.14c-2.31-.11-7.39.13-8.09,2.7-.14.5.18.9.75,1,1.2.2,2.38-.55,3.51-.85a20.55,20.55,0,0,1,4-.73,20.14,20.14,0,0,1,8.35,1.15"/><path class="cls-3" d="M200.58,15.17c6.34,1.74,14,1.32,19.34-2.44a10.65,10.65,0,0,0,4.22-7,2.72,2.72,0,0,0-.87-2.87c-1-.68-1.88-.48-2,.63A1.16,1.16,0,0,1,219,3.33c0-3.09,3.59-4.35,6.14-2.4,3.32,2.52,1.47,7.09-.86,9.57a21,21,0,0,1-12,6.45,29.78,29.78,0,0,1-15.14-1.68A34.49,34.49,0,0,1,187.6,10a48.54,48.54,0,0,0,13,5.15m16,2.3h0v.11c6.1,1.86,12.77-3.25,16.38-7.09,2-2.1,3.93-4.73,6.48-6.3,1-.65,3.71-1.75,4.55-.21s-.27,3.07-1.94,3.45v.29a3.42,3.42,0,0,0,3.56-4.59c-1.14-3.71-6.71-2.81-9.38-1.29-3.54,2-6.14,5.61-8.7,8.51-3,3.45-5.67,6.68-10.95,7.12m23.81-15.4a18.78,18.78,0,0,0-6.49,4.16c-1.88,1.79-3.37,3.86-5.31,5.6l-.12-.1c3-3.66,6.12-9.41,11.9-9.75Zm-44.92,8.54h0l-.09.12A16.85,16.85,0,0,0,205,14.26c2.6.12,8.3-.15,9.1-3a.89.89,0,0,0-.85-1.11c-1.35-.21-2.68.62-3.94,1a22.61,22.61,0,0,1-4.5.83,22.69,22.69,0,0,1-9.38-1.3"/><path class="cls-3" d="M40.23,15.48C34.58,17,27.77,16.65,23,13.3a9.49,9.49,0,0,1-3.76-6.25A2.44,2.44,0,0,1,20,4.48c.85-.6,1.67-.42,1.81.57a1,1,0,0,0,2-.12c0-2.75-3.2-3.87-5.47-2.13-3,2.24-1.31,6.32.77,8.52a18.7,18.7,0,0,0,10.67,5.74,26.54,26.54,0,0,0,13.48-1.49,30.75,30.75,0,0,0,8.47-4.68,43.09,43.09,0,0,1-11.55,4.59M26,17.53h0v.09c-5.44,1.66-11.38-2.89-14.59-6.31C9.67,9.44,7.93,7.1,5.65,5.7c-.93-.58-3.3-1.55-4-.18A2.18,2.18,0,0,0,3.34,8.58l0,.27A3,3,0,0,1,.16,4.76c1-3.31,6-2.5,8.34-1.15,3.16,1.8,5.47,5,7.75,7.58C19,14.26,21.3,17.13,26,17.53M4.8,3.81a16.67,16.67,0,0,1,5.78,3.7c1.68,1.6,3,3.44,4.73,5l.11-.09C12.72,9.16,10,4,4.82,3.73Zm40,7.61h0l.09.1a15,15,0,0,1-8.61,3.15c-2.32.1-7.39-.13-8.1-2.71-.13-.5.19-.89.75-1,1.21-.19,2.39.55,3.51.86a20.83,20.83,0,0,0,4,.73,20.14,20.14,0,0,0,8.35-1.15"/><path class="cls-3" d="M194.82,86.56c-1.39,0-4.86,0-9.36-.27a46.74,46.74,0,0,1-4.68-.43,1.41,1.41,0,0,0-.79,0c-1.1.26-2,.46-2.83.62-.45.08-.49.09-.49.14s0,.06.49.15c.85.16,1.73.35,2.83.61a1.51,1.51,0,0,0,.79,0c.93-.15,2.14-.28,4.68-.44,4.5-.27,8-.26,9.36-.26.53,0,.53-.12,0-.12"/><path class="cls-3" d="M50.85,86.56c1.39,0,4.86,0,9.36-.27a46.74,46.74,0,0,0,4.68-.43,1.41,1.41,0,0,1,.79,0c1.1.26,2,.46,2.83.62.45.08.49.09.49.14s0,.06-.49.15c-.85.16-1.73.35-2.83.61a1.51,1.51,0,0,1-.79,0c-.93-.15-2.14-.28-4.68-.44-4.5-.27-8-.26-9.36-.26-.53,0-.53-.12,0-.12"/><path class="cls-4" d="M42.67,52.21V50.1H46.1V27.91H42.67V25.8h4.94c.53,0,1,0,1.51,0l1.51-.08,1.72-.07c.61,0,1.3,0,2.06,0a24.8,24.8,0,0,1,3.39.24,10.69,10.69,0,0,1,3.13.93,6.11,6.11,0,0,1,2.29,1.92,5.34,5.34,0,0,1,.88,3.2,6,6,0,0,1-.35,2,6.19,6.19,0,0,1-1.06,1.82,7,7,0,0,1-1.76,1.48,7.78,7.78,0,0,1-2.45.95v.15a13.41,13.41,0,0,1,2.49.64,8.42,8.42,0,0,1,2.25,1.22A6.07,6.07,0,0,1,64.82,42a5.74,5.74,0,0,1,.61,2.71,6,6,0,0,1-1,3.5,7.76,7.76,0,0,1-2.62,2.4A12.32,12.32,0,0,1,58.12,52a20.08,20.08,0,0,1-4.17.43q-1.47,0-3.3-.12c-1.22-.07-2.4-.11-3.53-.11Zm9.7-14.34q.75,0,1.68-.06c.61,0,1.13-.08,1.56-.13a6.62,6.62,0,0,0,3.1-2,4.69,4.69,0,0,0,1.17-3.17,4.29,4.29,0,0,0-1.59-3.69A7,7,0,0,0,54,27.68c-.86,0-1.58,0-2.17.06s-1.09.08-1.49.13v10Zm1.88,12.45A9.26,9.26,0,0,0,57,49.93a6.75,6.75,0,0,0,2.17-1.12,5.18,5.18,0,0,0,1.42-1.71,5,5,0,0,0,.5-2.21,4.63,4.63,0,0,0-.62-2.51A4.5,4.5,0,0,0,58.8,40.8,7.48,7.48,0,0,0,56.37,40a18.6,18.6,0,0,0-2.95-.22H50.33V50a8.26,8.26,0,0,0,1.37.25c.55.06,1.39.09,2.55.09"/><polygon class="cls-4" points="68.71 27.91 68.71 25.79 80.44 25.79 80.44 27.91 76.37 27.91 76.37 50.1 86.41 50.1 87.16 49.27 87.16 44.06 89.88 44.06 89.88 52.21 68.71 52.21 68.71 50.1 72.14 50.1 72.14 27.91 68.71 27.91"/><path class="cls-4" d="M99.73,52.21H90.48V50.1h3l9.77-24.3h4l9,24.3H119v2.11h-10.8V50.1h3.36l-2.45-6.64h-10L96.48,50.1h3.25Zm.19-10.87h8.53l-3.1-8.72-.94-4h-.15l-1.1,4.08Z"/><polygon class="cls-4" points="139.43 25.79 148.71 25.79 148.71 27.91 145.28 27.91 145.28 52.66 142.83 52.66 127.47 31.95 125.81 29.04 125.66 29.04 126.03 31.98 126.03 50.1 129.47 50.1 129.47 52.21 120.19 52.21 120.19 50.1 123.62 50.1 123.62 27.91 120.19 27.91 120.19 25.79 127.73 25.79 140.94 43.57 142.9 46.81 143.09 46.81 142.87 43.57 142.87 27.91 139.43 27.91 139.43 25.79"/><path class="cls-4" d="M171.39,45.27h2.42v5.92a11.64,11.64,0,0,1-3.09,1.06,17.93,17.93,0,0,1-3.82.41,22.41,22.41,0,0,1-6.22-.79A11.88,11.88,0,0,1,156,49.4a11,11,0,0,1-2.92-4.25,16.64,16.64,0,0,1-1-6.15,15.67,15.67,0,0,1,1.13-6.28,11.55,11.55,0,0,1,3.06-4.23,12.38,12.38,0,0,1,4.45-2.4,19,19,0,0,1,5.32-.75c.91,0,1.73,0,2.46.1a16.84,16.84,0,0,1,2,.28,15.45,15.45,0,0,1,1.64.45q.76.27,1.47.57v6.45h-2.41v-4l-.53-.76a13.71,13.71,0,0,0-1.3-.45,10.83,10.83,0,0,0-2.85-.26,11,11,0,0,0-3.81.64,7.9,7.9,0,0,0-3.08,2,9.55,9.55,0,0,0-2,3.49,15.2,15.2,0,0,0-.76,5.11q0,5.4,2.74,8.32a10,10,0,0,0,7.67,2.93,10.57,10.57,0,0,0,2.29-.21,3.46,3.46,0,0,0,1.38-.55l.52-.71Z"/><path class="cls-4" d="M178.41,39a16.06,16.06,0,0,1,.91-5.45,12.61,12.61,0,0,1,2.62-4.34,11.88,11.88,0,0,1,4.23-2.85,15.08,15.08,0,0,1,5.72-1,15.26,15.26,0,0,1,5.74,1,12,12,0,0,1,4.26,2.85,12.21,12.21,0,0,1,2.64,4.34,16.81,16.81,0,0,1,0,10.91,12.21,12.21,0,0,1-2.64,4.34,12,12,0,0,1-4.26,2.84,15.06,15.06,0,0,1-5.74,1,14.89,14.89,0,0,1-5.72-1,11.86,11.86,0,0,1-4.23-2.84,12.61,12.61,0,0,1-2.62-4.34,16.08,16.08,0,0,1-.91-5.46m4.72,0a17.8,17.8,0,0,0,.55,4.53,10.62,10.62,0,0,0,1.68,3.66,8.26,8.26,0,0,0,2.85,2.46,8.62,8.62,0,0,0,4.06.9,7.41,7.41,0,0,0,3.73-.9,7.8,7.8,0,0,0,2.62-2.46,11.28,11.28,0,0,0,1.57-3.66,18.75,18.75,0,0,0,.53-4.53,17.66,17.66,0,0,0-.55-4.52,10.58,10.58,0,0,0-1.68-3.67,8.13,8.13,0,0,0-2.85-2.45,8.58,8.58,0,0,0-4.09-.91,7.69,7.69,0,0,0-3.87.91,7.5,7.5,0,0,0-2.62,2.45,10.7,10.7,0,0,0-1.47,3.67,20.92,20.92,0,0,0-.46,4.52"/><path class="cls-5" d="M41.87,51.73V49.62h3.44V27.43H41.87V25.32h5c.53,0,1,0,1.51,0l1.51-.08,1.71-.07c.62,0,1.31,0,2.06,0a23.38,23.38,0,0,1,3.4.25,10.12,10.12,0,0,1,3.13.93,6,6,0,0,1,2.28,1.91,5.36,5.36,0,0,1,.89,3.2,5.76,5.76,0,0,1-.36,2,6,6,0,0,1-1.05,1.82,7.16,7.16,0,0,1-1.76,1.48,7.78,7.78,0,0,1-2.45,1v.15a13.41,13.41,0,0,1,2.49.64,8.21,8.21,0,0,1,2.24,1.22A5.9,5.9,0,0,1,64,41.55a5.67,5.67,0,0,1,.6,2.7,6,6,0,0,1-1,3.5A8,8,0,0,1,61,50.16a12.31,12.31,0,0,1-3.68,1.37,20.08,20.08,0,0,1-4.17.43c-1,0-2.08,0-3.31-.11s-2.39-.12-3.52-.12Zm9.7-14.34c.5,0,1.07,0,1.68,0s1.14-.09,1.57-.14a6.59,6.59,0,0,0,3.09-2,4.69,4.69,0,0,0,1.17-3.17,4.31,4.31,0,0,0-1.58-3.69,7.1,7.1,0,0,0-4.3-1.17c-.86,0-1.58,0-2.17.05s-1.09.08-1.49.13v10Zm1.89,12.45a9.31,9.31,0,0,0,2.74-.39,6.84,6.84,0,0,0,2.17-1.11,5.29,5.29,0,0,0,1.41-1.72,4.79,4.79,0,0,0,.51-2.21,4.74,4.74,0,0,0-.62-2.51A4.58,4.58,0,0,0,58,40.32a7.62,7.62,0,0,0-2.44-.82,18.47,18.47,0,0,0-2.94-.22H49.54V49.51a9.32,9.32,0,0,0,1.37.24,23,23,0,0,0,2.55.09"/><polygon class="cls-5" points="67.91 27.43 67.91 25.32 79.65 25.32 79.65 27.43 75.58 27.43 75.58 49.62 85.61 49.62 86.37 48.79 86.37 43.58 89.08 43.58 89.08 51.73 67.91 51.73 67.91 49.62 71.35 49.62 71.35 27.43 67.91 27.43"/><path class="cls-5" d="M98.93,51.73H89.69V49.62h2.94l9.78-24.3h4l8.94,24.3h2.83v2.11H107.39V49.62h3.36L108.3,43h-10l-2.56,6.64h3.24Zm.19-10.87h8.53l-3.09-8.71-.94-4h-.15l-1.1,4.07Z"/><polygon class="cls-5" points="138.64 25.32 147.92 25.32 147.92 27.43 144.48 27.43 144.48 52.19 142.03 52.19 126.67 31.47 125.01 28.56 124.86 28.56 125.24 31.5 125.24 49.62 128.68 49.62 128.68 51.73 119.39 51.73 119.39 49.62 122.82 49.62 122.82 27.43 119.39 27.43 119.39 25.32 126.94 25.32 140.15 43.09 142.11 46.34 142.3 46.34 142.07 43.09 142.07 27.43 138.64 27.43 138.64 25.32"/><path class="cls-5" d="M170.6,44.79H173v5.93a12,12,0,0,1-3.1,1.05,17.79,17.79,0,0,1-3.81.42,22.47,22.47,0,0,1-6.23-.8,11.84,11.84,0,0,1-4.66-2.47,10.92,10.92,0,0,1-2.92-4.24,16.69,16.69,0,0,1-1-6.16,15.7,15.7,0,0,1,1.13-6.28A11.72,11.72,0,0,1,155.47,28a12.13,12.13,0,0,1,4.45-2.39,18.64,18.64,0,0,1,5.32-.76c.91,0,1.73,0,2.45.1a17,17,0,0,1,2,.28,15.45,15.45,0,0,1,1.64.45q.75.27,1.47.57v6.45h-2.41v-4l-.53-.75a10.61,10.61,0,0,0-1.31-.46,11.29,11.29,0,0,0-2.85-.26,11,11,0,0,0-3.8.64,7.9,7.9,0,0,0-3.08,2,9.7,9.7,0,0,0-2.06,3.49,15.47,15.47,0,0,0-.75,5.11c0,3.6.91,6.38,2.74,8.32s4.38,2.93,7.67,2.93a11.32,11.32,0,0,0,2.29-.2,3.62,3.62,0,0,0,1.37-.56l.53-.71Z"/><path class="cls-5" d="M177.62,38.52a15.82,15.82,0,0,1,.91-5.45,12.46,12.46,0,0,1,2.62-4.34,11.84,11.84,0,0,1,4.22-2.85,16.76,16.76,0,0,1,11.46,0,12,12,0,0,1,4.27,2.85,12.5,12.5,0,0,1,2.64,4.34,17,17,0,0,1,0,10.91,12.5,12.5,0,0,1-2.64,4.34,12,12,0,0,1-4.27,2.85,16.76,16.76,0,0,1-11.46,0,11.84,11.84,0,0,1-4.22-2.85A12.46,12.46,0,0,1,178.53,44a15.84,15.84,0,0,1-.91-5.46m4.72,0a17.68,17.68,0,0,0,.55,4.53,10.44,10.44,0,0,0,1.68,3.66,8.26,8.26,0,0,0,2.85,2.46,8.58,8.58,0,0,0,4.05.9,7.48,7.48,0,0,0,3.74-.9,7.89,7.89,0,0,0,2.62-2.46,11.5,11.5,0,0,0,1.57-3.66,18.63,18.63,0,0,0,.53-4.53,18.12,18.12,0,0,0-.55-4.52,10.76,10.76,0,0,0-1.68-3.67,8.44,8.44,0,0,0-2.85-2.45,8.72,8.72,0,0,0-4.09-.9,7.8,7.8,0,0,0-3.87.9,7.72,7.72,0,0,0-2.63,2.45A10.9,10.9,0,0,0,182.79,34a21.58,21.58,0,0,0-.45,4.52"/><path class="cls-6" d="M41.34,51.29V49.18h3.43V27H41.34V24.88h4.94c.53,0,1,0,1.51,0l1.51-.08L51,24.68c.62,0,1.3,0,2.06,0a24.69,24.69,0,0,1,3.39.24,10.69,10.69,0,0,1,3.13.93,6.11,6.11,0,0,1,2.29,1.92,5.34,5.34,0,0,1,.89,3.2,5.84,5.84,0,0,1-.36,2,6,6,0,0,1-1.06,1.82,6.81,6.81,0,0,1-1.76,1.48,7.78,7.78,0,0,1-2.45,1v.15a13.41,13.41,0,0,1,2.49.64,8.42,8.42,0,0,1,2.25,1.22,5.83,5.83,0,0,1,1.6,1.89,5.74,5.74,0,0,1,.61,2.71,6,6,0,0,1-1,3.5,7.67,7.67,0,0,1-2.62,2.4,12,12,0,0,1-3.68,1.37,20.06,20.06,0,0,1-4.16.44c-1,0-2.09,0-3.31-.12s-2.39-.11-3.53-.11ZM51,37q.75,0,1.68-.06c.61,0,1.14-.08,1.56-.13a6.57,6.57,0,0,0,3.1-2,4.69,4.69,0,0,0,1.17-3.17A4.29,4.29,0,0,0,57,27.94a7,7,0,0,0-4.3-1.18c-.85,0-1.58,0-2.17.06S49.4,26.9,49,27V37ZM52.93,49.4A9.19,9.19,0,0,0,55.66,49a6.75,6.75,0,0,0,2.17-1.12,5.29,5.29,0,0,0,1.42-1.71A4.82,4.82,0,0,0,59.76,44a4.63,4.63,0,0,0-.63-2.51,4.42,4.42,0,0,0-1.66-1.58A7.25,7.25,0,0,0,55,39.06a18.47,18.47,0,0,0-2.94-.22H49V49.06a8.4,8.4,0,0,0,1.38.25q.81.09,2.55.09"/><polygon class="cls-6" points="67.38 26.99 67.38 24.87 79.12 24.87 79.12 26.99 75.04 26.99 75.04 49.18 85.08 49.18 85.83 48.35 85.83 43.14 88.55 43.14 88.55 51.29 67.38 51.29 67.38 49.18 70.81 49.18 70.81 26.99 67.38 26.99"/><path class="cls-6" d="M98.4,51.29H89.16V49.18H92.1l9.77-24.3h4l8.95,24.3h2.83v2.11h-10.8V49.18h3.37l-2.46-6.64h-10l-2.56,6.64H98.4Zm.19-10.87h8.53L104,31.7l-.94-4h-.15l-1.09,4.08Z"/><polygon class="cls-6" points="138.1 24.87 147.39 24.87 147.39 26.99 143.95 26.99 143.95 51.74 141.5 51.74 126.14 31.03 124.48 28.12 124.33 28.12 124.7 31.06 124.7 49.18 128.14 49.18 128.14 51.29 118.86 51.29 118.86 49.18 122.29 49.18 122.29 26.99 118.86 26.99 118.86 24.87 126.4 24.87 139.62 42.65 141.57 45.89 141.76 45.89 141.54 42.65 141.54 26.99 138.1 26.99 138.1 24.87"/><path class="cls-6" d="M170.07,44.35h2.42v5.92a11.86,11.86,0,0,1-3.1,1.06,17.86,17.86,0,0,1-3.82.41,22.46,22.46,0,0,1-6.22-.79,11.9,11.9,0,0,1-4.66-2.47,11,11,0,0,1-2.93-4.25,16.64,16.64,0,0,1-1-6.15,15.49,15.49,0,0,1,1.14-6.28,11.41,11.41,0,0,1,3.05-4.23,12.19,12.19,0,0,1,4.46-2.4,19,19,0,0,1,5.32-.75c.91,0,1.72,0,2.45.1a16.84,16.84,0,0,1,2,.28,13.38,13.38,0,0,1,1.64.45c.51.17,1,.37,1.48.57v6.45h-2.42v-4l-.53-.76a13.71,13.71,0,0,0-1.3-.45,10.83,10.83,0,0,0-2.85-.26,11.08,11.08,0,0,0-3.81.64,7.87,7.87,0,0,0-3.07,2A9.56,9.56,0,0,0,156.22,33a15.2,15.2,0,0,0-.76,5.11q0,5.4,2.74,8.32t7.68,2.93a10.47,10.47,0,0,0,2.28-.21,3.46,3.46,0,0,0,1.38-.55l.53-.71Z"/><path class="cls-6" d="M177.09,38.08a16,16,0,0,1,.9-5.45,12.61,12.61,0,0,1,2.62-4.34,11.88,11.88,0,0,1,4.23-2.85,16.6,16.6,0,0,1,11.46,0,12,12,0,0,1,4.26,2.85,12.21,12.21,0,0,1,2.64,4.34,16.81,16.81,0,0,1,0,10.91,12.3,12.3,0,0,1-2.64,4.34,12,12,0,0,1-4.26,2.84,16.6,16.6,0,0,1-11.46,0,11.86,11.86,0,0,1-4.23-2.84A12.7,12.7,0,0,1,178,43.54a16.08,16.08,0,0,1-.9-5.46m4.72,0a18.26,18.26,0,0,0,.54,4.53A10.62,10.62,0,0,0,184,46.27a8.36,8.36,0,0,0,2.85,2.46,8.65,8.65,0,0,0,4.06.9,7.48,7.48,0,0,0,3.74-.9,7.89,7.89,0,0,0,2.62-2.46,11.49,11.49,0,0,0,1.56-3.66,18.27,18.27,0,0,0,.53-4.53,17.66,17.66,0,0,0-.55-4.52,10.41,10.41,0,0,0-1.68-3.67,8.19,8.19,0,0,0-2.84-2.45,8.64,8.64,0,0,0-4.1-.91,7.69,7.69,0,0,0-3.87.91,7.5,7.5,0,0,0-2.62,2.45,10.54,10.54,0,0,0-1.47,3.67,20.93,20.93,0,0,0-.45,4.52"/></g></g></svg>