<svg xmlns="http://www.w3.org/2000/svg" viewBox="0 0 164.1 28.24"><defs><style>.cls-1{fill:#beb8a6;}.cls-2{fill:#fdfefe;}.cls-3{fill:#194792;}</style></defs><g id="Layer_2" data-name="Layer 2"><g id="Ñëîé_1" data-name="Ñëîé 1"><path class="cls-1" d="M1.33,27.79V25.68H4.76V3.49H1.33V1.38H6.27c.53,0,1,0,1.51,0l1.51-.08L11,1.18c.61,0,1.3,0,2.06,0a24.8,24.8,0,0,1,3.39.24,10.69,10.69,0,0,1,3.13.93,6.11,6.11,0,0,1,2.29,1.92,5.34,5.34,0,0,1,.88,3.2,6,6,0,0,1-.35,2,6.19,6.19,0,0,1-1.06,1.82,7,7,0,0,1-1.76,1.48,7.78,7.78,0,0,1-2.45.95v.15a13.41,13.41,0,0,1,2.49.64,8.42,8.42,0,0,1,2.25,1.22,5.83,5.83,0,0,1,1.6,1.89,5.74,5.74,0,0,1,.61,2.71,6,6,0,0,1-1,3.5,7.76,7.76,0,0,1-2.62,2.4,12.32,12.32,0,0,1-3.68,1.38,20.08,20.08,0,0,1-4.17.43q-1.47,0-3.3-.12c-1.22-.07-2.4-.11-3.53-.11ZM11,13.45q.75,0,1.68-.06c.61,0,1.13-.08,1.56-.13a6.57,6.57,0,0,0,3.1-2,4.69,4.69,0,0,0,1.17-3.17A4.29,4.29,0,0,0,17,4.44a7,7,0,0,0-4.3-1.18c-.86,0-1.58,0-2.17.06S9.39,3.4,9,3.45v10ZM12.91,25.9a9.26,9.26,0,0,0,2.74-.39,6.75,6.75,0,0,0,2.17-1.12,5.18,5.18,0,0,0,1.42-1.71,4.82,4.82,0,0,0,.5-2.21A4.63,4.63,0,0,0,19.12,18a4.5,4.5,0,0,0-1.66-1.58A7.25,7.25,0,0,0,15,15.56a18.6,18.6,0,0,0-2.95-.22H9V25.56a8.26,8.26,0,0,0,1.37.25c.55.06,1.39.09,2.55.09"/><polygon class="cls-1" points="27.37 3.49 27.37 1.37 39.1 1.37 39.1 3.49 35.03 3.49 35.03 25.68 45.07 25.68 45.82 24.85 45.82 19.64 48.54 19.64 48.54 27.79 27.37 27.79 27.37 25.68 30.8 25.68 30.8 3.49 27.37 3.49"/><path class="cls-1" d="M58.39,27.79H49.15V25.68h2.94l9.77-24.3h4l9,24.3h2.83v2.11H66.84V25.68H70.2L67.75,19h-10l-2.56,6.64h3.24Zm.19-10.87h8.53L64,8.2l-.94-4h-.15l-1.1,4.08Z"/><polygon class="cls-1" points="98.09 1.37 107.37 1.37 107.37 3.49 103.94 3.49 103.94 28.24 101.49 28.24 86.13 7.53 84.47 4.62 84.31 4.62 84.69 7.56 84.69 25.68 88.13 25.68 88.13 27.79 78.84 27.79 78.84 25.68 82.28 25.68 82.28 3.49 78.84 3.49 78.84 1.37 86.39 1.37 99.6 19.15 101.56 22.39 101.75 22.39 101.53 19.15 101.53 3.49 98.09 3.49 98.09 1.37"/><path class="cls-1" d="M130.05,20.85h2.42v5.92a11.64,11.64,0,0,1-3.09,1.06,17.93,17.93,0,0,1-3.82.41,22.41,22.41,0,0,1-6.22-.79A12,12,0,0,1,114.67,25a11,11,0,0,1-2.92-4.25,16.64,16.64,0,0,1-1-6.15,15.67,15.67,0,0,1,1.13-6.28,11.55,11.55,0,0,1,3.06-4.23,12.23,12.23,0,0,1,4.45-2.4,19,19,0,0,1,5.32-.75c.91,0,1.73,0,2.46.1a16.84,16.84,0,0,1,2,.28,13.38,13.38,0,0,1,1.64.45c.51.17,1,.37,1.47.57V8.77h-2.41v-4l-.53-.76A13.71,13.71,0,0,0,128,3.6a10.83,10.83,0,0,0-2.85-.26,11,11,0,0,0-3.81.64,8,8,0,0,0-3.08,2,9.55,9.55,0,0,0-2.05,3.49,15.2,15.2,0,0,0-.76,5.11q0,5.4,2.74,8.32t7.68,2.93a10.54,10.54,0,0,0,2.28-.21,3.46,3.46,0,0,0,1.38-.55l.52-.71Z"/><path class="cls-1" d="M137.07,14.58A16,16,0,0,1,138,9.13a12.61,12.61,0,0,1,2.62-4.34,11.88,11.88,0,0,1,4.23-2.85,15.08,15.08,0,0,1,5.72-1,15.26,15.26,0,0,1,5.74,1,12,12,0,0,1,4.26,2.85,12.21,12.21,0,0,1,2.64,4.34,15.78,15.78,0,0,1,.91,5.45,15.84,15.84,0,0,1-.91,5.46,12.3,12.3,0,0,1-2.64,4.34,12,12,0,0,1-4.26,2.84,15.06,15.06,0,0,1-5.74,1,14.89,14.89,0,0,1-5.72-1,11.86,11.86,0,0,1-4.23-2.84A12.7,12.7,0,0,1,138,20a16.08,16.08,0,0,1-.91-5.46m4.72,0a17.8,17.8,0,0,0,.55,4.53A10.62,10.62,0,0,0,144,22.77a8.26,8.26,0,0,0,2.85,2.46,8.62,8.62,0,0,0,4.06.9,7.41,7.41,0,0,0,3.73-.9,7.8,7.8,0,0,0,2.62-2.46,11.28,11.28,0,0,0,1.57-3.66,18.75,18.75,0,0,0,.53-4.53,17.66,17.66,0,0,0-.55-4.52,10.41,10.41,0,0,0-1.68-3.67,8.13,8.13,0,0,0-2.85-2.45A8.58,8.58,0,0,0,150.21,3a7.69,7.69,0,0,0-3.87.91,7.5,7.5,0,0,0-2.62,2.45,10.54,10.54,0,0,0-1.47,3.67,20.92,20.92,0,0,0-.46,4.52"/><path class="cls-2" d="M.53,27.31V25.2H4V3H.53V.9h5c.53,0,1,0,1.51,0L8.5.78,10.21.71c.62,0,1.31,0,2.06,0a23.38,23.38,0,0,1,3.4.25,10.12,10.12,0,0,1,3.13.93,6,6,0,0,1,2.28,1.91A5.36,5.36,0,0,1,22,7a5.76,5.76,0,0,1-.36,2,6,6,0,0,1-1.05,1.82,7.16,7.16,0,0,1-1.76,1.48,7.78,7.78,0,0,1-2.45,1v.15a13.41,13.41,0,0,1,2.49.64,8.21,8.21,0,0,1,2.24,1.22,5.9,5.9,0,0,1,1.61,1.9,5.67,5.67,0,0,1,.6,2.7,6,6,0,0,1-1,3.5,8,8,0,0,1-2.62,2.41A12.59,12.59,0,0,1,16,27.11a20.08,20.08,0,0,1-4.17.43c-1,0-2.08,0-3.31-.11S6.12,27.31,5,27.31ZM10.23,13c.5,0,1.07,0,1.68-.05s1.14-.09,1.57-.14a6.59,6.59,0,0,0,3.09-2,4.69,4.69,0,0,0,1.17-3.17A4.28,4.28,0,0,0,16.16,4a7,7,0,0,0-4.3-1.17c-.86,0-1.58,0-2.17,0S8.6,2.92,8.2,3V13Zm1.89,12.45A9.31,9.31,0,0,0,14.86,25,6.65,6.65,0,0,0,17,23.91a5.15,5.15,0,0,0,1.41-1.71A4.79,4.79,0,0,0,19,20a4.74,4.74,0,0,0-.62-2.51,4.58,4.58,0,0,0-1.66-1.58,7.62,7.62,0,0,0-2.44-.82,18.47,18.47,0,0,0-2.94-.22H8.2V25.08a8.07,8.07,0,0,0,1.37.25,23,23,0,0,0,2.55.09"/><polygon class="cls-2" points="26.57 3.01 26.57 0.9 38.31 0.9 38.31 3.01 34.23 3.01 34.23 25.2 44.27 25.2 45.03 24.37 45.03 19.16 47.74 19.16 47.74 27.31 26.57 27.31 26.57 25.2 30.01 25.2 30.01 3.01 26.57 3.01"/><path class="cls-2" d="M57.59,27.31H48.35V25.2h2.94L61.07.9h4L74,25.2h2.83v2.11H66.05V25.2h3.36L67,18.56h-10L54.35,25.2h3.24Zm.19-10.87h8.53L63.22,7.72l-.94-4h-.15L61,7.8Z"/><polygon class="cls-2" points="97.3 0.9 106.58 0.9 106.58 3.01 103.14 3.01 103.14 27.77 100.69 27.77 85.33 7.05 83.67 4.14 83.52 4.14 83.9 7.08 83.9 25.2 87.34 25.2 87.34 27.31 78.05 27.31 78.05 25.2 81.48 25.2 81.48 3.01 78.05 3.01 78.05 0.9 85.6 0.9 98.81 18.67 100.77 21.91 100.96 21.91 100.73 18.67 100.73 3.01 97.3 3.01 97.3 0.9"/><path class="cls-2" d="M129.26,20.37h2.42v5.92a11.6,11.6,0,0,1-3.1,1.06,17.79,17.79,0,0,1-3.81.42,22.47,22.47,0,0,1-6.23-.8,11.84,11.84,0,0,1-4.66-2.47A10.92,10.92,0,0,1,111,20.26a16.73,16.73,0,0,1-1-6.16,15.7,15.7,0,0,1,1.13-6.28,11.72,11.72,0,0,1,3.06-4.23,12.13,12.13,0,0,1,4.45-2.39A18.64,18.64,0,0,1,123.9.44c.91,0,1.73,0,2.45.1a17,17,0,0,1,2,.28,15.45,15.45,0,0,1,1.64.45q.75.27,1.47.57V8.29H129v-4l-.53-.75a10.61,10.61,0,0,0-1.31-.46,11.29,11.29,0,0,0-2.85-.26,11,11,0,0,0-3.8.64,7.9,7.9,0,0,0-3.08,2A9.7,9.7,0,0,0,115.41,9a15.47,15.47,0,0,0-.75,5.11c0,3.6.91,6.38,2.74,8.32s4.38,2.93,7.67,2.93a11.32,11.32,0,0,0,2.29-.2,3.62,3.62,0,0,0,1.37-.56l.53-.71Z"/><path class="cls-2" d="M136.28,14.1a15.82,15.82,0,0,1,.91-5.45,12.46,12.46,0,0,1,2.62-4.34A11.84,11.84,0,0,1,144,1.46a16.6,16.6,0,0,1,11.46,0,12,12,0,0,1,4.27,2.85,12.5,12.5,0,0,1,2.64,4.34,16.06,16.06,0,0,1,.9,5.45,16.08,16.08,0,0,1-.9,5.46,12.5,12.5,0,0,1-2.64,4.34,12,12,0,0,1-4.27,2.85,16.76,16.76,0,0,1-11.46,0,11.84,11.84,0,0,1-4.22-2.85,12.46,12.46,0,0,1-2.62-4.34,15.84,15.84,0,0,1-.91-5.46m4.72,0a17.74,17.74,0,0,0,.55,4.53,10.44,10.44,0,0,0,1.68,3.66,8.26,8.26,0,0,0,2.85,2.46,8.58,8.58,0,0,0,4,.9,7.48,7.48,0,0,0,3.74-.9,7.89,7.89,0,0,0,2.62-2.46,11.5,11.5,0,0,0,1.57-3.66,18.69,18.69,0,0,0,.53-4.53A18.12,18.12,0,0,0,158,9.58a10.76,10.76,0,0,0-1.68-3.67,8.44,8.44,0,0,0-2.85-2.45,8.72,8.72,0,0,0-4.09-.9,7.8,7.8,0,0,0-3.87.9,7.72,7.72,0,0,0-2.63,2.45,10.9,10.9,0,0,0-1.47,3.67A21.58,21.58,0,0,0,141,14.1"/><path class="cls-3" d="M0,26.87V24.76H3.43V2.57H0V.46H4.94c.53,0,1,0,1.51,0L8,.34,9.68.26c.62,0,1.3,0,2.06,0a24.69,24.69,0,0,1,3.39.24,10.69,10.69,0,0,1,3.13.93,6.11,6.11,0,0,1,2.29,1.92,5.34,5.34,0,0,1,.89,3.2,5.84,5.84,0,0,1-.36,2A6,6,0,0,1,20,10.35a6.81,6.81,0,0,1-1.76,1.48,7.78,7.78,0,0,1-2.45.95v.15a13.41,13.41,0,0,1,2.49.64,8.42,8.42,0,0,1,2.25,1.22,5.51,5.51,0,0,1,2.21,4.6,6,6,0,0,1-1,3.49,7.6,7.6,0,0,1-2.62,2.41,12,12,0,0,1-3.68,1.37,20.06,20.06,0,0,1-4.16.44c-1,0-2.09,0-3.31-.12s-2.39-.11-3.53-.11ZM9.7,12.53q.75,0,1.68-.06c.61,0,1.14-.08,1.56-.13a6.57,6.57,0,0,0,3.1-2,4.69,4.69,0,0,0,1.17-3.17,4.29,4.29,0,0,0-1.59-3.69,7,7,0,0,0-4.3-1.18c-.85,0-1.58,0-2.17.06s-1.09.08-1.49.13v10ZM11.59,25a9.19,9.19,0,0,0,2.73-.39,6.75,6.75,0,0,0,2.17-1.12,5.29,5.29,0,0,0,1.42-1.71,4.82,4.82,0,0,0,.51-2.21A4.63,4.63,0,0,0,17.79,17a4.42,4.42,0,0,0-1.66-1.58,7.25,7.25,0,0,0-2.43-.82,18.47,18.47,0,0,0-2.94-.22H7.66V24.64A8.4,8.4,0,0,0,9,24.89q.81.09,2.55.09"/><polygon class="cls-3" points="26.04 2.57 26.04 0.45 37.78 0.45 37.78 2.57 33.7 2.57 33.7 24.76 43.74 24.76 44.49 23.93 44.49 18.72 47.21 18.72 47.21 26.87 26.04 26.87 26.04 24.76 29.47 24.76 29.47 2.57 26.04 2.57"/><path class="cls-3" d="M57.06,26.87H47.82V24.76h2.94L60.53.46h4l9,24.3h2.83v2.11H65.51V24.76h3.37l-2.46-6.64h-10l-2.56,6.64h3.24ZM57.25,16h8.53l-3.1-8.72-.94-4h-.15L60.5,7.36Z"/><polygon class="cls-3" points="96.76 0.45 106.05 0.45 106.05 2.57 102.61 2.57 102.61 27.32 100.16 27.32 84.8 6.61 83.14 3.7 82.99 3.7 83.36 6.64 83.36 24.76 86.8 24.76 86.8 26.87 77.52 26.87 77.52 24.76 80.95 24.76 80.95 2.57 77.52 2.57 77.52 0.45 85.06 0.45 98.28 18.23 100.23 21.47 100.42 21.47 100.2 18.23 100.2 2.57 96.76 2.57 96.76 0.45"/><path class="cls-3" d="M128.73,19.93h2.42v5.92a11.86,11.86,0,0,1-3.1,1.06,17.86,17.86,0,0,1-3.82.41,22.46,22.46,0,0,1-6.22-.79,11.9,11.9,0,0,1-4.66-2.47,11.08,11.08,0,0,1-2.93-4.25,16.64,16.64,0,0,1-1-6.15,15.49,15.49,0,0,1,1.14-6.28,11.41,11.41,0,0,1,3-4.23,12.19,12.19,0,0,1,4.46-2.4A18.59,18.59,0,0,1,123.37,0c.91,0,1.72,0,2.45.1a15,15,0,0,1,2,.28,13.38,13.38,0,0,1,1.64.45c.51.17,1,.37,1.48.57V7.85H128.5v-4L128,3.13a13.71,13.71,0,0,0-1.3-.45,10.73,10.73,0,0,0-2.85-.27,11.09,11.09,0,0,0-3.81.65,7.87,7.87,0,0,0-3.07,2,9.48,9.48,0,0,0-2.06,3.49,15.16,15.16,0,0,0-.76,5.11q0,5.4,2.74,8.32t7.68,2.93a10.47,10.47,0,0,0,2.28-.21,3.46,3.46,0,0,0,1.38-.55l.53-.71Z"/><path class="cls-3" d="M135.75,13.66a15.78,15.78,0,0,1,.91-5.45,12.43,12.43,0,0,1,2.61-4.34A11.88,11.88,0,0,1,143.5,1,16.6,16.6,0,0,1,155,1a12,12,0,0,1,4.26,2.85,12.21,12.21,0,0,1,2.64,4.34,15.78,15.78,0,0,1,.91,5.45,15.84,15.84,0,0,1-.91,5.46,12.3,12.3,0,0,1-2.64,4.34A12.11,12.11,0,0,1,155,26.3a15.06,15.06,0,0,1-5.74,1,14.92,14.92,0,0,1-5.72-1,12,12,0,0,1-4.23-2.84,12.53,12.53,0,0,1-2.61-4.34,15.84,15.84,0,0,1-.91-5.46m4.72,0a18.26,18.26,0,0,0,.54,4.53,10.81,10.81,0,0,0,1.68,3.66,8.36,8.36,0,0,0,2.85,2.46,8.65,8.65,0,0,0,4.06.9,7.48,7.48,0,0,0,3.74-.9A7.89,7.89,0,0,0,156,21.85a11.49,11.49,0,0,0,1.56-3.66,18.27,18.27,0,0,0,.53-4.53,17.8,17.8,0,0,0-.55-4.53,10.61,10.61,0,0,0-1.67-3.66A8.31,8.31,0,0,0,153,3a8.62,8.62,0,0,0-4.1-.91A7.69,7.69,0,0,0,145,3a7.5,7.5,0,0,0-2.62,2.45,10.57,10.57,0,0,0-1.47,3.66,21.09,21.09,0,0,0-.45,4.53"/></g></g></svg>