<svg xmlns="http://www.w3.org/2000/svg" viewBox="0 0 194.62 25.36"><defs><style>.cls-1{fill:#beb8a6;}.cls-2{fill:#fdfefe;}.cls-3{fill:#6e0105;}.cls-4{fill:none;stroke:#6e0105;stroke-miterlimit:10;stroke-width:0.2px;}</style></defs><g id="Layer_2" data-name="Layer 2"><g id="Ñëîé_1" data-name="Ñëîé 1"><path class="cls-1" d="M1.66,1.72h8.77c2.82,0,4.9.5,6.26,1.51a5.47,5.47,0,0,1,2,4.66,5.07,5.07,0,0,1-1.39,3.67,8,8,0,0,1-4.17,2,8.24,8.24,0,0,1,2.17.92,4.32,4.32,0,0,1,1.38,1.41,9.1,9.1,0,0,1,1,2.72A18.47,18.47,0,0,0,18.32,21,3.43,3.43,0,0,0,19.75,23a6.54,6.54,0,0,0,3,.52h.3v1.31c-.51.1-1,.17-1.43.22a10.88,10.88,0,0,1-1.24.08,7.11,7.11,0,0,1-2-.25,3.78,3.78,0,0,1-1.44-.74,8.49,8.49,0,0,1-2-4.21q-.3-1.12-.48-1.68a5.49,5.49,0,0,0-1.86-2.91A6.35,6.35,0,0,0,9,14.49c-.33,0-.87,0-1.61,0l-.12,0v8.18l.59.49,2,.17v1.41H1.66V23.4l2-.17.59-.49v-19l-.59-.49-1.95-.2ZM7.29,3.29v9.58l1,0h.91a7.72,7.72,0,0,0,4.65-1.12,4.29,4.29,0,0,0,1.45-3.62A4.44,4.44,0,0,0,13.8,4.45,8,8,0,0,0,9,3.29Z"/><path class="cls-1" d="M1.66,1.72h8.77c2.82,0,4.9.5,6.26,1.51a5.47,5.47,0,0,1,2,4.66,5.07,5.07,0,0,1-1.39,3.67,8,8,0,0,1-4.17,2,8.24,8.24,0,0,1,2.17.92,4.32,4.32,0,0,1,1.38,1.41,9.1,9.1,0,0,1,1,2.72A18.47,18.47,0,0,0,18.32,21,3.43,3.43,0,0,0,19.75,23a6.54,6.54,0,0,0,3,.52h.3v1.31c-.51.1-1,.17-1.43.22a10.88,10.88,0,0,1-1.24.08,7.11,7.11,0,0,1-2-.25,3.78,3.78,0,0,1-1.44-.74,8.49,8.49,0,0,1-2-4.21q-.3-1.12-.48-1.68a5.49,5.49,0,0,0-1.86-2.91A6.35,6.35,0,0,0,9,14.49c-.33,0-.87,0-1.61,0l-.12,0v8.18l.59.49,2,.17v1.41H1.66V23.4l2-.17.59-.49v-19l-.59-.49-1.95-.2ZM7.29,3.29v9.58l1,0h.91a7.72,7.72,0,0,0,4.65-1.12,4.29,4.29,0,0,0,1.45-3.62A4.44,4.44,0,0,0,13.8,4.45,8,8,0,0,0,9,3.29Z"/><polygon class="cls-1" points="27.46 24.81 27.46 23.4 29.41 23.23 30 22.74 30 3.79 29.41 3.29 27.46 3.1 27.46 1.72 43.95 1.72 43.95 6.74 42.02 6.74 41.53 3.81 41.06 3.29 33.09 3.29 33.09 12 38.74 12 39.23 11.51 39.56 9.01 41.2 9.01 41.2 16.59 39.56 16.59 39.23 14.1 38.74 13.58 33.09 13.58 33.09 23.23 42.32 23.23 42.81 22.67 43.4 19.2 45.18 19.2 45.18 24.81 27.46 24.81"/><polygon class="cls-1" points="27.46 24.81 27.46 23.4 29.41 23.23 30 22.74 30 3.79 29.41 3.29 27.46 3.1 27.46 1.72 43.95 1.72 43.95 6.74 42.02 6.74 41.53 3.81 41.06 3.29 33.09 3.29 33.09 12 38.74 12 39.23 11.51 39.56 9.01 41.2 9.01 41.2 16.59 39.56 16.59 39.23 14.1 38.74 13.58 33.09 13.58 33.09 23.23 42.32 23.23 42.81 22.67 43.4 19.2 45.18 19.2 45.18 24.81 27.46 24.81"/><path class="cls-1" d="M50.86,24.81V23.4l2-.17.59-.49v-19l-.59-.49-2.24-.2V1.72h7.85q5.17,0,7.37,1.63T68,8.74a6.68,6.68,0,0,1-2.41,5.38,9.85,9.85,0,0,1-6.5,2c-.28,0-.62,0-1,0L56.51,16l0,6.77.59.49,2.45.17v1.41Zm5.63-10.5,1.45.14c.34,0,.62,0,.84,0A6.17,6.17,0,0,0,63.26,13,5.8,5.8,0,0,0,64.8,8.65a4.93,4.93,0,0,0-1.6-4,7.56,7.56,0,0,0-4.91-1.32l-1.08,0-.72,0Z"/><path class="cls-1" d="M50.86,24.81V23.4l2-.17.59-.49v-19l-.59-.49-2.24-.2V1.72h7.85q5.17,0,7.37,1.63T68,8.74a6.68,6.68,0,0,1-2.41,5.38,9.85,9.85,0,0,1-6.5,2c-.28,0-.62,0-1,0L56.51,16l0,6.77.59.49,2.45.17v1.41Zm5.63-10.5,1.45.14c.34,0,.62,0,.84,0A6.17,6.17,0,0,0,63.26,13,5.8,5.8,0,0,0,64.8,8.65a4.93,4.93,0,0,0-1.6-4,7.56,7.56,0,0,0-4.91-1.32l-1.08,0-.72,0Z"/><path class="cls-1" d="M84.1,1.13a11.07,11.07,0,0,1,4.1.75,10.59,10.59,0,0,1,3.46,2.27,11.24,11.24,0,0,1,2.65,4,13.9,13.9,0,0,1,.9,5.1,14.51,14.51,0,0,1-.44,3.61,12.19,12.19,0,0,1-1.31,3.19A10.53,10.53,0,0,1,89.53,24a10.77,10.77,0,0,1-5.43,1.4A11.45,11.45,0,0,1,80,24.61a10.31,10.31,0,0,1-3.43-2.21,11,11,0,0,1-2.65-4,14.12,14.12,0,0,1-.9-5.14,14.22,14.22,0,0,1,.89-5.12,11.18,11.18,0,0,1,2.62-4A10.65,10.65,0,0,1,80,1.89a11.17,11.17,0,0,1,4.15-.76M84.1,3a6.49,6.49,0,0,0-5.51,2.77,12.35,12.35,0,0,0-2,7.49,12.36,12.36,0,0,0,2.06,7.49,6.48,6.48,0,0,0,5.49,2.79,6.4,6.4,0,0,0,5.44-2.8,12.35,12.35,0,0,0,2.06-7.48,12.28,12.28,0,0,0-2.06-7.47A6.42,6.42,0,0,0,84.1,3"/><path class="cls-1" d="M84.1,1.13a11.07,11.07,0,0,1,4.1.75,10.59,10.59,0,0,1,3.46,2.27,11.24,11.24,0,0,1,2.65,4,13.9,13.9,0,0,1,.9,5.1,14.51,14.51,0,0,1-.44,3.61,12.19,12.19,0,0,1-1.31,3.19A10.53,10.53,0,0,1,89.53,24a10.77,10.77,0,0,1-5.43,1.4A11.45,11.45,0,0,1,80,24.61a10.31,10.31,0,0,1-3.43-2.21,11,11,0,0,1-2.65-4,14.12,14.12,0,0,1-.9-5.14,14.22,14.22,0,0,1,.89-5.12,11.18,11.18,0,0,1,2.62-4A10.65,10.65,0,0,1,80,1.89,11.17,11.17,0,0,1,84.1,1.13ZM84.1,3a6.49,6.49,0,0,0-5.51,2.77,12.35,12.35,0,0,0-2,7.49,12.36,12.36,0,0,0,2.06,7.49,6.48,6.48,0,0,0,5.49,2.79,6.4,6.4,0,0,0,5.44-2.8,12.35,12.35,0,0,0,2.06-7.48,12.28,12.28,0,0,0-2.06-7.47A6.42,6.42,0,0,0,84.1,3Z"/><path class="cls-1" d="M100.29,24.12V18.07h2l.41,3.95.45.59a6.89,6.89,0,0,0,1.73.59,10.83,10.83,0,0,0,2.12.2,6,6,0,0,0,3.8-1.12,3.66,3.66,0,0,0,1.41-3q0-2.64-4.95-4.74l-.82-.35a13.68,13.68,0,0,1-4.67-2.85,5,5,0,0,1-1.14-3.42,6,6,0,0,1,2.17-4.79,8.74,8.74,0,0,1,5.78-1.82,16.79,16.79,0,0,1,2.9.25,20.93,20.93,0,0,1,3,.73V7.6h-1.8l-.52-3.28-.5-.57a5.24,5.24,0,0,0-1.43-.55A7.47,7.47,0,0,0,108.54,3a5,5,0,0,0-3.41,1.11,3.87,3.87,0,0,0-1.26,3,3.2,3.2,0,0,0,.88,2.31,13.44,13.44,0,0,0,3.94,2.21l.86.34a13,13,0,0,1,4.33,2.48,4.81,4.81,0,0,1,1.14,1.7,5.66,5.66,0,0,1,.38,2.08,6.06,6.06,0,0,1-2.44,5,10.23,10.23,0,0,1-6.47,1.91,18.3,18.3,0,0,1-3.39-.29,12.26,12.26,0,0,1-2.81-.82"/><path class="cls-1" d="M100.29,24.12V18.07h2l.41,3.95.45.59a6.89,6.89,0,0,0,1.73.59,10.83,10.83,0,0,0,2.12.2,6,6,0,0,0,3.8-1.12,3.66,3.66,0,0,0,1.41-3q0-2.64-4.95-4.74l-.82-.35a13.68,13.68,0,0,1-4.67-2.85,5,5,0,0,1-1.14-3.42,6,6,0,0,1,2.17-4.79,8.74,8.74,0,0,1,5.78-1.82,16.79,16.79,0,0,1,2.9.25,20.93,20.93,0,0,1,3,.73V7.6h-1.8l-.52-3.28-.5-.57a5.24,5.24,0,0,0-1.43-.55A7.47,7.47,0,0,0,108.54,3a5,5,0,0,0-3.41,1.11,3.87,3.87,0,0,0-1.26,3,3.2,3.2,0,0,0,.88,2.31,13.44,13.44,0,0,0,3.94,2.21l.86.34a13,13,0,0,1,4.33,2.48,4.81,4.81,0,0,1,1.14,1.7,5.66,5.66,0,0,1,.38,2.08,6.06,6.06,0,0,1-2.44,5,10.23,10.23,0,0,1-6.47,1.91,18.3,18.3,0,0,1-3.39-.29A12.26,12.26,0,0,1,100.29,24.12Z"/><path class="cls-1" d="M130.71,1.43H133L141.23,23l2.07.42v1.41h-7.82V23.4l2.14-.17.25-.49-2.49-6.57h-8.11l-2.46,6.57.35.49,2.24.17v1.41h-6.74V23.4l2-.42ZM131.25,5l-3.4,9.55h6.94Z"/><path class="cls-1" d="M130.71,1.43H133L141.23,23l2.07.42v1.41h-7.82V23.4l2.14-.17.25-.49-2.49-6.57h-8.11l-2.46,6.57.35.49,2.24.17v1.41h-6.74V23.4l2-.42ZM131.25,5l-3.4,9.55h6.94Z"/><path class="cls-1" d="M156.12,1.72q6.06,0,9.38,3c2.22,2,3.34,4.85,3.34,8.52a13,13,0,0,1-1.09,5.43,10.23,10.23,0,0,1-3.22,4,9.87,9.87,0,0,1-3.41,1.63,20.44,20.44,0,0,1-5,.5h-8.49V23.4l2-.17.58-.49v-19l-.58-.49-2-.2V1.72Zm-2.85,1.57V23.23H156c3.14,0,5.48-.83,7-2.48s2.32-4.15,2.32-7.5S164.58,7.4,163,5.76s-3.89-2.47-7-2.47Z"/><path class="cls-1" d="M156.12,1.72q6.06,0,9.38,3c2.22,2,3.34,4.85,3.34,8.52a13,13,0,0,1-1.09,5.43,10.23,10.23,0,0,1-3.22,4,9.87,9.87,0,0,1-3.41,1.63,20.44,20.44,0,0,1-5,.5h-8.49V23.4l2-.17.58-.49v-19l-.58-.49-2-.2V1.72Zm-2.85,1.57V23.23H156c3.14,0,5.48-.83,7-2.48s2.32-4.15,2.32-7.5S164.58,7.4,163,5.76s-3.89-2.47-7-2.47Z"/><path class="cls-1" d="M183.51,1.13a11,11,0,0,1,4.1.75,10.63,10.63,0,0,1,3.47,2.27,11.38,11.38,0,0,1,2.65,4,14.11,14.11,0,0,1,.89,5.1,14.52,14.52,0,0,1-.43,3.61,12.21,12.21,0,0,1-1.32,3.19A10.46,10.46,0,0,1,188.94,24a10.74,10.74,0,0,1-5.43,1.4,11.43,11.43,0,0,1-4.14-.75,10.35,10.35,0,0,1-3.44-2.21,11.13,11.13,0,0,1-2.64-4,14.12,14.12,0,0,1-.9-5.14,14.22,14.22,0,0,1,.89-5.12,11,11,0,0,1,2.62-4,10.55,10.55,0,0,1,3.47-2.26,11.08,11.08,0,0,1,4.14-.76m0,1.86A6.48,6.48,0,0,0,178,5.76a12.35,12.35,0,0,0-2,7.49A12.3,12.3,0,0,0,178,20.74a6.74,6.74,0,0,0,10.93,0,12.35,12.35,0,0,0,2-7.48,12.28,12.28,0,0,0-2-7.47A6.44,6.44,0,0,0,183.51,3"/><path class="cls-1" d="M183.51,1.13a11,11,0,0,1,4.1.75,10.63,10.63,0,0,1,3.47,2.27,11.38,11.38,0,0,1,2.65,4,14.11,14.11,0,0,1,.89,5.1,14.52,14.52,0,0,1-.43,3.61,12.21,12.21,0,0,1-1.32,3.19A10.46,10.46,0,0,1,188.94,24a10.74,10.74,0,0,1-5.43,1.4,11.43,11.43,0,0,1-4.14-.75,10.35,10.35,0,0,1-3.44-2.21,11.13,11.13,0,0,1-2.64-4,14.12,14.12,0,0,1-.9-5.14,14.22,14.22,0,0,1,.89-5.12,11,11,0,0,1,2.62-4,10.55,10.55,0,0,1,3.47-2.26A11.08,11.08,0,0,1,183.51,1.13Zm0,1.86A6.48,6.48,0,0,0,178,5.76a12.35,12.35,0,0,0-2,7.49A12.3,12.3,0,0,0,178,20.74a6.74,6.74,0,0,0,10.93,0,12.35,12.35,0,0,0,2-7.48,12.28,12.28,0,0,0-2-7.47A6.44,6.44,0,0,0,183.51,3Z"/><path class="cls-2" d="M1,1.36H9.72c2.82,0,4.9.51,6.26,1.52a5.43,5.43,0,0,1,2,4.66,5,5,0,0,1-1.39,3.67,8,8,0,0,1-4.17,2,7.92,7.92,0,0,1,2.17.92A4.29,4.29,0,0,1,16,15.57a9.21,9.21,0,0,1,1,2.72,18.78,18.78,0,0,0,.64,2.38A3.47,3.47,0,0,0,19,22.6a6.59,6.59,0,0,0,3,.51h.3v1.31c-.51.1-1,.18-1.43.23a10.88,10.88,0,0,1-1.24.08,7.48,7.48,0,0,1-2-.25,3.66,3.66,0,0,1-1.44-.75,8.58,8.58,0,0,1-2-4.2c-.19-.75-.36-1.31-.48-1.68a5.49,5.49,0,0,0-1.86-2.91,6.26,6.26,0,0,0-3.54-.81c-.33,0-.87,0-1.61,0l-.12,0v8.19l.59.48,2,.17v1.41H1V23l2-.17.59-.48v-19L2.9,2.94,1,2.74ZM6.58,2.94v9.58l1,0h.91a7.65,7.65,0,0,0,4.65-1.12,4.27,4.27,0,0,0,1.45-3.61A4.42,4.42,0,0,0,13.09,4.1,8,8,0,0,0,8.25,2.94Z"/><path class="cls-2" d="M1,1.36H9.72c2.82,0,4.9.51,6.26,1.52a5.43,5.43,0,0,1,2,4.66,5,5,0,0,1-1.39,3.67,8,8,0,0,1-4.17,2,7.92,7.92,0,0,1,2.17.92A4.29,4.29,0,0,1,16,15.57a9.21,9.21,0,0,1,1,2.72,18.78,18.78,0,0,0,.64,2.38A3.47,3.47,0,0,0,19,22.6a6.59,6.59,0,0,0,3,.51h.3v1.31c-.51.1-1,.18-1.43.23a10.88,10.88,0,0,1-1.24.08,7.48,7.48,0,0,1-2-.25,3.66,3.66,0,0,1-1.44-.75,8.58,8.58,0,0,1-2-4.2c-.19-.75-.36-1.31-.48-1.68a5.49,5.49,0,0,0-1.86-2.91,6.26,6.26,0,0,0-3.54-.81c-.33,0-.87,0-1.61,0l-.12,0v8.19l.59.48,2,.17v1.41H1V23l2-.17.59-.48v-19L2.9,2.94,1,2.74ZM6.58,2.94v9.58l1,0h.91a7.65,7.65,0,0,0,4.65-1.12,4.27,4.27,0,0,0,1.45-3.61A4.42,4.42,0,0,0,13.09,4.1,8,8,0,0,0,8.25,2.94Z"/><polygon class="cls-2" points="26.75 24.45 26.75 23.04 28.7 22.88 29.29 22.39 29.29 3.43 28.7 2.94 26.75 2.74 26.75 1.36 43.24 1.36 43.24 6.39 41.31 6.39 40.82 3.46 40.35 2.94 32.38 2.94 32.38 11.65 38.03 11.65 38.52 11.16 38.85 8.66 40.49 8.66 40.49 16.23 38.85 16.23 38.52 13.75 38.03 13.23 32.38 13.23 32.38 22.88 41.61 22.88 42.1 22.32 42.69 18.84 44.47 18.84 44.47 24.45 26.75 24.45"/><polygon class="cls-2" points="26.75 24.45 26.75 23.04 28.7 22.88 29.29 22.39 29.29 3.43 28.7 2.94 26.75 2.74 26.75 1.36 43.24 1.36 43.24 6.39 41.31 6.39 40.82 3.46 40.35 2.94 32.38 2.94 32.38 11.65 38.03 11.65 38.52 11.16 38.85 8.66 40.49 8.66 40.49 16.23 38.85 16.23 38.52 13.75 38.03 13.23 32.38 13.23 32.38 22.88 41.61 22.88 42.1 22.32 42.69 18.84 44.47 18.84 44.47 24.45 26.75 24.45"/><path class="cls-2" d="M50.15,24.45V23l2-.17.59-.48v-19l-.59-.49-2.24-.2V1.36h7.85q5.17,0,7.37,1.63t2.2,5.4a6.63,6.63,0,0,1-2.41,5.37,9.8,9.8,0,0,1-6.5,2c-.28,0-.62,0-1,0l-1.55-.12,0,6.77.59.48,2.45.17v1.41ZM55.78,14l1.45.14c.35,0,.63.05.84.05a6.17,6.17,0,0,0,4.48-1.5A5.8,5.8,0,0,0,64.09,8.3,5,5,0,0,0,62.5,4.25a7.67,7.67,0,0,0-4.92-1.31L56.5,3c-.26,0-.49,0-.72,0Z"/><path class="cls-2" d="M50.15,24.45V23l2-.17.59-.48v-19l-.59-.49-2.24-.2V1.36h7.85q5.17,0,7.37,1.63t2.2,5.4a6.63,6.63,0,0,1-2.41,5.37,9.8,9.8,0,0,1-6.5,2c-.28,0-.62,0-1,0l-1.55-.12,0,6.77.59.48,2.45.17v1.41ZM55.78,14l1.45.14c.35,0,.63.05.84.05a6.17,6.17,0,0,0,4.48-1.5A5.8,5.8,0,0,0,64.09,8.3,5,5,0,0,0,62.5,4.25a7.67,7.67,0,0,0-4.92-1.31L56.5,3c-.26,0-.49,0-.72,0Z"/><path class="cls-2" d="M83.39.77a10.87,10.87,0,0,1,4.1.76A10.57,10.57,0,0,1,91,3.8a11.17,11.17,0,0,1,2.64,4,13.85,13.85,0,0,1,.9,5.09,14.94,14.94,0,0,1-.43,3.61,12.48,12.48,0,0,1-1.32,3.2,10.53,10.53,0,0,1-3.93,3.91A10.87,10.87,0,0,1,83.39,25a11.15,11.15,0,0,1-4.14-.76,10.22,10.22,0,0,1-3.44-2.2,11.06,11.06,0,0,1-2.65-4,14.12,14.12,0,0,1-.9-5.14,13.92,13.92,0,0,1,.9-5.11,10.84,10.84,0,0,1,2.62-4,10.45,10.45,0,0,1,3.47-2.26A10.89,10.89,0,0,1,83.39.77m0,1.87A6.51,6.51,0,0,0,77.88,5.4a12.35,12.35,0,0,0-2,7.49,12.38,12.38,0,0,0,2.06,7.5,6.53,6.53,0,0,0,5.49,2.79,6.46,6.46,0,0,0,5.45-2.8,12.45,12.45,0,0,0,2-7.49,12.35,12.35,0,0,0-2-7.47,6.44,6.44,0,0,0-5.45-2.78"/><path class="cls-2" d="M83.39.77a10.87,10.87,0,0,1,4.1.76A10.57,10.57,0,0,1,91,3.8a11.17,11.17,0,0,1,2.64,4,13.85,13.85,0,0,1,.9,5.09,14.94,14.94,0,0,1-.43,3.61,12.48,12.48,0,0,1-1.32,3.2,10.53,10.53,0,0,1-3.93,3.91A10.87,10.87,0,0,1,83.39,25a11.15,11.15,0,0,1-4.14-.76,10.22,10.22,0,0,1-3.44-2.2,11.06,11.06,0,0,1-2.65-4,14.12,14.12,0,0,1-.9-5.14,13.92,13.92,0,0,1,.9-5.11,10.84,10.84,0,0,1,2.62-4,10.45,10.45,0,0,1,3.47-2.26A10.89,10.89,0,0,1,83.39.77Zm0,1.87A6.51,6.51,0,0,0,77.88,5.4a12.35,12.35,0,0,0-2,7.49,12.38,12.38,0,0,0,2.06,7.5,6.53,6.53,0,0,0,5.49,2.79,6.46,6.46,0,0,0,5.45-2.8,12.45,12.45,0,0,0,2-7.49,12.35,12.35,0,0,0-2-7.47A6.44,6.44,0,0,0,83.39,2.64Z"/><path class="cls-2" d="M99.58,23.77V17.71h2l.41,3.95.45.59a6.52,6.52,0,0,0,1.73.59,10.11,10.11,0,0,0,2.12.2,6,6,0,0,0,3.8-1.11,3.67,3.67,0,0,0,1.41-3q0-2.64-5-4.74c-.35-.16-.63-.27-.82-.35A13.68,13.68,0,0,1,101.09,11,5,5,0,0,1,100,7.55a6,6,0,0,1,2.17-4.79A8.74,8.74,0,0,1,107.9.94a17.82,17.82,0,0,1,2.9.24,21,21,0,0,1,3,.74V7.24H112L111.45,4l-.51-.56a4.94,4.94,0,0,0-1.43-.55,7.34,7.34,0,0,0-1.68-.18,4.94,4.94,0,0,0-3.41,1.12,3.83,3.83,0,0,0-1.26,3A3.22,3.22,0,0,0,104,9.14,13.44,13.44,0,0,0,108,11.35l.86.33a13.29,13.29,0,0,1,4.34,2.49,4.88,4.88,0,0,1,1.13,1.69,5.71,5.71,0,0,1,.38,2.09,6.06,6.06,0,0,1-2.44,5,10.2,10.2,0,0,1-6.47,1.9,19.22,19.22,0,0,1-3.39-.28,12.41,12.41,0,0,1-2.81-.82"/><path class="cls-2" d="M99.58,23.77V17.71h2l.41,3.95.45.59a6.52,6.52,0,0,0,1.73.59,10.11,10.11,0,0,0,2.12.2,6,6,0,0,0,3.8-1.11,3.67,3.67,0,0,0,1.41-3q0-2.64-5-4.74c-.35-.16-.63-.27-.82-.35A13.68,13.68,0,0,1,101.09,11,5,5,0,0,1,100,7.55a6,6,0,0,1,2.17-4.79A8.74,8.74,0,0,1,107.9.94a17.82,17.82,0,0,1,2.9.24,21,21,0,0,1,3,.74V7.24H112L111.45,4l-.51-.56a4.94,4.94,0,0,0-1.43-.55,7.34,7.34,0,0,0-1.68-.18,4.94,4.94,0,0,0-3.41,1.12,3.83,3.83,0,0,0-1.26,3A3.22,3.22,0,0,0,104,9.14,13.44,13.44,0,0,0,108,11.35l.86.33a13.29,13.29,0,0,1,4.34,2.49,4.88,4.88,0,0,1,1.13,1.69,5.71,5.71,0,0,1,.38,2.09,6.06,6.06,0,0,1-2.44,5,10.2,10.2,0,0,1-6.47,1.9,19.22,19.22,0,0,1-3.39-.28A12.41,12.41,0,0,1,99.58,23.77Z"/><path class="cls-2" d="M130,1.07h2.27l8.25,21.55,2.07.42v1.41h-7.82V23l2.14-.17.25-.48-2.48-6.58h-8.12l-2.46,6.58.35.48,2.24.17v1.41H120V23l2-.42Zm.54,3.62-3.4,9.54h6.94Z"/><path class="cls-2" d="M130,1.07h2.27l8.25,21.55,2.07.42v1.41h-7.82V23l2.14-.17.25-.48-2.48-6.58h-8.12l-2.46,6.58.35.48,2.24.17v1.41H120V23l2-.42Zm.54,3.62-3.4,9.54h6.94Z"/><path class="cls-2" d="M155.42,1.36q6,0,9.37,3c2.22,2,3.34,4.85,3.34,8.51A13,13,0,0,1,167,18.33a10.27,10.27,0,0,1-3.22,4A9.72,9.72,0,0,1,160.41,24a20.47,20.47,0,0,1-5,.49h-8.49V23l1.95-.17.58-.48v-19l-.58-.49-1.95-.2V1.36Zm-2.86,1.58V22.87h2.72c3.14,0,5.48-.82,7-2.47s2.32-4.16,2.32-7.51S163.87,7,162.33,5.4s-3.89-2.46-7.05-2.46Z"/><path class="cls-2" d="M155.42,1.36q6,0,9.37,3c2.22,2,3.34,4.85,3.34,8.51A13,13,0,0,1,167,18.33a10.27,10.27,0,0,1-3.22,4A9.72,9.72,0,0,1,160.41,24a20.47,20.47,0,0,1-5,.49h-8.49V23l1.95-.17.58-.48v-19l-.58-.49-1.95-.2V1.36Zm-2.86,1.58V22.87h2.72c3.14,0,5.48-.82,7-2.47s2.32-4.16,2.32-7.51S163.87,7,162.33,5.4s-3.89-2.46-7.05-2.46Z"/><path class="cls-2" d="M182.81.77a10.82,10.82,0,0,1,4.09.76,10.47,10.47,0,0,1,3.47,2.27,11.2,11.2,0,0,1,2.65,4,14.05,14.05,0,0,1,.89,5.09,14.46,14.46,0,0,1-.43,3.61,12.46,12.46,0,0,1-1.31,3.2,10.53,10.53,0,0,1-3.93,3.91,10.87,10.87,0,0,1-5.43,1.4,11.24,11.24,0,0,1-4.15-.76,10.32,10.32,0,0,1-3.44-2.2,11.17,11.17,0,0,1-2.64-4,14.12,14.12,0,0,1-.9-5.14,14.13,14.13,0,0,1,.89-5.11,11,11,0,0,1,2.62-4,10.55,10.55,0,0,1,3.47-2.26,11,11,0,0,1,4.15-.77m0,1.87A6.5,6.5,0,0,0,177.3,5.4a12.35,12.35,0,0,0-2,7.49,12.38,12.38,0,0,0,2.06,7.5,6.51,6.51,0,0,0,5.49,2.79,6.44,6.44,0,0,0,5.44-2.8,12.38,12.38,0,0,0,2.05-7.49,12.28,12.28,0,0,0-2.05-7.47,6.42,6.42,0,0,0-5.44-2.78"/><path class="cls-2" d="M182.81.77a10.82,10.82,0,0,1,4.09.76,10.47,10.47,0,0,1,3.47,2.27,11.2,11.2,0,0,1,2.65,4,14.05,14.05,0,0,1,.89,5.09,14.46,14.46,0,0,1-.43,3.61,12.46,12.46,0,0,1-1.31,3.2,10.53,10.53,0,0,1-3.93,3.91,10.87,10.87,0,0,1-5.43,1.4,11.24,11.24,0,0,1-4.15-.76,10.32,10.32,0,0,1-3.44-2.2,11.17,11.17,0,0,1-2.64-4,14.12,14.12,0,0,1-.9-5.14,14.13,14.13,0,0,1,.89-5.11,11,11,0,0,1,2.62-4,10.55,10.55,0,0,1,3.47-2.26A11,11,0,0,1,182.81.77Zm0,1.87A6.5,6.5,0,0,0,177.3,5.4a12.35,12.35,0,0,0-2,7.49,12.38,12.38,0,0,0,2.06,7.5,6.51,6.51,0,0,0,5.49,2.79,6.44,6.44,0,0,0,5.44-2.8,12.38,12.38,0,0,0,2.05-7.49,12.28,12.28,0,0,0-2.05-7.47A6.42,6.42,0,0,0,182.81,2.64Z"/><path class="cls-3" d="M.1.69H8.87c2.82,0,4.9.51,6.26,1.52a5.44,5.44,0,0,1,2,4.66,5,5,0,0,1-1.39,3.67,8,8,0,0,1-4.17,2,7.92,7.92,0,0,1,2.17.92,4.29,4.29,0,0,1,1.38,1.4,9.21,9.21,0,0,1,1,2.72A18.78,18.78,0,0,0,16.76,20a3.51,3.51,0,0,0,1.43,1.93,6.59,6.59,0,0,0,3,.51h.3v1.31c-.51.1-1,.17-1.43.23a10.79,10.79,0,0,1-1.24.07,7.51,7.51,0,0,1-2-.24,3.8,3.8,0,0,1-1.44-.75,8.49,8.49,0,0,1-2-4.2q-.3-1.12-.48-1.68A5.49,5.49,0,0,0,11,14.27a6.26,6.26,0,0,0-3.54-.81c-.33,0-.87,0-1.61,0l-.12,0v8.19l.59.48,2,.17v1.41H.1V22.37l1.95-.17.59-.48v-19l-.59-.49L.1,2.07ZM5.73,2.27v9.58l1,0h.91a7.65,7.65,0,0,0,4.65-1.12,4.27,4.27,0,0,0,1.45-3.61,4.42,4.42,0,0,0-1.49-3.72A8,8,0,0,0,7.4,2.27Z"/><path class="cls-4" d="M.1.69H8.87c2.82,0,4.9.51,6.26,1.52a5.44,5.44,0,0,1,2,4.66,5,5,0,0,1-1.39,3.67,8,8,0,0,1-4.17,2,7.92,7.92,0,0,1,2.17.92,4.29,4.29,0,0,1,1.38,1.4,9.21,9.21,0,0,1,1,2.72A18.78,18.78,0,0,0,16.76,20a3.51,3.51,0,0,0,1.43,1.93,6.59,6.59,0,0,0,3,.51h.3v1.31c-.51.1-1,.17-1.43.23a10.79,10.79,0,0,1-1.24.07,7.51,7.51,0,0,1-2-.24,3.8,3.8,0,0,1-1.44-.75,8.49,8.49,0,0,1-2-4.2q-.3-1.12-.48-1.68A5.49,5.49,0,0,0,11,14.27a6.26,6.26,0,0,0-3.54-.81c-.33,0-.87,0-1.61,0l-.12,0v8.19l.59.48,2,.17v1.41H.1V22.37l1.95-.17.59-.48v-19l-.59-.49L.1,2.07ZM5.73,2.27v9.58l1,0h.91a7.65,7.65,0,0,0,4.65-1.12,4.27,4.27,0,0,0,1.45-3.61,4.42,4.42,0,0,0-1.49-3.72A8,8,0,0,0,7.4,2.27Z"/><polygon class="cls-3" points="25.9 23.78 25.9 22.37 27.85 22.2 28.44 21.72 28.44 2.76 27.85 2.27 25.9 2.07 25.9 0.69 42.39 0.69 42.39 5.72 40.46 5.72 39.97 2.79 39.5 2.27 31.54 2.27 31.54 10.98 37.18 10.98 37.67 10.49 38 7.99 39.64 7.99 39.64 15.56 38 15.56 37.67 13.08 37.18 12.56 31.54 12.56 31.54 22.2 40.76 22.2 41.25 21.65 41.84 18.17 43.62 18.17 43.62 23.78 25.9 23.78"/><polygon class="cls-4" points="25.9 23.78 25.9 22.37 27.85 22.2 28.44 21.72 28.44 2.76 27.85 2.27 25.9 2.07 25.9 0.69 42.39 0.69 42.39 5.72 40.46 5.72 39.97 2.79 39.5 2.27 31.54 2.27 31.54 10.98 37.18 10.98 37.67 10.49 38 7.99 39.64 7.99 39.64 15.56 38 15.56 37.67 13.08 37.18 12.56 31.54 12.56 31.54 22.2 40.76 22.2 41.25 21.65 41.84 18.17 43.62 18.17 43.62 23.78 25.9 23.78"/><path class="cls-3" d="M49.3,23.78V22.37l2-.17.59-.48v-19l-.59-.49L49,2.07V.69h7.85q5.18,0,7.37,1.63c1.47,1.09,2.2,2.88,2.2,5.4A6.66,6.66,0,0,1,64,13.09a9.8,9.8,0,0,1-6.5,2c-.28,0-.62,0-1,0L55,14.94l0,6.78.59.48,2.45.17v1.41Zm5.63-10.5,1.45.14c.35,0,.62,0,.84,0A6.13,6.13,0,0,0,61.7,12a5.76,5.76,0,0,0,1.54-4.33,5,5,0,0,0-1.6-4,7.56,7.56,0,0,0-4.91-1.31c-.47,0-.83,0-1.08,0s-.49,0-.72,0Z"/><path class="cls-4" d="M49.3,23.78V22.37l2-.17.59-.48v-19l-.59-.49L49,2.07V.69h7.85q5.18,0,7.37,1.63c1.47,1.09,2.2,2.88,2.2,5.4A6.66,6.66,0,0,1,64,13.09a9.8,9.8,0,0,1-6.5,2c-.28,0-.62,0-1,0L55,14.94l0,6.78.59.48,2.45.17v1.41Zm5.63-10.5,1.45.14c.35,0,.62,0,.84,0A6.13,6.13,0,0,0,61.7,12a5.76,5.76,0,0,0,1.54-4.33,5,5,0,0,0-1.6-4,7.56,7.56,0,0,0-4.91-1.31c-.47,0-.83,0-1.08,0s-.49,0-.72,0Z"/><path class="cls-3" d="M82.54.1a10.87,10.87,0,0,1,4.1.76,10.57,10.57,0,0,1,3.47,2.27,11.17,11.17,0,0,1,2.64,4,13.85,13.85,0,0,1,.9,5.09,14.94,14.94,0,0,1-.43,3.61A12.63,12.63,0,0,1,91.9,19,10.43,10.43,0,0,1,88,22.93a10.78,10.78,0,0,1-5.43,1.41,11.24,11.24,0,0,1-4.15-.76A10.28,10.28,0,0,1,75,21.38a11.06,11.06,0,0,1-2.65-4,14.12,14.12,0,0,1-.9-5.14,13.92,13.92,0,0,1,.9-5.11,10.94,10.94,0,0,1,2.61-4A10.65,10.65,0,0,1,78.39.87,11,11,0,0,1,82.54.1m0,1.87A6.5,6.5,0,0,0,77,4.73a12.35,12.35,0,0,0-2,7.49,12.38,12.38,0,0,0,2.06,7.5,6.51,6.51,0,0,0,5.49,2.78A6.42,6.42,0,0,0,88,19.71,12.39,12.39,0,0,0,90,12.22,12.28,12.28,0,0,0,88,4.75,6.41,6.41,0,0,0,82.54,2"/><path class="cls-4" d="M82.54.1a10.87,10.87,0,0,1,4.1.76,10.57,10.57,0,0,1,3.47,2.27,11.17,11.17,0,0,1,2.64,4,13.85,13.85,0,0,1,.9,5.09,14.94,14.94,0,0,1-.43,3.61A12.63,12.63,0,0,1,91.9,19,10.43,10.43,0,0,1,88,22.93a10.78,10.78,0,0,1-5.43,1.41,11.24,11.24,0,0,1-4.15-.76A10.28,10.28,0,0,1,75,21.38a11.06,11.06,0,0,1-2.65-4,14.12,14.12,0,0,1-.9-5.14,13.92,13.92,0,0,1,.9-5.11,10.94,10.94,0,0,1,2.61-4A10.65,10.65,0,0,1,78.39.87,11,11,0,0,1,82.54.1Zm0,1.87A6.5,6.5,0,0,0,77,4.73a12.35,12.35,0,0,0-2,7.49,12.38,12.38,0,0,0,2.06,7.5,6.51,6.51,0,0,0,5.49,2.78A6.42,6.42,0,0,0,88,19.71,12.39,12.39,0,0,0,90,12.22,12.28,12.28,0,0,0,88,4.75,6.41,6.41,0,0,0,82.54,2Z"/><path class="cls-3" d="M98.73,23.09V17h2l.41,3.95.45.59a6.52,6.52,0,0,0,1.73.59,10.83,10.83,0,0,0,2.12.2,5.89,5.89,0,0,0,3.8-1.12,3.64,3.64,0,0,0,1.41-3q0-2.64-5-4.74l-.82-.36a13.69,13.69,0,0,1-4.67-2.84A5.07,5.07,0,0,1,99.1,6.87a5.94,5.94,0,0,1,2.17-4.78A8.74,8.74,0,0,1,107.05.27a17.82,17.82,0,0,1,2.9.24,19.71,19.71,0,0,1,3,.74V6.57h-1.8l-.51-3.28-.51-.56a4.94,4.94,0,0,0-1.43-.55A7.34,7.34,0,0,0,107,2a4.94,4.94,0,0,0-3.41,1.12,3.83,3.83,0,0,0-1.26,3,3.22,3.22,0,0,0,.88,2.32,13.25,13.25,0,0,0,3.94,2.2c.19.08.47.2.86.34a13.11,13.11,0,0,1,4.34,2.49,4.88,4.88,0,0,1,1.13,1.69,5.71,5.71,0,0,1,.38,2.09,6.07,6.07,0,0,1-2.44,5,10.2,10.2,0,0,1-6.47,1.9,19.22,19.22,0,0,1-3.39-.28,12.25,12.25,0,0,1-2.81-.83"/><path class="cls-4" d="M98.73,23.09V17h2l.41,3.95.45.59a6.52,6.52,0,0,0,1.73.59,10.83,10.83,0,0,0,2.12.2,5.89,5.89,0,0,0,3.8-1.12,3.64,3.64,0,0,0,1.41-3q0-2.64-5-4.74l-.82-.36a13.69,13.69,0,0,1-4.67-2.84A5.07,5.07,0,0,1,99.1,6.87a5.94,5.94,0,0,1,2.17-4.78A8.74,8.74,0,0,1,107.05.27a17.82,17.82,0,0,1,2.9.24,19.71,19.71,0,0,1,3,.74V6.57h-1.8l-.51-3.28-.51-.56a4.94,4.94,0,0,0-1.43-.55A7.34,7.34,0,0,0,107,2a4.94,4.94,0,0,0-3.41,1.12,3.83,3.83,0,0,0-1.26,3,3.22,3.22,0,0,0,.88,2.32,13.25,13.25,0,0,0,3.94,2.2c.19.08.47.2.86.34a13.11,13.11,0,0,1,4.34,2.49,4.88,4.88,0,0,1,1.13,1.69,5.71,5.71,0,0,1,.38,2.09,6.07,6.07,0,0,1-2.44,5,10.2,10.2,0,0,1-6.47,1.9,19.22,19.22,0,0,1-3.39-.28A12.25,12.25,0,0,1,98.73,23.09Z"/><path class="cls-3" d="M129.15.4h2.27L139.67,22l2.07.42v1.41h-7.82V22.37l2.14-.17.25-.48-2.49-6.58h-8.11l-2.46,6.58.35.48,2.24.17v1.41H119.1V22.37l2-.42ZM129.69,4l-3.4,9.54h6.94Z"/><path class="cls-4" d="M129.15.4h2.27L139.67,22l2.07.42v1.41h-7.82V22.37l2.14-.17.25-.48-2.49-6.58h-8.11l-2.46,6.58.35.48,2.24.17v1.41H119.1V22.37l2-.42ZM129.69,4l-3.4,9.54h6.94Z"/><path class="cls-3" d="M154.56.69q6.06,0,9.38,3c2.22,2,3.34,4.86,3.34,8.52a13,13,0,0,1-1.09,5.44,10.27,10.27,0,0,1-3.22,4,9.72,9.72,0,0,1-3.41,1.64,20.51,20.51,0,0,1-5,.49h-8.48V22.37L148,22.2l.58-.48v-19L148,2.27l-1.95-.2V.69Zm-2.85,1.58V22.2h2.72c3.14,0,5.48-.83,7-2.47s2.32-4.16,2.32-7.51-.77-5.85-2.31-7.49-3.89-2.46-7-2.46Z"/><path class="cls-4" d="M154.56.69q6.06,0,9.38,3c2.22,2,3.34,4.86,3.34,8.52a13,13,0,0,1-1.09,5.44,10.27,10.27,0,0,1-3.22,4,9.72,9.72,0,0,1-3.41,1.64,20.51,20.51,0,0,1-5,.49h-8.48V22.37L148,22.2l.58-.48v-19L148,2.27l-1.95-.2V.69Zm-2.85,1.58V22.2h2.72c3.14,0,5.48-.83,7-2.47s2.32-4.16,2.32-7.51-.77-5.85-2.31-7.49-3.89-2.46-7-2.46Z"/><path class="cls-3" d="M182,.1a10.84,10.84,0,0,1,4.1.76,10.47,10.47,0,0,1,3.47,2.27,11.2,11.2,0,0,1,2.65,4,14.05,14.05,0,0,1,.89,5.09,14.46,14.46,0,0,1-.43,3.61,12.28,12.28,0,0,1-1.32,3.2,10.36,10.36,0,0,1-3.93,3.9A10.73,10.73,0,0,1,182,24.34a11.23,11.23,0,0,1-4.14-.76,10.32,10.32,0,0,1-3.44-2.2,11.17,11.17,0,0,1-2.64-4,14.12,14.12,0,0,1-.9-5.14,14.13,14.13,0,0,1,.89-5.11,11,11,0,0,1,2.62-4A10.55,10.55,0,0,1,177.81.87,10.89,10.89,0,0,1,182,.1M182,2a6.5,6.5,0,0,0-5.5,2.76,12.35,12.35,0,0,0-2,7.49,12.38,12.38,0,0,0,2.06,7.5,6.75,6.75,0,0,0,10.93,0,12.38,12.38,0,0,0,2-7.49,12.28,12.28,0,0,0-2-7.47A6.43,6.43,0,0,0,182,2"/><path class="cls-4" d="M182,.1a10.84,10.84,0,0,1,4.1.76,10.47,10.47,0,0,1,3.47,2.27,11.2,11.2,0,0,1,2.65,4,14.05,14.05,0,0,1,.89,5.09,14.46,14.46,0,0,1-.43,3.61,12.28,12.28,0,0,1-1.32,3.2,10.36,10.36,0,0,1-3.93,3.9A10.73,10.73,0,0,1,182,24.34a11.23,11.23,0,0,1-4.14-.76,10.32,10.32,0,0,1-3.44-2.2,11.17,11.17,0,0,1-2.64-4,14.12,14.12,0,0,1-.9-5.14,14.13,14.13,0,0,1,.89-5.11,11,11,0,0,1,2.62-4A10.55,10.55,0,0,1,177.81.87,10.89,10.89,0,0,1,182,.1ZM182,2a6.5,6.5,0,0,0-5.5,2.76,12.35,12.35,0,0,0-2,7.49,12.38,12.38,0,0,0,2.06,7.5,6.75,6.75,0,0,0,10.93,0,12.38,12.38,0,0,0,2-7.49,12.28,12.28,0,0,0-2-7.47A6.43,6.43,0,0,0,182,2Z"/></g></g></svg>