<svg xmlns="http://www.w3.org/2000/svg" viewBox="0 0 194.62 46.96"><defs><style>.cls-1,.cls-3{fill:#beb8a6;}.cls-1,.cls-2{fill-rule:evenodd;}.cls-2{fill:#6e0000;}.cls-4{fill:#fdfefe;}.cls-5{fill:#6e0105;}.cls-6{fill:none;stroke:#6e0105;stroke-miterlimit:10;stroke-width:0.2px;}</style></defs><g id="Layer_2" data-name="Layer 2"><g id="Ñëîé_1" data-name="Ñëîé 1"><path class="cls-1" d="M50.53,33.1a3.71,3.71,0,0,0-.81.09.75.75,0,0,0-.43.29,1.25,1.25,0,0,0-.15.27.73.73,0,0,0-.09.22.48.48,0,0,1-.09.19.24.24,0,0,1-.2.09.21.21,0,0,1-.21-.13.52.52,0,0,1,0-.24,5.58,5.58,0,0,1,.09-.62c0-.14,0-.29.08-.43l.41,0,1.44,0Zm7.56-1.16.26,0,.17,0,.27,0A.2.2,0,0,1,59,32a1,1,0,0,1,0,.28c0,.15,0,.46,0,.8s0,.75,0,1v0a.65.65,0,0,1,0,.22.22.22,0,0,1-.2.13.24.24,0,0,1-.24-.13,1,1,0,0,1-.05-.29l0-.16a.62.62,0,0,0-.39-.5l0-.17v-.07c0-.27,0-.57,0-.87Zm-1.93,1.12L55,33v6.12c0,.7,0,1.36,0,1.9,0,.18,0,.35,0,.5h0l-.27,0h-.14l-.42,0,0-.14c0-.16,0-.34,0-.55s0-.46,0-.72,0-1.11,0-1.89V32.77l1.1,0a3.37,3.37,0,0,1,.6.06,1.29,1.29,0,0,1,.37.1l.06,0Zm-.7,10h.06l.4,0,.36,0a.47.47,0,0,1,.23,0,.21.21,0,0,1,.13.2.24.24,0,0,1-.14.22.54.54,0,0,1-.27.06c-.6,0-1.2,0-1.67,0l-.72,0-.71,0-1.2,0a.7.7,0,0,1-.28,0,.24.24,0,0,1-.15-.23v0H53l.81,0h.87a1.45,1.45,0,0,0,.3,0,1,1,0,0,0,.29-.1,1,1,0,0,0,.24-.17m70.39-2.23,0,0,0,0Zm12.94-4.77-.37,1h.72ZM70.45,32l.3,0,.25,0,.08,0a.65.65,0,0,1,.19,0c.18,0,.22.12.22.26a1.55,1.55,0,0,1,0,.17,7.21,7.21,0,0,0-.1.83l0,.32a5,5,0,0,1-.06.69h0a.35.35,0,0,1-.06.16.24.24,0,0,1-.21.1.22.22,0,0,1-.21-.11.48.48,0,0,1,0-.22,1.74,1.74,0,0,0,0-.29.73.73,0,0,0-.06-.21.55.55,0,0,0-.21-.29l-.1,0q0-.12,0-.3l0-.73Zm-2,1h-.85c0,.73,0,1.51,0,2.28h-.9V32.71l.66,0h.49l.22,0,.33.05,0,0V33Zm1.73,3.86a.92.92,0,0,0,.26,0,.4.4,0,0,0,.22-.12l0,0c.11-.13.19-.22.31-.22a.2.2,0,0,1,.16.07.21.21,0,0,1,.07.18s0,.09,0,.17-.06.43-.1,1l0,.51c0,.23,0,.44,0,.5a.86.86,0,0,1,0,.22.24.24,0,0,1-.24.19.25.25,0,0,1-.2-.09.27.27,0,0,1-.06-.17v-.13a2.78,2.78,0,0,0,0-.39.55.55,0,0,0-.19-.32.83.83,0,0,0-.16-.09h0a1.09,1.09,0,0,0,0-.17c0-.06,0-.25,0-.45l0-.51Zm-1.94,1.06h-.64v1.86c0,.4,0,.88,0,1.25A5.51,5.51,0,0,1,67,41a.87.87,0,0,1-.25-.06s0,0,0,0a2,2,0,0,1,0-.4c0-.3,0-1.05,0-1.65V37.64h1.37l.17,0c0,.07,0,.14,0,.22m2.43,4.57h0a.86.86,0,0,0,.4-.35,2,2,0,0,0,.22-.69.9.9,0,0,1,.07-.23.25.25,0,0,1,.22-.1c.24,0,.24.18.24.4s0,.52-.07.87a8.07,8.07,0,0,1-.13.84c-.13.49-.29.49-.94.49-.89,0-1.6,0-2.19,0h-.45l-.86,0H66.14l-.51,0h-.56l-.49,0a.7.7,0,0,1-.28,0,.24.24,0,0,1-.15-.23v0h1.43l1.37,0c.62,0,1.38,0,2.15,0a2.25,2.25,0,0,0,1-.13,1.11,1.11,0,0,0,.56-.82m14.4,1.25-.21,0a8.1,8.1,0,0,1-1.28.11,7.57,7.57,0,0,1-2.16-.3l.57,0a5.22,5.22,0,0,0,.67,0,6.57,6.57,0,0,0,.71-.09l.57-.11.34-.09ZM88.2,33.32v0a5.65,5.65,0,0,1,1.72,4.27,6.06,6.06,0,0,1-.7,2.85A6.25,6.25,0,0,1,88.05,42l-1-.54.5-.56a7.61,7.61,0,0,0,.73-1.11,6.94,6.94,0,0,0,.58-1.53,6.64,6.64,0,0,0,.2-1.64,6.74,6.74,0,0,0-.81-3.33m9.45,12.47.36-.06a7.33,7.33,0,0,0,1.4-.39l.08,0a.49.49,0,0,1,.19-.05.27.27,0,0,1,.18.07.26.26,0,0,1,.08.19.31.31,0,0,1-.09.2l-.17.09a11.92,11.92,0,0,1-1.94.74,11,11,0,0,1-2.93.41,10,10,0,0,1-2.62-.32c.33,0,.67,0,1,0a11,11,0,0,0,1.67-.13,9.58,9.58,0,0,0,1.44-.31c.43-.12.83-.26,1.17-.39ZM83,32.71a3.24,3.24,0,0,0-2.41,1.21,5.54,5.54,0,0,0-.95,3.46,6.69,6.69,0,0,0,.67,3.06,3.94,3.94,0,0,1-.5-.5A4.54,4.54,0,0,1,79,38.41a7.45,7.45,0,0,1-.07-3.78,3.46,3.46,0,0,1,.59-1.25,2.44,2.44,0,0,1,.92-.72,3.12,3.12,0,0,1,2.56.05M98.52,32h.81a1.07,1.07,0,0,1,.29,0,.24.24,0,0,1,0,.44.53.53,0,0,1-.23,0h-.2l-.22,0a.45.45,0,0,0-.34.2,1.21,1.21,0,0,0-.12.55c0,.48,0,.91,0,3.22V38.6A7.66,7.66,0,0,0,98.8,41a2,2,0,0,1-.32-.22,1.87,1.87,0,0,1-.36-.38,2.26,2.26,0,0,1-.27-.54,4.28,4.28,0,0,1-.19-.89,9.74,9.74,0,0,1-.07-1.31V33.22c0-.44,0-.66,0-.89v-.14l.2,0,.26,0a1.07,1.07,0,0,0,.27-.09l.17-.11M106,32a.72.72,0,0,1-.21.12,1.12,1.12,0,0,1-.26.08l-.27,0-.19,0v.14c0,.23,0,.45,0,.89v3.92c0,.44,0,.89,0,1.35a8.83,8.83,0,0,1-.22,1.35,5.66,5.66,0,0,1-.52,1.33,4.28,4.28,0,0,1-.94,1.15,5.09,5.09,0,0,1-1,.66,4.84,4.84,0,0,1-1,.39,5.28,5.28,0,0,1-.91.19,6.48,6.48,0,0,1-.86,0h-.5a4.67,4.67,0,0,0,.5.14,7.08,7.08,0,0,0,1.6.15,5.25,5.25,0,0,0,1.58-.21,4.43,4.43,0,0,0,1.66-.91,4.07,4.07,0,0,0,1.24-2.13,10.24,10.24,0,0,0,.25-2.54V36.47c0-2.31,0-2.74,0-3.22a1.21,1.21,0,0,1,.12-.55.44.44,0,0,1,.34-.2l.22,0h.2a.65.65,0,0,0,.26,0,.22.22,0,0,0,.14-.22c0-.2-.15-.25-.45-.25H106m10,0h.83a1,1,0,0,1,.27,0,.21.21,0,0,1,.17.21.25.25,0,0,1-.13.23.55.55,0,0,1-.24,0h-.2l-.23,0a.44.44,0,0,0-.34.2,1.09,1.09,0,0,0-.12.55c0,.48,0,.91,0,3.22v2.68c0,.74,0,1.42,0,2,0,.15,0,.3,0,.43h0l-.27,0h-.14l-.44,0v0a4.16,4.16,0,0,1,0-.54l0-.74c0-.33,0-1.11,0-2v-5c0-.44,0-.66,0-.89v-.14h.21l.28,0a1,1,0,0,0,.28-.11A.42.42,0,0,0,116,32m.48,11.14h.06l.4,0,.36,0a.47.47,0,0,1,.23,0,.21.21,0,0,1,.13.2.24.24,0,0,1-.14.22.54.54,0,0,1-.27.06c-.6,0-1.2,0-1.67,0h-.7l-.71,0-1.21,0a.74.74,0,0,1-.28,0,.24.24,0,0,1-.14-.23v0h1.37l.87,0h.87a1.55,1.55,0,0,0,.31,0,1.09,1.09,0,0,0,.52-.27m10.29-9.84c0,.48,0,.91,0,3.22v2.68c0,.74,0,1.35,0,1.84l-.27,0a3.47,3.47,0,0,1-.42,0l-.16,0,0,0h0a3.36,3.36,0,0,1-.05-.46c0-.5,0-1.24,0-2.2v-5c0-.44,0-.66,0-.89v-.14l.23,0h.12l.26,0a1.2,1.2,0,0,0,.27-.08.72.72,0,0,0,.21-.12h.81c.29,0,.44,0,.44.25a.22.22,0,0,1-.14.22.6.6,0,0,1-.25,0l-.31,0a1.18,1.18,0,0,0-.27,0,.47.47,0,0,0-.34.2,1.36,1.36,0,0,0-.12.55m3.41,9.2a.86.86,0,0,0,.29-.21,1.66,1.66,0,0,0,.23-.38,1.54,1.54,0,0,0,.13-.46.64.64,0,0,1,.06-.22.25.25,0,0,1,.23-.12.19.19,0,0,1,.21.14.55.55,0,0,1,0,.24c0,.1-.05.57-.1,1a6.62,6.62,0,0,1-.14.76.52.52,0,0,1-.28.41,2,2,0,0,1-.79.09c-.82,0-1.48,0-2.05,0h-.53l-1,0h-1.26l-.51,0h-.55l-.49,0a.7.7,0,0,1-.28,0,.24.24,0,0,1-.15-.23v0h.4c.91,0,1.81,0,2.71,0,.62,0,1.34,0,2.06,0a5.21,5.21,0,0,0,.6,0,1.35,1.35,0,0,0,.48-.13,1.06,1.06,0,0,0,.45-.37,1.59,1.59,0,0,0,.19-.46m10-2.74h-1.46s0,0,0,0c-.3.73-.57,1.49-.85,2.23l-.1.28a.49.49,0,0,0-.08-.21.9.9,0,0,0-.63-.45,1.09,1.09,0,0,0-.26,0l0-.1c.24-.67.5-1.33.75-2H140Zm-2.51,3.22a.33.33,0,0,0,.07.13.62.62,0,0,0,.4.1h.23a.49.49,0,0,1,.24,0,.21.21,0,0,1,.11.2.24.24,0,0,1-.13.23.49.49,0,0,1-.25,0l-.82,0-.79,0h-.33c-.36,0-.93,0-1.47,0a.54.54,0,0,1-.27,0,.23.23,0,0,1-.14-.23v0h.6l.76,0h0l.83,0a1.32,1.32,0,0,0,.28,0,1,1,0,0,0,.28-.1.91.91,0,0,0,.37-.33Zm3-11.27a.28.28,0,0,1,.18-.06.36.36,0,0,1,.29.16,2.09,2.09,0,0,1,.2.4c.16.36.7,1.72,1.35,3.34.85,2.13,1.88,4.7,2.43,6h0l-.18,0-.07,0-.12-.1a2.27,2.27,0,0,1-.26-.37,5,5,0,0,1-.35-.7c-.26-.63-.66-1.6-1.1-2.69s-.86-2.39-1.32-3.32l-1.05-2.62M146.12,43a.89.89,0,0,0,.19.07,1.35,1.35,0,0,0,.29,0l.31,0a.6.6,0,0,1,.2,0,.21.21,0,0,1,.12.21c0,.13-.06.2-.23.24a2.69,2.69,0,0,1-.59,0h-1.19l-1.69,0h-.07c-.3,0-.5,0-.5-.24v0h2.26a1.32,1.32,0,0,0,.32,0,.94.94,0,0,0,.58-.31"/><path class="cls-2" d="M51.14,41.41c.07-.63.07-1.83.07-3.22V32.08l-2.14.05a4,4,0,0,0-1,.11.7.7,0,0,0-.43.28l-.15.27a1.13,1.13,0,0,0-.09.22.68.68,0,0,1-.08.19.27.27,0,0,1-.2.09.21.21,0,0,1-.22-.13.52.52,0,0,1,0-.24A5.58,5.58,0,0,1,47,32.3c.09-.48.21-1.07.23-1.15a1,1,0,0,1,.09-.26.24.24,0,0,1,.21-.13.51.51,0,0,1,.22.07,1.33,1.33,0,0,0,.45.12l.74.05c.25,0,.52,0,.77,0h6a7.47,7.47,0,0,0,1-.07l.16,0,.27,0a.2.2,0,0,1,.21.16.75.75,0,0,1,0,.28c0,.15,0,.47,0,.8s0,.75,0,1h0a.48.48,0,0,1-.05.22.22.22,0,0,1-.2.13.25.25,0,0,1-.24-.13,1,1,0,0,1,0-.29l0-.16a.65.65,0,0,0-.43-.52,3.15,3.15,0,0,0-1.24-.22l-1.79,0v8c0,.55,0,1,.07,1.34a1.23,1.23,0,0,0,.13.5.45.45,0,0,0,.36.21l.4,0,.36,0a.63.63,0,0,1,.23,0,.22.22,0,0,1,.13.2.23.23,0,0,1-.14.22.54.54,0,0,1-.27.06c-.6,0-1.19,0-1.66,0l-.72,0-.72,0-1.2,0a.7.7,0,0,1-.28,0,.24.24,0,0,1-.15-.23.21.21,0,0,1,.12-.19.55.55,0,0,1,.25,0l.29,0,.23,0a.31.31,0,0,0,.23-.2,2.19,2.19,0,0,0,.12-.53m12.65,0c.07-.63.07-1.83.07-3.22v-5c0-.45,0-.67,0-.92a1,1,0,0,0-.12-.52.62.62,0,0,0-.43-.23h0l-.22,0-.34,0a.62.62,0,0,1-.25,0,.21.21,0,0,1-.13-.21.22.22,0,0,1,.16-.23,1.12,1.12,0,0,1,.29,0c.47,0,.93,0,1.39,0l.8,0h3.8l.38-.05.25,0,.09,0a1.16,1.16,0,0,1,.18,0c.18,0,.22.12.22.26a.61.61,0,0,1,0,.17,7.21,7.21,0,0,0-.1.83l0,.32c0,.25,0,.57,0,.7h0a.49.49,0,0,1-.05.16.27.27,0,0,1-.22.1.22.22,0,0,1-.21-.11.48.48,0,0,1,0-.22,2,2,0,0,0,0-.29.73.73,0,0,0-.06-.21.55.55,0,0,0-.21-.29,1.81,1.81,0,0,0-.71-.18l-.77,0L66,32c0,1.27,0,2.65,0,3.92h1.2l1.21,0a3.17,3.17,0,0,0,.43-.06.43.43,0,0,0,.22-.13l0,0c.12-.13.19-.22.31-.22a.22.22,0,0,1,.17.07.24.24,0,0,1,.06.18.62.62,0,0,1,0,.17c0,.16-.06.44-.1,1l0,.51c0,.23,0,.44,0,.5a.86.86,0,0,1,0,.22.23.23,0,0,1-.24.19.25.25,0,0,1-.26-.26v-.13a2.72,2.72,0,0,0,0-.39.63.63,0,0,0-.2-.32,1.11,1.11,0,0,0-.55-.18l-.74,0L66,37v1.86c0,.62,0,1.42,0,1.73,0,.48.08.78.3.94a2.61,2.61,0,0,0,1.41.22c.19,0,.45,0,.7,0a2.62,2.62,0,0,0,.68-.15.83.83,0,0,0,.39-.35,2,2,0,0,0,.22-.69.71.71,0,0,1,.07-.22.24.24,0,0,1,.22-.11c.24,0,.24.18.24.4s0,.53-.07.87a8.07,8.07,0,0,1-.13.84c-.13.49-.29.49-.94.49-.89,0-1.6,0-2.18,0h-.45l-.87,0H64.54l-.51,0h-.55l-.5,0a.74.74,0,0,1-.28,0,.24.24,0,0,1-.14-.23.2.2,0,0,1,.11-.19.55.55,0,0,1,.25,0l.29,0,.23,0a.31.31,0,0,0,.23-.2,2.19,2.19,0,0,0,.12-.53M90,45.51a16.91,16.91,0,0,1-3.32-1.59l-2.34-1.37a6.56,6.56,0,0,1-1.1.27,8,8,0,0,1-1.27.11,6.21,6.21,0,0,1-4.51-1.66,6.32,6.32,0,0,1-1.81-4.5,6.14,6.14,0,0,1,1.89-4.37,6.26,6.26,0,0,1,4.47-1.64,6.54,6.54,0,0,1,4.56,1.62,5.67,5.67,0,0,1,1.72,4.27,6.06,6.06,0,0,1-.7,2.85,6.4,6.4,0,0,1-1.83,2.14l2.88,1.47a17.07,17.07,0,0,0,3.92,1.51,9.4,9.4,0,0,0,2.29.29,9,9,0,0,0,1.53-.14,7.44,7.44,0,0,0,1.39-.39l.09,0a.41.41,0,0,1,.18-.05.27.27,0,0,1,.18.07.27.27,0,0,1,.08.19.29.29,0,0,1-.09.2l-.17.09a11.92,11.92,0,0,1-1.94.74,11,11,0,0,1-2.93.41A9.66,9.66,0,0,1,90,45.51M79.3,40.37a4.19,4.19,0,0,0,3.27,1.56,3,3,0,0,0,2.13-.79c.7-.67,1.26-1.89,1.26-4.08a5.93,5.93,0,0,0-1.17-3.79,4,4,0,0,0-3.09-1.53A3.31,3.31,0,0,0,79,33a5.54,5.54,0,0,0-1,3.46,6.13,6.13,0,0,0,1.25,3.95m15.81,0a3.69,3.69,0,0,0,1,1.5,4.09,4.09,0,0,0,1.86.93,7.13,7.13,0,0,0,1.6.15,5.21,5.21,0,0,0,1.58-.21,4.43,4.43,0,0,0,1.66-.91,4,4,0,0,0,1.24-2.13,10.24,10.24,0,0,0,.25-2.54V35.51c0-2.31,0-2.74,0-3.22a1.25,1.25,0,0,1,.12-.55.45.45,0,0,1,.34-.2l.22,0h.2a.65.65,0,0,0,.26,0,.22.22,0,0,0,.14-.21c0-.21-.15-.26-.44-.26l-1.3,0h-.48c-.2,0-1,0-1.71,0a1,1,0,0,0-.28,0,.23.23,0,0,0-.16.23.22.22,0,0,0,.14.21.55.55,0,0,0,.24,0l.31,0,.21,0h0a.62.62,0,0,1,.43.23,1,1,0,0,1,.12.52c0,.25,0,.47,0,.92v4.2a12.94,12.94,0,0,1-.12,2.14,2.8,2.8,0,0,1-.72,1.55,2.63,2.63,0,0,1-.9.57,3,3,0,0,1-1.12.21,3,3,0,0,1-.85-.1,2.62,2.62,0,0,1-1.8-1.71,7.45,7.45,0,0,1-.31-2.43V35.51c0-2.31,0-2.74,0-3.22a1.25,1.25,0,0,1,.12-.55.45.45,0,0,1,.34-.2l.22,0h.2a.5.5,0,0,0,.23,0,.22.22,0,0,0,.14-.21A.23.23,0,0,0,98,31a1.15,1.15,0,0,0-.3,0l-1.11,0-.76,0-.81,0-1.41,0a1.15,1.15,0,0,0-.3,0,.23.23,0,0,0-.16.23.22.22,0,0,0,.14.21.55.55,0,0,0,.24,0l.35,0,.22,0h0a.6.6,0,0,1,.43.23,1.06,1.06,0,0,1,.13.52c0,.25,0,.47,0,.92v4.52a7.62,7.62,0,0,0,.39,2.62m17,1.14c.08-.64.08-1.83.08-3.3v-5c0-.45,0-.67,0-.92a1.28,1.28,0,0,0-.13-.53.42.42,0,0,0-.3-.21h0l-.23,0-.29,0a.53.53,0,0,1-.23,0,.24.24,0,0,1-.13-.23c0-.11.06-.17.18-.21a1.19,1.19,0,0,1,.31,0l1.11,0,.86,0,.75,0,1.11,0a1,1,0,0,1,.27,0,.21.21,0,0,1,.17.21.25.25,0,0,1-.13.23.55.55,0,0,1-.24,0h-.2l-.23,0a.44.44,0,0,0-.34.2,1.12,1.12,0,0,0-.12.55c0,.48,0,.91,0,3.22v4.65c0,.56,0,1,.06,1.34a.92.92,0,0,0,.13.45.51.51,0,0,0,.37.19l.4,0,.36,0a.63.63,0,0,1,.23,0,.23.23,0,0,1,.14.2.24.24,0,0,1-.15.22.54.54,0,0,1-.27.06c-.6,0-1.2,0-1.67,0l-.7,0-.71,0-1.2,0a.7.7,0,0,1-.28,0,.24.24,0,0,1-.15-.23.2.2,0,0,1,.11-.19.57.57,0,0,1,.26,0l.29,0,.23,0A.31.31,0,0,0,112,42a1.36,1.36,0,0,0,.11-.48m13-9.2c0,.48,0,.91,0,3.22v2.68c0,1,0,1.71,0,2.25s.11.81.24.92a1,1,0,0,0,.52.23,7.13,7.13,0,0,0,1.24.08,6.27,6.27,0,0,0,1-.06,1.16,1.16,0,0,0,.66-.33,1.37,1.37,0,0,0,.23-.38,1.54,1.54,0,0,0,.13-.46.48.48,0,0,1,.07-.22.22.22,0,0,1,.22-.12.21.21,0,0,1,.22.14.78.78,0,0,1,0,.24c0,.11,0,.57-.1,1a6.62,6.62,0,0,1-.14.76c-.05.2-.1.33-.28.41a2,2,0,0,1-.79.09c-.82,0-1.48,0-2,0h-.52l-.95,0h-1.26l-.51,0h-.56l-.49,0a.7.7,0,0,1-.28,0,.24.24,0,0,1-.15-.23.19.19,0,0,1,.12-.19.49.49,0,0,1,.25,0l.29,0,.23,0a.28.28,0,0,0,.22-.2,2.19,2.19,0,0,0,.12-.53c.08-.63.08-1.83.08-3.22v-5c0-.45,0-.67,0-.92a1,1,0,0,0-.13-.52.6.6,0,0,0-.43-.23h0l-.2,0-.28,0a.55.55,0,0,1-.24,0,.22.22,0,0,1-.14-.21.23.23,0,0,1,.16-.23,1.15,1.15,0,0,1,.3,0l1.31,0,.77,0,.81,0,1.26,0c.3,0,.44.05.44.26a.2.2,0,0,1-.14.21.6.6,0,0,1-.25,0l-.3,0a1.2,1.2,0,0,0-.28,0,.47.47,0,0,0-.34.2,1.41,1.41,0,0,0-.12.55m15.36,6.46h-3.42c-.3.73-.56,1.49-.84,2.23a2.78,2.78,0,0,0-.16.49,1.77,1.77,0,0,0-.06.39.34.34,0,0,0,.08.25.62.62,0,0,0,.4.1h.23a.49.49,0,0,1,.24,0,.21.21,0,0,1,.11.2.22.22,0,0,1-.13.23.47.47,0,0,1-.25,0l-.82,0-.79,0h-.33c-.36,0-.93,0-1.47,0a.54.54,0,0,1-.27,0,.23.23,0,0,1-.14-.23.2.2,0,0,1,.11-.19.31.31,0,0,1,.2,0h.22l.23,0a1.07,1.07,0,0,0,.72-.39,3.27,3.27,0,0,0,.48-.9l3.82-9.55a3.08,3.08,0,0,1,.23-.5.34.34,0,0,1,.59,0,2.76,2.76,0,0,1,.21.4c.15.36.7,1.72,1.34,3.34.85,2.13,1.88,4.7,2.43,6a4.3,4.3,0,0,0,.74,1.27,1,1,0,0,0,.52.32,1.35,1.35,0,0,0,.29,0,1.72,1.72,0,0,0,.31,0,.56.56,0,0,1,.2,0,.21.21,0,0,1,.12.21c0,.13-.06.21-.23.24a2.69,2.69,0,0,1-.59,0h-1.19l-1.69,0h-.06c-.31,0-.51,0-.51-.24a.21.21,0,0,1,.11-.2.48.48,0,0,1,.2-.05h0s0,0,.05,0a.16.16,0,0,0,0-.1l-1.23-3.25Zm-1.69-4.61-1.35,3.6h2.66Z"/><path class="cls-3" d="M1.66,1.72h8.77c2.82,0,4.9.5,6.26,1.51a5.47,5.47,0,0,1,2,4.66,5.07,5.07,0,0,1-1.39,3.67,8,8,0,0,1-4.17,2,8.24,8.24,0,0,1,2.17.92,4.32,4.32,0,0,1,1.38,1.41,9.1,9.1,0,0,1,1,2.72A18.47,18.47,0,0,0,18.32,21,3.43,3.43,0,0,0,19.75,23a6.54,6.54,0,0,0,3,.52h.3v1.31c-.51.1-1,.17-1.43.22a10.88,10.88,0,0,1-1.24.08,7.11,7.11,0,0,1-2-.25,3.78,3.78,0,0,1-1.44-.74,8.49,8.49,0,0,1-2-4.21q-.3-1.12-.48-1.68a5.49,5.49,0,0,0-1.86-2.91A6.35,6.35,0,0,0,9,14.49c-.33,0-.87,0-1.61,0l-.12,0v8.18l.59.49,2,.17v1.41H1.66V23.4l2-.17.59-.49v-19l-.59-.49-1.95-.2ZM7.29,3.29v9.58l1,0h.91a7.72,7.72,0,0,0,4.65-1.12,4.29,4.29,0,0,0,1.45-3.62A4.44,4.44,0,0,0,13.8,4.45,8,8,0,0,0,9,3.29Z"/><path class="cls-3" d="M1.66,1.72h8.77c2.82,0,4.9.5,6.26,1.51a5.47,5.47,0,0,1,2,4.66,5.07,5.07,0,0,1-1.39,3.67,8,8,0,0,1-4.17,2,8.24,8.24,0,0,1,2.17.92,4.32,4.32,0,0,1,1.38,1.41,9.1,9.1,0,0,1,1,2.72A18.47,18.47,0,0,0,18.32,21,3.43,3.43,0,0,0,19.75,23a6.54,6.54,0,0,0,3,.52h.3v1.31c-.51.1-1,.17-1.43.22a10.88,10.88,0,0,1-1.24.08,7.11,7.11,0,0,1-2-.25,3.78,3.78,0,0,1-1.44-.74,8.49,8.49,0,0,1-2-4.21q-.3-1.12-.48-1.68a5.49,5.49,0,0,0-1.86-2.91A6.35,6.35,0,0,0,9,14.49c-.33,0-.87,0-1.61,0l-.12,0v8.18l.59.49,2,.17v1.41H1.66V23.4l2-.17.59-.49v-19l-.59-.49-1.95-.2ZM7.29,3.29v9.58l1,0h.91a7.72,7.72,0,0,0,4.65-1.12,4.29,4.29,0,0,0,1.45-3.62A4.44,4.44,0,0,0,13.8,4.45,8,8,0,0,0,9,3.29Z"/><polygon class="cls-3" points="27.46 24.81 27.46 23.4 29.41 23.23 30 22.74 30 3.79 29.41 3.29 27.46 3.1 27.46 1.72 43.95 1.72 43.95 6.74 42.02 6.74 41.53 3.81 41.06 3.29 33.09 3.29 33.09 12 38.74 12 39.23 11.51 39.56 9.01 41.2 9.01 41.2 16.59 39.56 16.59 39.23 14.1 38.74 13.58 33.09 13.58 33.09 23.23 42.32 23.23 42.81 22.67 43.4 19.2 45.18 19.2 45.18 24.81 27.46 24.81"/><polygon class="cls-3" points="27.46 24.81 27.46 23.4 29.41 23.23 30 22.74 30 3.79 29.41 3.29 27.46 3.1 27.46 1.72 43.95 1.72 43.95 6.74 42.02 6.74 41.53 3.81 41.06 3.29 33.09 3.29 33.09 12 38.74 12 39.23 11.51 39.56 9.01 41.2 9.01 41.2 16.59 39.56 16.59 39.23 14.1 38.74 13.58 33.09 13.58 33.09 23.23 42.32 23.23 42.81 22.67 43.4 19.2 45.18 19.2 45.18 24.81 27.46 24.81"/><path class="cls-3" d="M50.86,24.81V23.4l2-.17.59-.49v-19l-.59-.49-2.24-.2V1.72h7.85q5.17,0,7.37,1.63T68,8.74a6.68,6.68,0,0,1-2.41,5.38,9.85,9.85,0,0,1-6.5,2c-.28,0-.62,0-1,0L56.51,16l0,6.77.59.49,2.45.17v1.41Zm5.63-10.5,1.45.14c.34,0,.62,0,.84,0A6.17,6.17,0,0,0,63.26,13,5.8,5.8,0,0,0,64.8,8.65a4.93,4.93,0,0,0-1.6-4,7.56,7.56,0,0,0-4.91-1.32l-1.08,0-.72,0Z"/><path class="cls-3" d="M50.86,24.81V23.4l2-.17.59-.49v-19l-.59-.49-2.24-.2V1.72h7.85q5.17,0,7.37,1.63T68,8.74a6.68,6.68,0,0,1-2.41,5.38,9.85,9.85,0,0,1-6.5,2c-.28,0-.62,0-1,0L56.51,16l0,6.77.59.49,2.45.17v1.41Zm5.63-10.5,1.45.14c.34,0,.62,0,.84,0A6.17,6.17,0,0,0,63.26,13,5.8,5.8,0,0,0,64.8,8.65a4.93,4.93,0,0,0-1.6-4,7.56,7.56,0,0,0-4.91-1.32l-1.08,0-.72,0Z"/><path class="cls-3" d="M84.1,1.13a11.07,11.07,0,0,1,4.1.75,10.59,10.59,0,0,1,3.46,2.27,11.24,11.24,0,0,1,2.65,4,13.9,13.9,0,0,1,.9,5.1,14.51,14.51,0,0,1-.44,3.61,12.19,12.19,0,0,1-1.31,3.19A10.53,10.53,0,0,1,89.53,24a10.77,10.77,0,0,1-5.43,1.4A11.45,11.45,0,0,1,80,24.61a10.31,10.31,0,0,1-3.43-2.21,11,11,0,0,1-2.65-4,14.12,14.12,0,0,1-.9-5.14,14.22,14.22,0,0,1,.89-5.12,11.18,11.18,0,0,1,2.62-4A10.65,10.65,0,0,1,80,1.89a11.17,11.17,0,0,1,4.15-.76M84.1,3a6.49,6.49,0,0,0-5.51,2.77,12.35,12.35,0,0,0-2,7.49,12.36,12.36,0,0,0,2.06,7.49,6.48,6.48,0,0,0,5.49,2.79,6.4,6.4,0,0,0,5.44-2.8,12.35,12.35,0,0,0,2.06-7.48,12.28,12.28,0,0,0-2.06-7.47A6.42,6.42,0,0,0,84.1,3"/><path class="cls-3" d="M84.1,1.13a11.07,11.07,0,0,1,4.1.75,10.59,10.59,0,0,1,3.46,2.27,11.24,11.24,0,0,1,2.65,4,13.9,13.9,0,0,1,.9,5.1,14.51,14.51,0,0,1-.44,3.61,12.19,12.19,0,0,1-1.31,3.19A10.53,10.53,0,0,1,89.53,24a10.77,10.77,0,0,1-5.43,1.4A11.45,11.45,0,0,1,80,24.61a10.31,10.31,0,0,1-3.43-2.21,11,11,0,0,1-2.65-4,14.12,14.12,0,0,1-.9-5.14,14.22,14.22,0,0,1,.89-5.12,11.18,11.18,0,0,1,2.62-4A10.65,10.65,0,0,1,80,1.89,11.17,11.17,0,0,1,84.1,1.13ZM84.1,3a6.49,6.49,0,0,0-5.51,2.77,12.35,12.35,0,0,0-2,7.49,12.36,12.36,0,0,0,2.06,7.49,6.48,6.48,0,0,0,5.49,2.79,6.4,6.4,0,0,0,5.44-2.8,12.35,12.35,0,0,0,2.06-7.48,12.28,12.28,0,0,0-2.06-7.47A6.42,6.42,0,0,0,84.1,3Z"/><path class="cls-3" d="M100.29,24.12V18.07h2l.41,3.95.45.59a6.89,6.89,0,0,0,1.73.59,10.83,10.83,0,0,0,2.12.2,6,6,0,0,0,3.8-1.12,3.66,3.66,0,0,0,1.41-3q0-2.64-4.95-4.74l-.82-.35a13.68,13.68,0,0,1-4.67-2.85,5,5,0,0,1-1.14-3.42,6,6,0,0,1,2.17-4.79,8.74,8.74,0,0,1,5.78-1.82,16.79,16.79,0,0,1,2.9.25,20.93,20.93,0,0,1,3,.73V7.6h-1.8l-.52-3.28-.5-.57a5.24,5.24,0,0,0-1.43-.55A7.47,7.47,0,0,0,108.54,3a5,5,0,0,0-3.41,1.11,3.87,3.87,0,0,0-1.26,3,3.2,3.2,0,0,0,.88,2.31,13.44,13.44,0,0,0,3.94,2.21l.86.34a13,13,0,0,1,4.33,2.48,4.81,4.81,0,0,1,1.14,1.7,5.66,5.66,0,0,1,.38,2.08,6.06,6.06,0,0,1-2.44,5,10.23,10.23,0,0,1-6.47,1.91,18.3,18.3,0,0,1-3.39-.29,12.26,12.26,0,0,1-2.81-.82"/><path class="cls-3" d="M100.29,24.12V18.07h2l.41,3.95.45.59a6.89,6.89,0,0,0,1.73.59,10.83,10.83,0,0,0,2.12.2,6,6,0,0,0,3.8-1.12,3.66,3.66,0,0,0,1.41-3q0-2.64-4.95-4.74l-.82-.35a13.68,13.68,0,0,1-4.67-2.85,5,5,0,0,1-1.14-3.42,6,6,0,0,1,2.17-4.79,8.74,8.74,0,0,1,5.78-1.82,16.79,16.79,0,0,1,2.9.25,20.93,20.93,0,0,1,3,.73V7.6h-1.8l-.52-3.28-.5-.57a5.24,5.24,0,0,0-1.43-.55A7.47,7.47,0,0,0,108.54,3a5,5,0,0,0-3.41,1.11,3.87,3.87,0,0,0-1.26,3,3.2,3.2,0,0,0,.88,2.31,13.44,13.44,0,0,0,3.94,2.21l.86.34a13,13,0,0,1,4.33,2.48,4.81,4.81,0,0,1,1.14,1.7,5.66,5.66,0,0,1,.38,2.08,6.06,6.06,0,0,1-2.44,5,10.23,10.23,0,0,1-6.47,1.91,18.3,18.3,0,0,1-3.39-.29A12.26,12.26,0,0,1,100.29,24.12Z"/><path class="cls-3" d="M130.71,1.43H133L141.23,23l2.07.42v1.41h-7.82V23.4l2.14-.17.25-.49-2.49-6.57h-8.11l-2.46,6.57.35.49,2.24.17v1.41h-6.74V23.4l2-.42ZM131.25,5l-3.4,9.55h6.94Z"/><path class="cls-3" d="M130.71,1.43H133L141.23,23l2.07.42v1.41h-7.82V23.4l2.14-.17.25-.49-2.49-6.57h-8.11l-2.46,6.57.35.49,2.24.17v1.41h-6.74V23.4l2-.42ZM131.25,5l-3.4,9.55h6.94Z"/><path class="cls-3" d="M156.12,1.72q6.06,0,9.38,3c2.22,2,3.34,4.85,3.34,8.52a13,13,0,0,1-1.09,5.43,10.23,10.23,0,0,1-3.22,4,9.87,9.87,0,0,1-3.41,1.63,20.44,20.44,0,0,1-5,.5h-8.49V23.4l2-.17.58-.49v-19l-.58-.49-2-.2V1.72Zm-2.85,1.57V23.23H156c3.14,0,5.48-.83,7-2.48s2.32-4.15,2.32-7.5S164.58,7.4,163,5.76s-3.89-2.47-7-2.47Z"/><path class="cls-3" d="M156.12,1.72q6.06,0,9.38,3c2.22,2,3.34,4.85,3.34,8.52a13,13,0,0,1-1.09,5.43,10.23,10.23,0,0,1-3.22,4,9.87,9.87,0,0,1-3.41,1.63,20.44,20.44,0,0,1-5,.5h-8.49V23.4l2-.17.58-.49v-19l-.58-.49-2-.2V1.72Zm-2.85,1.57V23.23H156c3.14,0,5.48-.83,7-2.48s2.32-4.15,2.32-7.5S164.58,7.4,163,5.76s-3.89-2.47-7-2.47Z"/><path class="cls-3" d="M183.51,1.13a11,11,0,0,1,4.1.75,10.63,10.63,0,0,1,3.47,2.27,11.38,11.38,0,0,1,2.65,4,14.11,14.11,0,0,1,.89,5.1,14.52,14.52,0,0,1-.43,3.61,12.21,12.21,0,0,1-1.32,3.19A10.46,10.46,0,0,1,188.94,24a10.74,10.74,0,0,1-5.43,1.4,11.43,11.43,0,0,1-4.14-.75,10.35,10.35,0,0,1-3.44-2.21,11.13,11.13,0,0,1-2.64-4,14.12,14.12,0,0,1-.9-5.14,14.22,14.22,0,0,1,.89-5.12,11,11,0,0,1,2.62-4,10.55,10.55,0,0,1,3.47-2.26,11.08,11.08,0,0,1,4.14-.76m0,1.86A6.48,6.48,0,0,0,178,5.76a12.35,12.35,0,0,0-2,7.49A12.3,12.3,0,0,0,178,20.74a6.74,6.74,0,0,0,10.93,0,12.35,12.35,0,0,0,2-7.48,12.28,12.28,0,0,0-2-7.47A6.44,6.44,0,0,0,183.51,3"/><path class="cls-3" d="M183.51,1.13a11,11,0,0,1,4.1.75,10.63,10.63,0,0,1,3.47,2.27,11.38,11.38,0,0,1,2.65,4,14.11,14.11,0,0,1,.89,5.1,14.52,14.52,0,0,1-.43,3.61,12.21,12.21,0,0,1-1.32,3.19A10.46,10.46,0,0,1,188.94,24a10.74,10.74,0,0,1-5.43,1.4,11.43,11.43,0,0,1-4.14-.75,10.35,10.35,0,0,1-3.44-2.21,11.13,11.13,0,0,1-2.64-4,14.12,14.12,0,0,1-.9-5.14,14.22,14.22,0,0,1,.89-5.12,11,11,0,0,1,2.62-4,10.55,10.55,0,0,1,3.47-2.26A11.08,11.08,0,0,1,183.51,1.13Zm0,1.86A6.48,6.48,0,0,0,178,5.76a12.35,12.35,0,0,0-2,7.49A12.3,12.3,0,0,0,178,20.74a6.74,6.74,0,0,0,10.93,0,12.35,12.35,0,0,0,2-7.48,12.28,12.28,0,0,0-2-7.47A6.44,6.44,0,0,0,183.51,3Z"/><path class="cls-4" d="M1,1.36H9.72c2.82,0,4.9.51,6.26,1.52a5.43,5.43,0,0,1,2,4.66,5,5,0,0,1-1.39,3.67,8,8,0,0,1-4.17,2,7.92,7.92,0,0,1,2.17.92A4.29,4.29,0,0,1,16,15.57a9.21,9.21,0,0,1,1,2.72,18.78,18.78,0,0,0,.64,2.38A3.47,3.47,0,0,0,19,22.6a6.59,6.59,0,0,0,3,.51h.3v1.31c-.51.1-1,.18-1.43.23a10.88,10.88,0,0,1-1.24.08,7.48,7.48,0,0,1-2-.25,3.66,3.66,0,0,1-1.44-.75,8.58,8.58,0,0,1-2-4.2c-.19-.75-.36-1.31-.48-1.68a5.49,5.49,0,0,0-1.86-2.91,6.26,6.26,0,0,0-3.54-.81c-.33,0-.87,0-1.61,0l-.12,0v8.19l.59.48,2,.17v1.41H1V23l2-.17.59-.48v-19L2.9,2.94,1,2.74ZM6.58,2.94v9.58l1,0h.91a7.65,7.65,0,0,0,4.65-1.12,4.27,4.27,0,0,0,1.45-3.61A4.42,4.42,0,0,0,13.09,4.1,8,8,0,0,0,8.25,2.94Z"/><path class="cls-4" d="M1,1.36H9.72c2.82,0,4.9.51,6.26,1.52a5.43,5.43,0,0,1,2,4.66,5,5,0,0,1-1.39,3.67,8,8,0,0,1-4.17,2,7.92,7.92,0,0,1,2.17.92A4.29,4.29,0,0,1,16,15.57a9.21,9.21,0,0,1,1,2.72,18.78,18.78,0,0,0,.64,2.38A3.47,3.47,0,0,0,19,22.6a6.59,6.59,0,0,0,3,.51h.3v1.31c-.51.1-1,.18-1.43.23a10.88,10.88,0,0,1-1.24.08,7.48,7.48,0,0,1-2-.25,3.66,3.66,0,0,1-1.44-.75,8.58,8.58,0,0,1-2-4.2c-.19-.75-.36-1.31-.48-1.68a5.49,5.49,0,0,0-1.86-2.91,6.26,6.26,0,0,0-3.54-.81c-.33,0-.87,0-1.61,0l-.12,0v8.19l.59.48,2,.17v1.41H1V23l2-.17.59-.48v-19L2.9,2.94,1,2.74ZM6.58,2.94v9.58l1,0h.91a7.65,7.65,0,0,0,4.65-1.12,4.27,4.27,0,0,0,1.45-3.61A4.42,4.42,0,0,0,13.09,4.1,8,8,0,0,0,8.25,2.94Z"/><polygon class="cls-4" points="26.75 24.45 26.75 23.04 28.7 22.88 29.29 22.39 29.29 3.43 28.7 2.94 26.75 2.74 26.75 1.36 43.24 1.36 43.24 6.39 41.31 6.39 40.82 3.46 40.35 2.94 32.38 2.94 32.38 11.65 38.03 11.65 38.52 11.16 38.85 8.66 40.49 8.66 40.49 16.23 38.85 16.23 38.52 13.75 38.03 13.23 32.38 13.23 32.38 22.88 41.61 22.88 42.1 22.32 42.69 18.84 44.47 18.84 44.47 24.45 26.75 24.45"/><polygon class="cls-4" points="26.75 24.45 26.75 23.04 28.7 22.88 29.29 22.39 29.29 3.43 28.7 2.94 26.75 2.74 26.75 1.36 43.24 1.36 43.24 6.39 41.31 6.39 40.82 3.46 40.35 2.94 32.38 2.94 32.38 11.65 38.03 11.65 38.52 11.16 38.85 8.66 40.49 8.66 40.49 16.23 38.85 16.23 38.52 13.75 38.03 13.23 32.38 13.23 32.38 22.88 41.61 22.88 42.1 22.32 42.69 18.84 44.47 18.84 44.47 24.45 26.75 24.45"/><path class="cls-4" d="M50.15,24.45V23l2-.17.59-.48v-19l-.59-.49-2.24-.2V1.36h7.85q5.17,0,7.37,1.63t2.2,5.4a6.63,6.63,0,0,1-2.41,5.37,9.8,9.8,0,0,1-6.5,2c-.28,0-.62,0-1,0l-1.55-.12,0,6.77.59.48,2.45.17v1.41ZM55.78,14l1.45.14c.35,0,.63.05.84.05a6.17,6.17,0,0,0,4.48-1.5A5.8,5.8,0,0,0,64.09,8.3,5,5,0,0,0,62.5,4.25a7.67,7.67,0,0,0-4.92-1.31L56.5,3c-.26,0-.49,0-.72,0Z"/><path class="cls-4" d="M50.15,24.45V23l2-.17.59-.48v-19l-.59-.49-2.24-.2V1.36h7.85q5.17,0,7.37,1.63t2.2,5.4a6.63,6.63,0,0,1-2.41,5.37,9.8,9.8,0,0,1-6.5,2c-.28,0-.62,0-1,0l-1.55-.12,0,6.77.59.48,2.45.17v1.41ZM55.78,14l1.45.14c.35,0,.63.05.84.05a6.17,6.17,0,0,0,4.48-1.5A5.8,5.8,0,0,0,64.09,8.3,5,5,0,0,0,62.5,4.25a7.67,7.67,0,0,0-4.92-1.31L56.5,3c-.26,0-.49,0-.72,0Z"/><path class="cls-4" d="M83.39.77a10.87,10.87,0,0,1,4.1.76A10.57,10.57,0,0,1,91,3.8a11.17,11.17,0,0,1,2.64,4,13.85,13.85,0,0,1,.9,5.09,14.94,14.94,0,0,1-.43,3.61,12.48,12.48,0,0,1-1.32,3.2,10.53,10.53,0,0,1-3.93,3.91A10.87,10.87,0,0,1,83.39,25a11.15,11.15,0,0,1-4.14-.76,10.22,10.22,0,0,1-3.44-2.2,11.06,11.06,0,0,1-2.65-4,14.12,14.12,0,0,1-.9-5.14,13.92,13.92,0,0,1,.9-5.11,10.84,10.84,0,0,1,2.62-4,10.45,10.45,0,0,1,3.47-2.26A10.89,10.89,0,0,1,83.39.77m0,1.87A6.51,6.51,0,0,0,77.88,5.4a12.35,12.35,0,0,0-2,7.49,12.38,12.38,0,0,0,2.06,7.5,6.53,6.53,0,0,0,5.49,2.79,6.46,6.46,0,0,0,5.45-2.8,12.45,12.45,0,0,0,2-7.49,12.35,12.35,0,0,0-2-7.47,6.44,6.44,0,0,0-5.45-2.78"/><path class="cls-4" d="M83.39.77a10.87,10.87,0,0,1,4.1.76A10.57,10.57,0,0,1,91,3.8a11.17,11.17,0,0,1,2.64,4,13.85,13.85,0,0,1,.9,5.09,14.94,14.94,0,0,1-.43,3.61,12.48,12.48,0,0,1-1.32,3.2,10.53,10.53,0,0,1-3.93,3.91A10.87,10.87,0,0,1,83.39,25a11.15,11.15,0,0,1-4.14-.76,10.22,10.22,0,0,1-3.44-2.2,11.06,11.06,0,0,1-2.65-4,14.12,14.12,0,0,1-.9-5.14,13.92,13.92,0,0,1,.9-5.11,10.84,10.84,0,0,1,2.62-4,10.45,10.45,0,0,1,3.47-2.26A10.89,10.89,0,0,1,83.39.77Zm0,1.87A6.51,6.51,0,0,0,77.88,5.4a12.35,12.35,0,0,0-2,7.49,12.38,12.38,0,0,0,2.06,7.5,6.53,6.53,0,0,0,5.49,2.79,6.46,6.46,0,0,0,5.45-2.8,12.45,12.45,0,0,0,2-7.49,12.35,12.35,0,0,0-2-7.47A6.44,6.44,0,0,0,83.39,2.64Z"/><path class="cls-4" d="M99.58,23.77V17.71h2l.41,3.95.45.59a6.52,6.52,0,0,0,1.73.59,10.11,10.11,0,0,0,2.12.2,6,6,0,0,0,3.8-1.11,3.67,3.67,0,0,0,1.41-3q0-2.64-5-4.74c-.35-.16-.63-.27-.82-.35A13.68,13.68,0,0,1,101.09,11,5,5,0,0,1,100,7.55a6,6,0,0,1,2.17-4.79A8.74,8.74,0,0,1,107.9.94a17.82,17.82,0,0,1,2.9.24,21,21,0,0,1,3,.74V7.24H112L111.45,4l-.51-.56a4.94,4.94,0,0,0-1.43-.55,7.34,7.34,0,0,0-1.68-.18,4.94,4.94,0,0,0-3.41,1.12,3.83,3.83,0,0,0-1.26,3A3.22,3.22,0,0,0,104,9.14,13.44,13.44,0,0,0,108,11.35l.86.33a13.29,13.29,0,0,1,4.34,2.49,4.88,4.88,0,0,1,1.13,1.69,5.71,5.71,0,0,1,.38,2.09,6.06,6.06,0,0,1-2.44,5,10.2,10.2,0,0,1-6.47,1.9,19.22,19.22,0,0,1-3.39-.28,12.41,12.41,0,0,1-2.81-.82"/><path class="cls-4" d="M99.58,23.77V17.71h2l.41,3.95.45.59a6.52,6.52,0,0,0,1.73.59,10.11,10.11,0,0,0,2.12.2,6,6,0,0,0,3.8-1.11,3.67,3.67,0,0,0,1.41-3q0-2.64-5-4.74c-.35-.16-.63-.27-.82-.35A13.68,13.68,0,0,1,101.09,11,5,5,0,0,1,100,7.55a6,6,0,0,1,2.17-4.79A8.74,8.74,0,0,1,107.9.94a17.82,17.82,0,0,1,2.9.24,21,21,0,0,1,3,.74V7.24H112L111.45,4l-.51-.56a4.94,4.94,0,0,0-1.43-.55,7.34,7.34,0,0,0-1.68-.18,4.94,4.94,0,0,0-3.41,1.12,3.83,3.83,0,0,0-1.26,3A3.22,3.22,0,0,0,104,9.14,13.44,13.44,0,0,0,108,11.35l.86.33a13.29,13.29,0,0,1,4.34,2.49,4.88,4.88,0,0,1,1.13,1.69,5.71,5.71,0,0,1,.38,2.09,6.06,6.06,0,0,1-2.44,5,10.2,10.2,0,0,1-6.47,1.9,19.22,19.22,0,0,1-3.39-.28A12.41,12.41,0,0,1,99.58,23.77Z"/><path class="cls-4" d="M130,1.07h2.27l8.25,21.55,2.07.42v1.41h-7.82V23l2.14-.17.25-.48-2.48-6.58h-8.12l-2.46,6.58.35.48,2.24.17v1.41H120V23l2-.42Zm.54,3.62-3.4,9.54h6.94Z"/><path class="cls-4" d="M130,1.07h2.27l8.25,21.55,2.07.42v1.41h-7.82V23l2.14-.17.25-.48-2.48-6.58h-8.12l-2.46,6.58.35.48,2.24.17v1.41H120V23l2-.42Zm.54,3.62-3.4,9.54h6.94Z"/><path class="cls-4" d="M155.42,1.36q6,0,9.37,3c2.22,2,3.34,4.85,3.34,8.51A13,13,0,0,1,167,18.33a10.27,10.27,0,0,1-3.22,4A9.72,9.72,0,0,1,160.41,24a20.47,20.47,0,0,1-5,.49h-8.49V23l1.95-.17.58-.48v-19l-.58-.49-1.95-.2V1.36Zm-2.86,1.58V22.87h2.72c3.14,0,5.48-.82,7-2.47s2.32-4.16,2.32-7.51S163.87,7,162.33,5.4s-3.89-2.46-7.05-2.46Z"/><path class="cls-4" d="M155.42,1.36q6,0,9.37,3c2.22,2,3.34,4.85,3.34,8.51A13,13,0,0,1,167,18.33a10.27,10.27,0,0,1-3.22,4A9.72,9.72,0,0,1,160.41,24a20.47,20.47,0,0,1-5,.49h-8.49V23l1.95-.17.58-.48v-19l-.58-.49-1.95-.2V1.36Zm-2.86,1.58V22.87h2.72c3.14,0,5.48-.82,7-2.47s2.32-4.16,2.32-7.51S163.87,7,162.33,5.4s-3.89-2.46-7.05-2.46Z"/><path class="cls-4" d="M182.81.77a10.82,10.82,0,0,1,4.09.76,10.47,10.47,0,0,1,3.47,2.27,11.2,11.2,0,0,1,2.65,4,14.05,14.05,0,0,1,.89,5.09,14.46,14.46,0,0,1-.43,3.61,12.46,12.46,0,0,1-1.31,3.2,10.53,10.53,0,0,1-3.93,3.91,10.87,10.87,0,0,1-5.43,1.4,11.24,11.24,0,0,1-4.15-.76,10.32,10.32,0,0,1-3.44-2.2,11.17,11.17,0,0,1-2.64-4,14.12,14.12,0,0,1-.9-5.14,14.13,14.13,0,0,1,.89-5.11,11,11,0,0,1,2.62-4,10.55,10.55,0,0,1,3.47-2.26,11,11,0,0,1,4.15-.77m0,1.87A6.5,6.5,0,0,0,177.3,5.4a12.35,12.35,0,0,0-2,7.49,12.38,12.38,0,0,0,2.06,7.5,6.51,6.51,0,0,0,5.49,2.79,6.44,6.44,0,0,0,5.44-2.8,12.38,12.38,0,0,0,2.05-7.49,12.28,12.28,0,0,0-2.05-7.47,6.42,6.42,0,0,0-5.44-2.78"/><path class="cls-4" d="M182.81.77a10.82,10.82,0,0,1,4.09.76,10.47,10.47,0,0,1,3.47,2.27,11.2,11.2,0,0,1,2.65,4,14.05,14.05,0,0,1,.89,5.09,14.46,14.46,0,0,1-.43,3.61,12.46,12.46,0,0,1-1.31,3.2,10.53,10.53,0,0,1-3.93,3.91,10.87,10.87,0,0,1-5.43,1.4,11.24,11.24,0,0,1-4.15-.76,10.32,10.32,0,0,1-3.44-2.2,11.17,11.17,0,0,1-2.64-4,14.12,14.12,0,0,1-.9-5.14,14.13,14.13,0,0,1,.89-5.11,11,11,0,0,1,2.62-4,10.55,10.55,0,0,1,3.47-2.26A11,11,0,0,1,182.81.77Zm0,1.87A6.5,6.5,0,0,0,177.3,5.4a12.35,12.35,0,0,0-2,7.49,12.38,12.38,0,0,0,2.06,7.5,6.51,6.51,0,0,0,5.49,2.79,6.44,6.44,0,0,0,5.44-2.8,12.38,12.38,0,0,0,2.05-7.49,12.28,12.28,0,0,0-2.05-7.47A6.42,6.42,0,0,0,182.81,2.64Z"/><path class="cls-5" d="M.1.69H8.87c2.82,0,4.9.51,6.26,1.52a5.44,5.44,0,0,1,2,4.66,5,5,0,0,1-1.39,3.67,8,8,0,0,1-4.17,2,7.92,7.92,0,0,1,2.17.92,4.29,4.29,0,0,1,1.38,1.4,9.21,9.21,0,0,1,1,2.72A18.78,18.78,0,0,0,16.76,20a3.51,3.51,0,0,0,1.43,1.93,6.59,6.59,0,0,0,3,.51h.3v1.31c-.51.1-1,.17-1.43.23a10.79,10.79,0,0,1-1.24.07,7.51,7.51,0,0,1-2-.24,3.8,3.8,0,0,1-1.44-.75,8.49,8.49,0,0,1-2-4.2q-.3-1.12-.48-1.68A5.49,5.49,0,0,0,11,14.27a6.26,6.26,0,0,0-3.54-.81c-.33,0-.87,0-1.61,0l-.12,0v8.19l.59.48,2,.17v1.41H.1V22.37l1.95-.17.59-.48v-19l-.59-.49L.1,2.07ZM5.73,2.27v9.58l1,0h.91a7.65,7.65,0,0,0,4.65-1.12,4.27,4.27,0,0,0,1.45-3.61,4.42,4.42,0,0,0-1.49-3.72A8,8,0,0,0,7.4,2.27Z"/><path class="cls-6" d="M.1.69H8.87c2.82,0,4.9.51,6.26,1.52a5.44,5.44,0,0,1,2,4.66,5,5,0,0,1-1.39,3.67,8,8,0,0,1-4.17,2,7.92,7.92,0,0,1,2.17.92,4.29,4.29,0,0,1,1.38,1.4,9.21,9.21,0,0,1,1,2.72A18.78,18.78,0,0,0,16.76,20a3.51,3.51,0,0,0,1.43,1.93,6.59,6.59,0,0,0,3,.51h.3v1.31c-.51.1-1,.17-1.43.23a10.79,10.79,0,0,1-1.24.07,7.51,7.51,0,0,1-2-.24,3.8,3.8,0,0,1-1.44-.75,8.49,8.49,0,0,1-2-4.2q-.3-1.12-.48-1.68A5.49,5.49,0,0,0,11,14.27a6.26,6.26,0,0,0-3.54-.81c-.33,0-.87,0-1.61,0l-.12,0v8.19l.59.48,2,.17v1.41H.1V22.37l1.95-.17.59-.48v-19l-.59-.49L.1,2.07ZM5.73,2.27v9.58l1,0h.91a7.65,7.65,0,0,0,4.65-1.12,4.27,4.27,0,0,0,1.45-3.61,4.42,4.42,0,0,0-1.49-3.72A8,8,0,0,0,7.4,2.27Z"/><polygon class="cls-5" points="25.9 23.78 25.9 22.37 27.85 22.2 28.44 21.72 28.44 2.76 27.85 2.27 25.9 2.07 25.9 0.69 42.39 0.69 42.39 5.72 40.46 5.72 39.97 2.79 39.5 2.27 31.54 2.27 31.54 10.98 37.18 10.98 37.67 10.49 38 7.99 39.64 7.99 39.64 15.56 38 15.56 37.67 13.08 37.18 12.56 31.54 12.56 31.54 22.2 40.76 22.2 41.25 21.65 41.84 18.17 43.62 18.17 43.62 23.78 25.9 23.78"/><polygon class="cls-6" points="25.9 23.78 25.9 22.37 27.85 22.2 28.44 21.72 28.44 2.76 27.85 2.27 25.9 2.07 25.9 0.69 42.39 0.69 42.39 5.72 40.46 5.72 39.97 2.79 39.5 2.27 31.54 2.27 31.54 10.98 37.18 10.98 37.67 10.49 38 7.99 39.64 7.99 39.64 15.56 38 15.56 37.67 13.08 37.18 12.56 31.54 12.56 31.54 22.2 40.76 22.2 41.25 21.65 41.84 18.17 43.62 18.17 43.62 23.78 25.9 23.78"/><path class="cls-5" d="M49.3,23.78V22.37l2-.17.59-.48v-19l-.59-.49L49,2.07V.69h7.85q5.18,0,7.37,1.63c1.47,1.09,2.2,2.88,2.2,5.4A6.66,6.66,0,0,1,64,13.09a9.8,9.8,0,0,1-6.5,2c-.28,0-.62,0-1,0L55,14.94l0,6.78.59.48,2.45.17v1.41Zm5.63-10.5,1.45.14c.35,0,.62,0,.84,0A6.13,6.13,0,0,0,61.7,12a5.76,5.76,0,0,0,1.54-4.33,5,5,0,0,0-1.6-4,7.56,7.56,0,0,0-4.91-1.31c-.47,0-.83,0-1.08,0s-.49,0-.72,0Z"/><path class="cls-6" d="M49.3,23.78V22.37l2-.17.59-.48v-19l-.59-.49L49,2.07V.69h7.85q5.18,0,7.37,1.63c1.47,1.09,2.2,2.88,2.2,5.4A6.66,6.66,0,0,1,64,13.09a9.8,9.8,0,0,1-6.5,2c-.28,0-.62,0-1,0L55,14.94l0,6.78.59.48,2.45.17v1.41Zm5.63-10.5,1.45.14c.35,0,.62,0,.84,0A6.13,6.13,0,0,0,61.7,12a5.76,5.76,0,0,0,1.54-4.33,5,5,0,0,0-1.6-4,7.56,7.56,0,0,0-4.91-1.31c-.47,0-.83,0-1.08,0s-.49,0-.72,0Z"/><path class="cls-5" d="M82.54.1a10.87,10.87,0,0,1,4.1.76,10.57,10.57,0,0,1,3.47,2.27,11.17,11.17,0,0,1,2.64,4,13.85,13.85,0,0,1,.9,5.09,14.94,14.94,0,0,1-.43,3.61A12.63,12.63,0,0,1,91.9,19,10.43,10.43,0,0,1,88,22.93a10.78,10.78,0,0,1-5.43,1.41,11.24,11.24,0,0,1-4.15-.76A10.28,10.28,0,0,1,75,21.38a11.06,11.06,0,0,1-2.65-4,14.12,14.12,0,0,1-.9-5.14,13.92,13.92,0,0,1,.9-5.11,10.94,10.94,0,0,1,2.61-4A10.65,10.65,0,0,1,78.39.87,11,11,0,0,1,82.54.1m0,1.87A6.5,6.5,0,0,0,77,4.73a12.35,12.35,0,0,0-2,7.49,12.38,12.38,0,0,0,2.06,7.5,6.51,6.51,0,0,0,5.49,2.78A6.42,6.42,0,0,0,88,19.71,12.39,12.39,0,0,0,90,12.22,12.28,12.28,0,0,0,88,4.75,6.41,6.41,0,0,0,82.54,2"/><path class="cls-6" d="M82.54.1a10.87,10.87,0,0,1,4.1.76,10.57,10.57,0,0,1,3.47,2.27,11.17,11.17,0,0,1,2.64,4,13.85,13.85,0,0,1,.9,5.09,14.94,14.94,0,0,1-.43,3.61A12.63,12.63,0,0,1,91.9,19,10.43,10.43,0,0,1,88,22.93a10.78,10.78,0,0,1-5.43,1.41,11.24,11.24,0,0,1-4.15-.76A10.28,10.28,0,0,1,75,21.38a11.06,11.06,0,0,1-2.65-4,14.12,14.12,0,0,1-.9-5.14,13.92,13.92,0,0,1,.9-5.11,10.94,10.94,0,0,1,2.61-4A10.65,10.65,0,0,1,78.39.87,11,11,0,0,1,82.54.1Zm0,1.87A6.5,6.5,0,0,0,77,4.73a12.35,12.35,0,0,0-2,7.49,12.38,12.38,0,0,0,2.06,7.5,6.51,6.51,0,0,0,5.49,2.78A6.42,6.42,0,0,0,88,19.71,12.39,12.39,0,0,0,90,12.22,12.28,12.28,0,0,0,88,4.75,6.41,6.41,0,0,0,82.54,2Z"/><path class="cls-5" d="M98.73,23.09V17h2l.41,3.95.45.59a6.52,6.52,0,0,0,1.73.59,10.83,10.83,0,0,0,2.12.2,5.89,5.89,0,0,0,3.8-1.12,3.64,3.64,0,0,0,1.41-3q0-2.64-5-4.74l-.82-.36a13.69,13.69,0,0,1-4.67-2.84A5.07,5.07,0,0,1,99.1,6.87a5.94,5.94,0,0,1,2.17-4.78A8.74,8.74,0,0,1,107.05.27a17.82,17.82,0,0,1,2.9.24,19.71,19.71,0,0,1,3,.74V6.57h-1.8l-.51-3.28-.51-.56a4.94,4.94,0,0,0-1.43-.55A7.34,7.34,0,0,0,107,2a4.94,4.94,0,0,0-3.41,1.12,3.83,3.83,0,0,0-1.26,3,3.22,3.22,0,0,0,.88,2.32,13.25,13.25,0,0,0,3.94,2.2c.19.08.47.2.86.34a13.11,13.11,0,0,1,4.34,2.49,4.88,4.88,0,0,1,1.13,1.69,5.71,5.71,0,0,1,.38,2.09,6.07,6.07,0,0,1-2.44,5,10.2,10.2,0,0,1-6.47,1.9,19.22,19.22,0,0,1-3.39-.28,12.25,12.25,0,0,1-2.81-.83"/><path class="cls-6" d="M98.73,23.09V17h2l.41,3.95.45.59a6.52,6.52,0,0,0,1.73.59,10.83,10.83,0,0,0,2.12.2,5.89,5.89,0,0,0,3.8-1.12,3.64,3.64,0,0,0,1.41-3q0-2.64-5-4.74l-.82-.36a13.69,13.69,0,0,1-4.67-2.84A5.07,5.07,0,0,1,99.1,6.87a5.94,5.94,0,0,1,2.17-4.78A8.74,8.74,0,0,1,107.05.27a17.82,17.82,0,0,1,2.9.24,19.71,19.71,0,0,1,3,.74V6.57h-1.8l-.51-3.28-.51-.56a4.94,4.94,0,0,0-1.43-.55A7.34,7.34,0,0,0,107,2a4.94,4.94,0,0,0-3.41,1.12,3.83,3.83,0,0,0-1.26,3,3.22,3.22,0,0,0,.88,2.32,13.25,13.25,0,0,0,3.94,2.2c.19.08.47.2.86.34a13.11,13.11,0,0,1,4.34,2.49,4.88,4.88,0,0,1,1.13,1.69,5.71,5.71,0,0,1,.38,2.09,6.07,6.07,0,0,1-2.44,5,10.2,10.2,0,0,1-6.47,1.9,19.22,19.22,0,0,1-3.39-.28A12.25,12.25,0,0,1,98.73,23.09Z"/><path class="cls-5" d="M129.15.4h2.27L139.67,22l2.07.42v1.41h-7.82V22.37l2.14-.17.25-.48-2.49-6.58h-8.11l-2.46,6.58.35.48,2.24.17v1.41H119.1V22.37l2-.42ZM129.69,4l-3.4,9.54h6.94Z"/><path class="cls-6" d="M129.15.4h2.27L139.67,22l2.07.42v1.41h-7.82V22.37l2.14-.17.25-.48-2.49-6.58h-8.11l-2.46,6.58.35.48,2.24.17v1.41H119.1V22.37l2-.42ZM129.69,4l-3.4,9.54h6.94Z"/><path class="cls-5" d="M154.56.69q6.06,0,9.38,3c2.22,2,3.34,4.86,3.34,8.52a13,13,0,0,1-1.09,5.44,10.27,10.27,0,0,1-3.22,4,9.72,9.72,0,0,1-3.41,1.64,20.51,20.51,0,0,1-5,.49h-8.48V22.37L148,22.2l.58-.48v-19L148,2.27l-1.95-.2V.69Zm-2.85,1.58V22.2h2.72c3.14,0,5.48-.83,7-2.47s2.32-4.16,2.32-7.51-.77-5.85-2.31-7.49-3.89-2.46-7-2.46Z"/><path class="cls-6" d="M154.56.69q6.06,0,9.38,3c2.22,2,3.34,4.86,3.34,8.52a13,13,0,0,1-1.09,5.44,10.27,10.27,0,0,1-3.22,4,9.72,9.72,0,0,1-3.41,1.64,20.51,20.51,0,0,1-5,.49h-8.48V22.37L148,22.2l.58-.48v-19L148,2.27l-1.95-.2V.69Zm-2.85,1.58V22.2h2.72c3.14,0,5.48-.83,7-2.47s2.32-4.16,2.32-7.51-.77-5.85-2.31-7.49-3.89-2.46-7-2.46Z"/><path class="cls-5" d="M182,.1a10.84,10.84,0,0,1,4.1.76,10.47,10.47,0,0,1,3.47,2.27,11.2,11.2,0,0,1,2.65,4,14.05,14.05,0,0,1,.89,5.09,14.46,14.46,0,0,1-.43,3.61,12.28,12.28,0,0,1-1.32,3.2,10.36,10.36,0,0,1-3.93,3.9A10.73,10.73,0,0,1,182,24.34a11.23,11.23,0,0,1-4.14-.76,10.32,10.32,0,0,1-3.44-2.2,11.17,11.17,0,0,1-2.64-4,14.12,14.12,0,0,1-.9-5.14,14.13,14.13,0,0,1,.89-5.11,11,11,0,0,1,2.62-4A10.55,10.55,0,0,1,177.81.87,10.89,10.89,0,0,1,182,.1M182,2a6.5,6.5,0,0,0-5.5,2.76,12.35,12.35,0,0,0-2,7.49,12.38,12.38,0,0,0,2.06,7.5,6.75,6.75,0,0,0,10.93,0,12.38,12.38,0,0,0,2-7.49,12.28,12.28,0,0,0-2-7.47A6.43,6.43,0,0,0,182,2"/><path class="cls-6" d="M182,.1a10.84,10.84,0,0,1,4.1.76,10.47,10.47,0,0,1,3.47,2.27,11.2,11.2,0,0,1,2.65,4,14.05,14.05,0,0,1,.89,5.09,14.46,14.46,0,0,1-.43,3.61,12.28,12.28,0,0,1-1.32,3.2,10.36,10.36,0,0,1-3.93,3.9A10.73,10.73,0,0,1,182,24.34a11.23,11.23,0,0,1-4.14-.76,10.32,10.32,0,0,1-3.44-2.2,11.17,11.17,0,0,1-2.64-4,14.12,14.12,0,0,1-.9-5.14,14.13,14.13,0,0,1,.89-5.11,11,11,0,0,1,2.62-4A10.55,10.55,0,0,1,177.81.87,10.89,10.89,0,0,1,182,.1ZM182,2a6.5,6.5,0,0,0-5.5,2.76,12.35,12.35,0,0,0-2,7.49,12.38,12.38,0,0,0,2.06,7.5,6.75,6.75,0,0,0,10.93,0,12.38,12.38,0,0,0,2-7.49,12.28,12.28,0,0,0-2-7.47A6.43,6.43,0,0,0,182,2Z"/></g></g></svg>