<svg height='100px' width='100px'  fill="#6e0000" xmlnsX="http://ns.adobe.com/Extensibility/1.0/" xmlnsI="http://ns.adobe.com/AdobeIllustrator/10.0/" xmlnsGraph="http://ns.adobe.com/Graphs/1.0/" xmlns="http://www.w3.org/2000/svg" xmlns:xlink="http://www.w3.org/1999/xlink" version="1.1" x="0px" y="0px" viewBox="0 0 100 100" style="enable-background:new 0 0 100 100;" xmlSpace="preserve"><g><g iExtraneous="self"><g><path d="M96.6,67.8L59.5,30.7c-1.2-1.2-3.1-1.2-4.3,0c-2.1,2.1-3.8,4.5-5.2,7l2-14.9c0.1-0.9-0.1-1.8-0.7-2.4     c-0.6-0.7-1.4-1-2.3-1H5.6c-0.9,0-1.7,0.4-2.3,1c-0.6,0.7-0.9,1.5-0.7,2.4l6.6,49.5c0.6,4.8,4.8,8.4,9.6,8.4h17.1     c4.8,0,9-3.6,9.6-8.4l1.9-14.4c1.2,5.2,3.8,10.2,7.8,14.3c5.7,5.7,13.2,8.6,20.7,8.6c7.5,0,15-2.9,20.7-8.6     C97.8,70.9,97.8,69,96.6,67.8z M45.4,25.7l-3,22.4c-1.1,7.5-2,16.3-15.2,16.3s-14.1-8.8-15.2-16.3l-3-22.7h36.4L45.4,25.7z      M57.5,37.3l11,11H52.9C53.5,44.4,55,40.6,57.5,37.3z M52.9,54.5h15.5l-11,11C55,62.2,53.5,58.4,52.9,54.5z M72.8,74.3     c-3.9-0.5-7.7-2-11-4.5l11-11V74.3z M78.9,74.3V58.8l11,11C86.7,72.3,82.9,73.8,78.9,74.3z"></path></g></g></g></svg>