<svg xmlns="http://www.w3.org/2000/svg" viewBox="0 0 58.66 41.52"><defs><style>.cls-1,.cls-3{fill:#6c0d0f;}.cls-1,.cls-2{fill-rule:evenodd;}.cls-2{fill:#fff;}</style></defs><g id="Layer_2" data-name="Layer 2"><g id="Ñëîé_1" data-name="Ñëîé 1"><path class="cls-1" d="M1.87,23l6.51-2A20.76,20.76,0,0,1,46.57,9.49l6.51-2a2.63,2.63,0,0,1,2,.2h0a2.64,2.64,0,0,1,1.28,1.56l2.18,7.22a2.61,2.61,0,0,1-.2,2h0a2.62,2.62,0,0,1-1.56,1.27l-6.92,2.1A20.77,20.77,0,0,1,19.34,39.06a20.9,20.9,0,0,1-6.83-5.87L5.58,35.28a2.61,2.61,0,0,1-2-.2h0A2.6,2.6,0,0,1,2.3,33.52L.11,26.3a2.65,2.65,0,0,1,.2-2h0A2.65,2.65,0,0,1,1.87,23"/><path class="cls-2" d="M53.28,8.17a2,2,0,0,1,1.48.15,2,2,0,0,1,1,1.15L57.9,16.7a2,2,0,0,1-1.3,2.43L5.38,34.63A2,2,0,0,1,3,33.32L.77,26.1a1.9,1.9,0,0,1,.15-1.48,2,2,0,0,1,1.15-.95Z"/><path class="cls-2" d="M9.07,20.84l6.5-2a13.7,13.7,0,0,1,20-10.19,14,14,0,0,1,3.79,3l6.5-2A20.07,20.07,0,0,0,9.07,20.84"/><path class="cls-2" d="M33.11,33.87a13.67,13.67,0,0,1-10.44-1A14.57,14.57,0,0,1,20,30.93l-6.75,2a20.08,20.08,0,0,0,36-10.88l-6.75,2a14,14,0,0,1-1.2,3.09,13.63,13.63,0,0,1-8.11,6.65"/><path class="cls-1" d="M13.78,15.82l.51.15a.73.73,0,0,1,.5.36.77.77,0,0,1,0,.58.89.89,0,0,1-.34.49.76.76,0,0,1-.62.05l-2.21-.63a.77.77,0,0,1-.51-.38.84.84,0,0,1,0-.59.81.81,0,0,1,.32-.47.69.69,0,0,1,.61-.05l.59.17L12.5,16l-.5-.15a.47.47,0,0,0-.29,0,.25.25,0,0,0-.1.38.45.45,0,0,0,.24.15l2.09.59a.36.36,0,0,0,.29,0,.23.23,0,0,0,.14-.16.26.26,0,0,0,0-.21.41.41,0,0,0-.25-.15l-.45-.13Z"/><polygon class="cls-1" points="15.88 13.96 12.28 12.86 11.96 13.55 15.14 15.54 15.35 15.09 14.65 14.65 14.88 14.15 15.67 14.41 15.88 13.96"/><polygon class="cls-2" points="14.43 14 14.24 14.4 12.65 13.41 14.43 14"/><path class="cls-1" d="M16,11.48l.41.24a.79.79,0,0,1,.39.49.76.76,0,0,1-.13.58.75.75,0,0,1-.46.37.77.77,0,0,1-.6-.12l-.45-.28.25-.42.4.24a.42.42,0,0,0,.28.08.23.23,0,0,0,.18-.12.26.26,0,0,0,0-.21.51.51,0,0,0-.2-.22L15.79,12a.39.39,0,0,0-.25,0l-.36.09-.38.12a1.4,1.4,0,0,1-.41.06.68.68,0,0,1-.38-.11l-.4-.24a.76.76,0,0,1-.39-.49.85.85,0,0,1,.12-.57.69.69,0,0,1,1.07-.25l.5.3-.26.43L14.2,11a.36.36,0,0,0-.28-.08.23.23,0,0,0-.17.12.25.25,0,0,0,0,.21.49.49,0,0,0,.2.21l.26.16a.53.53,0,0,0,.31.06,1.58,1.58,0,0,0,.36-.09l.36-.13a1.07,1.07,0,0,1,.39-.07.65.65,0,0,1,.36.1"/><polygon class="cls-1" points="18.49 10.28 15.3 8.29 14.81 8.87 17.38 11.61 17.7 11.23 17.13 10.62 17.48 10.2 18.18 10.65 18.49 10.28"/><polygon class="cls-2" points="17.08 9.94 15.51 8.92 16.8 10.28 17.08 9.94"/><path class="cls-1" d="M20.53,7.07l.3.44a.73.73,0,0,1,.15.61.8.8,0,0,1-.35.47.88.88,0,0,1-.57.15.74.74,0,0,1-.5-.37l-1.29-1.9a.77.77,0,0,1-.15-.61.86.86,0,0,1,.37-.48A.8.8,0,0,1,19,5.23a.72.72,0,0,1,.5.35l.34.51-.41.28-.29-.43A.39.39,0,0,0,19,5.75a.22.22,0,0,0-.21,0,.22.22,0,0,0-.11.18.4.4,0,0,0,.09.27L19.93,8a.42.42,0,0,0,.22.19.25.25,0,0,0,.21,0A.23.23,0,0,0,20.47,8a.4.4,0,0,0-.09-.27l-.26-.39Z"/><polygon class="cls-1" points="23.34 7.01 21.24 3.89 20.56 4.22 21.78 7.77 22.23 7.55 21.95 6.76 22.45 6.53 22.9 7.23 23.34 7.01"/><polygon class="cls-2" points="22.19 6.13 21.8 6.32 21.18 4.55 22.19 6.13"/><path class="cls-1" d="M24.48,6.61,24,6.75,22.9,3.19,23.69,3a.64.64,0,0,1,.53,0,.76.76,0,0,1,.36.5l.19.61a.79.79,0,0,1,0,.61.64.64,0,0,1-.4.33l-.34.1Z"/><path class="cls-2" d="M24.28,4.18l-.15-.48A.48.48,0,0,0,24,3.44a.27.27,0,0,0-.22,0l-.24.08.37,1.19.24-.07a.27.27,0,0,0,.17-.14.54.54,0,0,0,0-.3"/><rect class="cls-3" x="25.95" y="2.38" width="0.5" height="3.73" transform="translate(-0.34 3.93) rotate(-8.52)"/><path class="cls-1" d="M29,4.62l0,.47a.8.8,0,0,1-.16.6.76.76,0,0,1-.55.23.78.78,0,0,1-.58-.15.8.8,0,0,1-.25-.56l0-.53.49,0,0,.47a.48.48,0,0,0,.1.27.23.23,0,0,0,.2.07.24.24,0,0,0,.19-.1.39.39,0,0,0,.06-.28l0-.31a.42.42,0,0,0-.13-.23l-.27-.24c-.11-.07-.21-.16-.33-.24a1,1,0,0,1-.28-.3.68.68,0,0,1-.14-.37l0-.46a.72.72,0,0,1,.17-.6A.8.8,0,0,1,28,2.08a.68.68,0,0,1,.82.72l0,.58-.49,0,0-.52a.4.4,0,0,0-.1-.27.26.26,0,0,0-.2-.08.25.25,0,0,0-.19.11.44.44,0,0,0-.05.28l0,.31a.45.45,0,0,0,.13.28,1.31,1.31,0,0,0,.28.24l.32.22a1.07,1.07,0,0,1,.28.28.63.63,0,0,1,.13.35"/><polygon class="cls-1" points="30.71 5.92 30.21 5.89 30.42 2.64 29.96 2.61 29.99 2.14 31.41 2.23 31.38 2.7 30.91 2.67 30.71 5.92"/><path class="cls-1" d="M33.46,6.46,33,6.35,32.9,4.76l-.19,0-.34,1.5-.48-.11.82-3.64.81.18A.69.69,0,0,1,34,3a.85.85,0,0,1,.06.61l-.14.59a1,1,0,0,1-.18.43.53.53,0,0,1-.33.18Z"/><path class="cls-2" d="M33.4,4l.12-.49a.59.59,0,0,0,0-.3.34.34,0,0,0-.19-.13l-.24,0-.27,1.22.24,0a.24.24,0,0,0,.22,0A.49.49,0,0,0,33.4,4"/><polygon class="cls-1" points="35.58 7.3 36.52 3.65 35.82 3.36 33.98 6.63 34.44 6.82 34.84 6.09 35.35 6.31 35.13 7.11 35.58 7.3"/><polygon class="cls-2" points="35.48 5.85 35.07 5.68 35.99 4.05 35.48 5.85"/><polygon class="cls-1" points="37.75 8.55 37.2 8.21 37.94 5.74 36.65 7.88 36.22 7.62 38.16 4.44 38.68 4.75 37.93 7.32 39.27 5.11 39.69 5.37 37.75 8.55"/><path class="cls-1" d="M38.88,8.55a.76.76,0,0,0-.2.59.72.72,0,0,0,.3.5.74.74,0,0,0,.54.21.73.73,0,0,0,.54-.31l1.48-1.76a.67.67,0,0,0-.07-1.07.82.82,0,0,0-.57-.23.73.73,0,0,0-.54.31Z"/><path class="cls-2" d="M39.72,9.17l1.4-1.66a.45.45,0,0,0,.12-.27.26.26,0,0,0-.3-.25.45.45,0,0,0-.24.17L39.31,8.82a.36.36,0,0,0-.12.27.25.25,0,0,0,.09.19.21.21,0,0,0,.2.05.38.38,0,0,0,.24-.16"/><path class="cls-1" d="M44.47,25.77,44,25.62a.79.79,0,0,1-.52-.38.84.84,0,0,1,0-.59.85.85,0,0,1,.35-.5.77.77,0,0,1,.64,0l2.27.64a.76.76,0,0,1,.52.38.93.93,0,0,1,0,.62.84.84,0,0,1-.33.48.71.71,0,0,1-.62.05l-.61-.17.14-.49.52.14a.36.36,0,0,0,.29,0,.24.24,0,0,0,.15-.16.25.25,0,0,0,0-.22.44.44,0,0,0-.25-.16l-2.15-.6a.36.36,0,0,0-.29,0,.24.24,0,0,0-.15.16.25.25,0,0,0,0,.22.44.44,0,0,0,.25.16l.46.13Z"/><polygon class="cls-1" points="42.34 27.53 42.56 27.07 43.37 27.32 43.61 26.81 42.87 26.37 43.08 25.91 46.38 27.91 46.05 28.62 42.34 27.53"/><polygon class="cls-2" points="43.84 27.47 44.02 27.06 45.67 28.06 43.84 27.47"/><path class="cls-1" d="M42.28,30l-.41-.27a.8.8,0,0,1-.39-.5.84.84,0,0,1,.15-.59.71.71,0,0,1,1.1-.23l.46.29-.28.43-.4-.26a.46.46,0,0,0-.29-.09.23.23,0,0,0-.18.12.22.22,0,0,0,0,.22.39.39,0,0,0,.19.22l.27.17a.35.35,0,0,0,.26,0,1.9,1.9,0,0,0,.37-.08l.4-.11a1.16,1.16,0,0,1,.42-.05.75.75,0,0,1,.39.12l.4.26a.75.75,0,0,1,.38.51.78.78,0,0,1-.14.58.7.7,0,0,1-1.1.23l-.5-.32.28-.43.44.29a.46.46,0,0,0,.29.09.26.26,0,0,0,.19-.12.28.28,0,0,0,0-.22.45.45,0,0,0-.2-.22l-.27-.17a.46.46,0,0,0-.31-.07,1.63,1.63,0,0,0-.37.08l-.38.13a1.34,1.34,0,0,1-.4.06.7.7,0,0,1-.37-.11"/><polygon class="cls-1" points="39.81 31.05 40.14 30.67 40.85 31.14 41.22 30.71 40.64 30.09 40.97 29.7 43.57 32.54 43.06 33.14 39.81 31.05"/><polygon class="cls-2" points="41.25 31.41 41.55 31.07 42.85 32.49 41.25 31.41"/><path class="cls-1" d="M37.16,34.7l-.29-.46a.74.74,0,0,1-.14-.63.8.8,0,0,1,.37-.47.85.85,0,0,1,.59-.14.81.81,0,0,1,.51.39l1.26,2a.77.77,0,0,1,.14.63.9.9,0,0,1-.39.48.8.8,0,0,1-.56.14.74.74,0,0,1-.5-.37l-.34-.54.43-.27.29.45a.45.45,0,0,0,.22.2.28.28,0,0,0,.22,0,.35.35,0,0,0,.12-.19A.44.44,0,0,0,39,35.6l-1.2-1.88a.41.41,0,0,0-.22-.2.25.25,0,0,0-.22,0,.29.29,0,0,0-.12.18.46.46,0,0,0,.09.29l.26.4Z"/><polygon class="cls-1" points="34.4 34.59 34.86 34.39 35.3 35.13 35.81 34.9 35.56 34.08 36.03 33.88 37.15 37.56 36.43 37.88 34.4 34.59"/><polygon class="cls-2" points="35.55 35.55 35.96 35.36 36.52 37.2 35.55 35.55"/><path class="cls-1" d="M33.36,34.93l.49-.13,1,3.69-.81.22a.69.69,0,0,1-.55-.06.86.86,0,0,1-.35-.53L33,37.49a.83.83,0,0,1,0-.63.64.64,0,0,1,.42-.32l.36-.09Z"/><path class="cls-2" d="M33.47,37.42a.52.52,0,0,1,0-.3.26.26,0,0,1,.19-.14l.24-.06.34,1.24-.25.06a.23.23,0,0,1-.23,0,.48.48,0,0,1-.14-.26Z"/><polygon class="cls-1" points="31.19 35.41 31.69 35.32 32.35 39.09 31.85 39.17 31.19 35.41"/><path class="cls-1" d="M29,36.78v-.49a.79.79,0,0,1,.19-.6.83.83,0,0,1,.58-.22.73.73,0,0,1,.81.78v.54l-.51,0v-.48a.4.4,0,0,0-.09-.29.25.25,0,0,0-.2-.09.3.3,0,0,0-.2.1.48.48,0,0,0-.07.29v.32a.39.39,0,0,0,.12.24,1.66,1.66,0,0,0,.27.25l.32.27a1.24,1.24,0,0,1,.28.32.68.68,0,0,1,.12.38l0,.48a.82.82,0,0,1-.21.61.81.81,0,0,1-.56.22.7.7,0,0,1-.81-.78l0-.6h.51v.53a.49.49,0,0,0,.09.28.27.27,0,0,0,.2.09.23.23,0,0,0,.2-.1.38.38,0,0,0,.07-.28v-.32a.44.44,0,0,0-.12-.3,2.23,2.23,0,0,0-.27-.26l-.32-.24a1.1,1.1,0,0,1-.28-.29.85.85,0,0,1-.12-.37"/><polygon class="cls-1" points="27.39 35.45 27.9 35.5 27.62 38.83 28.09 38.87 28.05 39.35 26.6 39.23 26.64 38.75 27.11 38.79 27.39 35.45"/><path class="cls-1" d="M24.71,34.93l.5.11.07,1.63.19,0,.36-1.53.49.11L25.45,39l-.83-.19a.7.7,0,0,1-.45-.31.87.87,0,0,1-.05-.63l.14-.6a1.13,1.13,0,0,1,.19-.44.55.55,0,0,1,.34-.19Z"/><path class="cls-2" d="M24.75,37.44a.56.56,0,0,1,.13-.27.26.26,0,0,1,.23,0l.25.06-.29,1.25-.25-.06a.23.23,0,0,1-.19-.13.5.5,0,0,1,0-.3Z"/><polygon class="cls-1" points="22.66 34.15 23.14 34.33 22.94 35.16 23.46 35.35 23.86 34.59 24.33 34.77 22.56 38.19 21.82 37.92 22.66 34.15"/><polygon class="cls-2" points="22.82 35.63 23.24 35.79 22.36 37.49 22.82 35.63"/><polygon class="cls-1" points="20.59 32.89 21.15 33.25 20.34 35.77 21.71 33.61 22.14 33.88 20.08 37.11 19.56 36.77 20.38 34.15 18.96 36.39 18.53 36.12 20.59 32.89"/><path class="cls-1" d="M19.51,33,18,34.81a.74.74,0,0,1-.56.31.8.8,0,0,1-.58-.24.68.68,0,0,1-.06-1.1L18.31,32a.75.75,0,0,1,.56-.31.82.82,0,0,1,.55.22.84.84,0,0,1,.31.52.79.79,0,0,1-.22.6"/><path class="cls-2" d="M18.65,32.38a.45.45,0,0,1,.25-.17.26.26,0,0,1,.21.06.25.25,0,0,1,.09.2.45.45,0,0,1-.12.27l-1.46,1.69a.38.38,0,0,1-.24.16.25.25,0,0,1-.22-.05.27.27,0,0,1-.09-.2.43.43,0,0,1,.13-.27Z"/><path class="cls-1" d="M48.29,13.39a3.27,3.27,0,0,1,2-1.66,3.22,3.22,0,0,1,2.59.28,3.48,3.48,0,0,1,1.41,4.67,3.26,3.26,0,0,1-2,1.67,3.2,3.2,0,0,1-2.58-.28,3.51,3.51,0,0,1-1.42-4.68"/><path class="cls-2" d="M50.44,16.81A1.79,1.79,0,0,0,53,16a2.18,2.18,0,0,0-.84-2.76,1.73,1.73,0,0,0-1.45-.18,1.76,1.76,0,0,0-1.1.95,2.17,2.17,0,0,0,.84,2.77"/><path class="cls-1" d="M46,18.76a1.84,1.84,0,0,1-1.5-.17,2.1,2.1,0,0,1-.84-2.76,1.84,1.84,0,0,1,1.15-1,1.79,1.79,0,0,1,1.68.29l.16-1.51a2.74,2.74,0,0,0-1.1-.27,3.39,3.39,0,0,0-3.2,1.81,3.31,3.31,0,0,0-.26,2.63,3.28,3.28,0,0,0,1.68,2.05,3.35,3.35,0,0,0,2.63.25,3.07,3.07,0,0,0,1-.53,2.62,2.62,0,0,0,.76-.84l-1-1.15A1.84,1.84,0,0,1,46,18.76"/><rect class="cls-3" x="39.78" y="15" width="1.51" height="6.59" transform="translate(-3.56 12.52) rotate(-16.83)"/><polygon class="cls-1" points="33.3 17.04 37.91 15.64 38.32 17 36.73 17.48 38.23 22.43 36.79 22.87 35.29 17.91 33.7 18.39 33.3 17.04"/><polygon class="cls-1" points="30.91 17.76 32.35 17.33 34.26 23.64 32.82 24.07 28.9 21 30.08 24.9 28.64 25.34 26.73 19.03 28.18 18.59 32.08 21.66 30.91 17.76"/><polygon class="cls-1" points="22.64 19.61 22.95 18.04 24.39 17.6 23.51 19.35 22.64 19.61"/><polygon class="cls-1" points="26.04 20.71 23.59 21.45 23.93 22.58 25.95 21.97 26.36 23.32 24.34 23.93 24.68 25.06 27.14 24.32 27.55 25.67 23.65 26.85 21.74 20.54 25.64 19.36 26.04 20.71"/><polygon class="cls-1" points="16.18 22.22 20.8 20.82 21.2 22.18 19.62 22.66 21.12 27.61 19.68 28.05 18.18 23.09 16.59 23.57 16.18 22.22"/><path class="cls-1" d="M13.94,22.9l1.44-.44,1.09,3.61a3.09,3.09,0,0,1-.07,2.27,2.49,2.49,0,0,1-1.66,1.37,2.49,2.49,0,0,1-2.15-.21,3.22,3.22,0,0,1-1.31-1.86L10.19,24l1.44-.43,1.14,3.75a1.55,1.55,0,0,0,.6.9,1.1,1.1,0,0,0,1,.11,1.12,1.12,0,0,0,.72-.62,1.48,1.48,0,0,0,0-1.08Z"/><polygon class="cls-1" points="10.08 30.95 11.58 30.5 7.17 24.95 5.76 25.37 5.24 32.42 6.82 31.94 6.89 30.77 9.35 30.03 10.08 30.95"/><polygon class="cls-2" points="6.97 29.27 7.09 27.1 8.4 28.84 6.97 29.27"/><path class="cls-2" d="M20.73,30.7l20.91-6.33a12.67,12.67,0,0,1-1,2.53,13.06,13.06,0,0,1-19.88,3.8"/><path class="cls-2" d="M16.29,18.65l22.37-6.77a13,13,0,0,0-21,2.74,12.92,12.92,0,0,0-1.38,4"/></g></g></svg>