<svg xmlns="http://www.w3.org/2000/svg" viewBox="0 0 251.43 48.56"><defs><style>.cls-1,.cls-3,.cls-4{fill:#beb8a6;}.cls-1,.cls-2{fill-rule:evenodd;}.cls-4,.cls-6{stroke:#909192;stroke-miterlimit:10;stroke-width:0.1px;}.cls-5{fill:#fdfefe;}.cls-6{fill:none;}</style></defs><g id="Layer_2" data-name="Layer 2"><g id="Ñëîé_1" data-name="Ñëîé 1"><path class="cls-1" d="M80,34.69a4.55,4.55,0,0,0-.82.1.66.66,0,0,0-.42.29,1.53,1.53,0,0,0-.16.26,1.06,1.06,0,0,0-.08.23.48.48,0,0,1-.09.19.24.24,0,0,1-.2.08.24.24,0,0,1-.22-.12.55.55,0,0,1,0-.24,5.35,5.35,0,0,1,.09-.63l.09-.42.41,0,1.44,0Zm7.56-1.15.26,0,.17,0a1.25,1.25,0,0,1,.26,0,.2.2,0,0,1,.22.15,1.07,1.07,0,0,1,0,.29c0,.14,0,.46,0,.8s0,.75,0,1h0a.6.6,0,0,1,0,.22.23.23,0,0,1-.21.14.23.23,0,0,1-.23-.14.78.78,0,0,1-.06-.28v-.17a.64.64,0,0,0-.39-.49.88.88,0,0,0,0-.17v-.08c0-.26,0-.56,0-.86Zm-1.93,1.12-1.21,0v6.11c0,.71,0,1.37,0,1.91,0,.17,0,.34,0,.5h0l-.27,0H84l-.42,0,0-.13c0-.16,0-.34,0-.55s0-.47,0-.72,0-1.11,0-1.9V34.36l1.1,0a3.45,3.45,0,0,1,.6,0,1.66,1.66,0,0,1,.37.11l0,0Zm-.71,10H85l.41,0h.35a.54.54,0,0,1,.24,0,.2.2,0,0,1,.13.2.24.24,0,0,1-.14.22.57.57,0,0,1-.27.05c-.6,0-1.2,0-1.67,0H83.3l-.71,0-1.21,0a.59.59,0,0,1-.28-.05A.23.23,0,0,1,81,45v0H82.4l.82,0h.87l.3,0a1.16,1.16,0,0,0,.28-.1,1.46,1.46,0,0,0,.24-.17m70.39-2.24h0l0,0Zm12.94-4.76-.36,1h.72ZM99.91,33.55l.29,0,.26,0,.08,0a.58.58,0,0,1,.19,0c.18,0,.21.12.21.26s0,.09,0,.17a5.21,5.21,0,0,0-.1.83l0,.31c0,.26,0,.58-.06.7h0a.47.47,0,0,1-.06.15.22.22,0,0,1-.21.11.21.21,0,0,1-.21-.12.35.35,0,0,1-.05-.21c0-.06,0-.17,0-.29a1.8,1.8,0,0,0-.06-.22.54.54,0,0,0-.22-.28l-.09,0c0-.08,0-.19,0-.3l0-.73Zm-2,1.05-.85,0c0,.74,0,1.52,0,2.28h-.9V34.31h.66l.48,0,.23,0a1.78,1.78,0,0,1,.33,0h0v.18Zm1.73,3.86.25-.05a.42.42,0,0,0,.22-.12l0,0c.12-.14.19-.22.32-.22a.23.23,0,0,1,.16.06.25.25,0,0,1,.07.18s0,.09,0,.18-.06.43-.1.94l0,.52c0,.23,0,.44,0,.49a.63.63,0,0,1,0,.23.23.23,0,0,1-.23.18.23.23,0,0,1-.2-.08.22.22,0,0,1-.06-.17v-.14a3,3,0,0,0,0-.39.53.53,0,0,0-.2-.31.38.38,0,0,0-.15-.09h0v-.18c0-.05,0-.24,0-.44l0-.52Zm-2,1.06h-.63c0,.62,0,1.24,0,1.86,0,.4,0,.88,0,1.25a5.32,5.32,0,0,1-.65,0,.78.78,0,0,1-.25-.06s0,0,0,0a3.13,3.13,0,0,1,0-.41c0-.3,0-1,0-1.65V39.23h1.13l.24,0,.17,0a1.5,1.5,0,0,1,0,.22m2.44,4.57h0a.91.91,0,0,0,.4-.35,2,2,0,0,0,.21-.68.56.56,0,0,1,.08-.23.24.24,0,0,1,.21-.1c.25,0,.25.17.25.39a7.41,7.41,0,0,1-.08.88c0,.34-.09.68-.13.84-.13.49-.28.49-.93.49-.89,0-1.61,0-2.19,0l-.45,0-.86,0H95.09l-.56,0H94a.56.56,0,0,1-.28-.05.22.22,0,0,1-.15-.22v0l.4,0h1l1.36,0c.63,0,1.39,0,2.16,0a2.25,2.25,0,0,0,1-.13,1.16,1.16,0,0,0,.56-.82m14.39,1.25-.21,0a7,7,0,0,1-1.27.12,7.59,7.59,0,0,1-2.17-.3h.57l.67,0,.71-.09c.21,0,.4-.07.57-.11l.35-.09Zm3.11-10.42h0a5.68,5.68,0,0,1,1.72,4.28,5.94,5.94,0,0,1-.71,2.85,6.42,6.42,0,0,1-1.17,1.57l-1.06-.54a5.66,5.66,0,0,0,.5-.57,6.37,6.37,0,0,0,.73-1.1,6.85,6.85,0,0,0,.59-1.54,7,7,0,0,0,.2-1.63,6.45,6.45,0,0,0-.82-3.33m9.45,12.46.37-.05a8,8,0,0,0,1.39-.39l.09,0a.48.48,0,0,1,.18-.06.26.26,0,0,1,.19.08.29.29,0,0,1,.07.18.24.24,0,0,1-.09.2.62.62,0,0,1-.16.1,12.09,12.09,0,0,1-1.95.74,10.93,10.93,0,0,1-2.92.41,10,10,0,0,1-2.62-.32c.33,0,.67,0,1,0a10.85,10.85,0,0,0,1.66-.13,13.12,13.12,0,0,0,1.45-.31,11.36,11.36,0,0,0,1.17-.4ZM112.47,34.3a3.2,3.2,0,0,0-2.41,1.22,5.44,5.44,0,0,0-1,3.46,6.72,6.72,0,0,0,.67,3.06,3.94,3.94,0,0,1-.5-.5,4.6,4.6,0,0,1-.81-1.54,7.41,7.41,0,0,1-.07-3.77A3.46,3.46,0,0,1,109,35a2.49,2.49,0,0,1,.91-.72,3.08,3.08,0,0,1,1.26-.25,3.27,3.27,0,0,1,1.31.29M128,33.55l.81,0a.78.78,0,0,1,.29,0,.21.21,0,0,1,.16.22.23.23,0,0,1-.13.22.53.53,0,0,1-.23,0h-.2l-.22,0a.47.47,0,0,0-.34.21,1.2,1.2,0,0,0-.13.55c0,.48,0,.91,0,3.21v2.13a8,8,0,0,0,.29,2.39,2.64,2.64,0,0,1-.32-.22,1.82,1.82,0,0,1-.35-.38,2.09,2.09,0,0,1-.27-.54,4.38,4.38,0,0,1-.2-.89,11.75,11.75,0,0,1-.07-1.31V34.81c0-.43,0-.65,0-.88v-.14a.65.65,0,0,1,.2,0l.26,0a1.43,1.43,0,0,0,.27-.09l.17-.11m7.43,0-.21.12a1.07,1.07,0,0,1-.27.08l-.26,0a.68.68,0,0,0-.2,0v.14c0,.23,0,.45,0,.88v3.92c0,.45,0,.9-.05,1.35a7.72,7.72,0,0,1-.22,1.36,5,5,0,0,1-.52,1.33,4.4,4.4,0,0,1-.93,1.15,6.11,6.11,0,0,1-1,.66,4.53,4.53,0,0,1-.95.39,6.27,6.27,0,0,1-.92.19,8.32,8.32,0,0,1-.85,0h-.5a3.12,3.12,0,0,0,.5.14,7.17,7.17,0,0,0,1.6.16,5.59,5.59,0,0,0,1.58-.21,4.47,4.47,0,0,0,1.66-.92,4,4,0,0,0,1.24-2.13,10.73,10.73,0,0,0,.24-2.54V38.06c0-2.3,0-2.73,0-3.21a1.2,1.2,0,0,1,.13-.55.47.47,0,0,1,.34-.21l.22,0h.2a.6.6,0,0,0,.25,0,.21.21,0,0,0,.14-.22c0-.2-.15-.26-.44-.26l-.81,0m10,0,.82,0a.75.75,0,0,1,.28,0,.21.21,0,0,1,.16.21.22.22,0,0,1-.12.22.47.47,0,0,1-.24,0h-.21l-.23,0a.52.52,0,0,0-.34.21,1.21,1.21,0,0,0-.12.55c0,.48,0,.91,0,3.21v2.68c0,.75,0,1.43,0,2,0,.16,0,.3,0,.44h0l-.27,0H145l-.45,0V43q0-.21,0-.54l0-.73V34.81c0-.43,0-.65,0-.88v-.14l.08,0h.13l.27,0a1,1,0,0,0,.29-.1l.14-.09m.47,11.14H146l.41,0h.35a.54.54,0,0,1,.24,0,.2.2,0,0,1,.13.2.24.24,0,0,1-.14.22.57.57,0,0,1-.27.05c-.61,0-1.21,0-1.68,0h-.69l-.71,0-1.21,0a.56.56,0,0,1-.28-.05A.22.22,0,0,1,142,45v0h1.37l.86,0h.88a1.45,1.45,0,0,0,.3,0,1.42,1.42,0,0,0,.29-.1,1.37,1.37,0,0,0,.23-.17m10.3-9.84c0,.48,0,.91,0,3.21v2.68c0,.74,0,1.36,0,1.84h-.27a3.42,3.42,0,0,1-.43,0l-.15,0,0,0h0c0-.1,0-.26,0-.46,0-.5,0-1.24,0-2.21v-5c0-.43,0-.65,0-.88l0-.14.23,0h.11l.27,0a1.38,1.38,0,0,0,.27-.08l.21-.12.81,0c.29,0,.44.06.44.26a.22.22,0,0,1-.14.22.65.65,0,0,1-.26,0h-.3l-.27,0a.49.49,0,0,0-.34.21,1.21,1.21,0,0,0-.12.55m3.41,9.2a1,1,0,0,0,.29-.21,1.54,1.54,0,0,0,.23-.39,2.13,2.13,0,0,0,.13-.46.65.65,0,0,1,.06-.21.25.25,0,0,1,.23-.12.2.2,0,0,1,.21.13.81.81,0,0,1,0,.25c0,.1,0,.57-.1,1a6.91,6.91,0,0,1-.13.76c-.06.2-.11.33-.28.41a2.06,2.06,0,0,1-.8.09c-.81,0-1.47,0-2,0l-.53,0-1,0h-1.77l-.56,0h-.49a.59.59,0,0,1-.28-.05.23.23,0,0,1-.14-.22v0l.4,0c.91,0,1.81.06,2.71.06.62,0,1.33,0,2.06,0a5.34,5.34,0,0,0,.6,0,1.53,1.53,0,0,0,.47-.13,1.1,1.1,0,0,0,.46-.38,1.53,1.53,0,0,0,.19-.45m10-2.74h-1.47c-.29.73-.56,1.48-.84,2.22,0,.1-.07.19-.1.29a.83.83,0,0,0-.08-.22.87.87,0,0,0-.36-.35,1,1,0,0,0-.28-.09,1,1,0,0,0-.26,0l0-.11c.24-.66.5-1.32.75-2h2.49Zm-2.51,3.22a.19.19,0,0,0,.07.12.57.57,0,0,0,.4.1h.23a.51.51,0,0,1,.24,0,.2.2,0,0,1,.11.2.24.24,0,0,1-.14.23.55.55,0,0,1-.24,0l-.83,0-.79,0h-.33c-.36,0-.92,0-1.46,0a.64.64,0,0,1-.27,0,.22.22,0,0,1-.14-.23v0h.61l.76,0h0l.83,0,.27,0a.94.94,0,0,0,.28-.1.85.85,0,0,0,.37-.33Zm3-11.27a.33.33,0,0,1,.19-.06.33.33,0,0,1,.28.16,1.57,1.57,0,0,1,.21.4c.16.36.7,1.72,1.35,3.34.84,2.12,1.87,4.7,2.42,6h0l-.17,0-.07,0s-.07,0-.12-.1a1.75,1.75,0,0,1-.27-.36,6,6,0,0,1-.34-.71c-.27-.62-.66-1.59-1.1-2.68s-.87-2.4-1.33-3.32-.79-2-1-2.62m5.52,11.37.19.07.29,0h.32a.45.45,0,0,1,.2,0,.22.22,0,0,1,.12.21c0,.13-.06.2-.24.24a3.64,3.64,0,0,1-.58,0h-1.19l-1.69,0h-.07c-.31,0-.51,0-.51-.24v0h2.27l.32,0a1,1,0,0,0,.57-.31"/><path class="cls-2" d="M80.59,43c.08-.63.08-1.83.08-3.23V33.67l-2.14.06a4.25,4.25,0,0,0-1,.1.73.73,0,0,0-.42.29c-.07.1-.12.19-.16.26a1.28,1.28,0,0,0-.08.23.48.48,0,0,1-.09.19.24.24,0,0,1-.2.09.21.21,0,0,1-.21-.13.54.54,0,0,1,0-.24,4.36,4.36,0,0,1,.1-.63c.08-.48.21-1.06.23-1.15a.92.92,0,0,1,.08-.25.24.24,0,0,1,.22-.13.61.61,0,0,1,.21.06,1.07,1.07,0,0,0,.45.12c.22,0,.48.05.75.06l.76,0h6a7.22,7.22,0,0,0,1-.07l.17,0,.26,0a.21.21,0,0,1,.22.15,1.07,1.07,0,0,1,0,.29c0,.14,0,.46,0,.8s0,.75,0,1h0a.66.66,0,0,1,0,.23.22.22,0,0,1-.21.13.24.24,0,0,1-.23-.13.91.91,0,0,1-.06-.29v-.16a.63.63,0,0,0-.43-.52,3.14,3.14,0,0,0-1.25-.23l-1.79,0v6.11c0,.71,0,1.37,0,1.91s0,1,.07,1.33a1.31,1.31,0,0,0,.12.5.46.46,0,0,0,.36.22l.41,0,.35,0a.55.55,0,0,1,.24,0,.2.2,0,0,1,.13.2.24.24,0,0,1-.14.22.57.57,0,0,1-.27.06c-.6,0-1.2,0-1.67,0H81.7l-.71,0-1.2,0a.7.7,0,0,1-.28,0,.24.24,0,0,1-.15-.23.19.19,0,0,1,.12-.19.39.39,0,0,1,.24-.05l.3,0,.23,0a.32.32,0,0,0,.23-.21,1.69,1.69,0,0,0,.11-.52m12.66,0c.07-.63.07-1.83.07-3.23v-5c0-.45,0-.68,0-.92a1,1,0,0,0-.13-.53.68.68,0,0,0-.43-.23h0l-.22,0h-.35a.55.55,0,0,1-.24,0,.22.22,0,0,1-.14-.22.22.22,0,0,1,.16-.22.8.8,0,0,1,.3,0c.46,0,.93,0,1.39,0l.8,0h3.8l.38,0,.25,0,.08,0a.58.58,0,0,1,.19,0c.18,0,.21.12.21.26a1.49,1.49,0,0,1,0,.17,5.21,5.21,0,0,0-.1.83l0,.31c0,.26,0,.58-.06.7h0a.28.28,0,0,1-.06.15.26.26,0,0,1-.42,0,.38.38,0,0,1,0-.22,1.74,1.74,0,0,0,0-.29.73.73,0,0,0-.06-.21.53.53,0,0,0-.22-.29,1.89,1.89,0,0,0-.7-.19l-.77,0-1.36,0c0,1.28,0,2.65,0,3.93h1.19l1.22,0a2.79,2.79,0,0,0,.42-.07.42.42,0,0,0,.23-.12v0c.12-.14.19-.22.32-.22a.23.23,0,0,1,.16.06.27.27,0,0,1,.07.18s0,.09,0,.18-.06.43-.1.94l0,.52c0,.23,0,.44,0,.49a.63.63,0,0,1,0,.23.22.22,0,0,1-.23.18.23.23,0,0,1-.2-.08.27.27,0,0,1-.06-.17v-.13a2.91,2.91,0,0,0,0-.4.53.53,0,0,0-.2-.31,1,1,0,0,0-.54-.18,6.11,6.11,0,0,0-.75,0l-1.37,0c0,.62,0,1.24,0,1.86s0,1.41,0,1.73c0,.48.07.77.29.93a2.61,2.61,0,0,0,1.41.22c.2,0,.45,0,.71,0a1.94,1.94,0,0,0,.67-.15.86.86,0,0,0,.4-.35,1.87,1.87,0,0,0,.22-.68.9.9,0,0,1,.07-.23.24.24,0,0,1,.21-.1c.25,0,.25.17.25.39s0,.53-.07.88-.1.68-.13.84c-.14.49-.29.49-.94.49-.89,0-1.6,0-2.19,0l-.45,0-.86,0H93.49l-.56,0-.49,0a.7.7,0,0,1-.28,0A.24.24,0,0,1,92,44a.21.21,0,0,1,.12-.19.44.44,0,0,1,.25-.05l.29,0,.23,0a.32.32,0,0,0,.23-.21,2.51,2.51,0,0,0,.12-.52m26.25,4.1a16.46,16.46,0,0,1-3.32-1.6l-2.34-1.37a6.9,6.9,0,0,1-1.11.28,8,8,0,0,1-1.27.11,6.19,6.19,0,0,1-4.5-1.66,6.34,6.34,0,0,1-1.81-4.5A6.2,6.2,0,0,1,107,34a6.32,6.32,0,0,1,4.48-1.63A6.54,6.54,0,0,1,116.07,34a5.64,5.64,0,0,1,1.72,4.27,6.06,6.06,0,0,1-.7,2.85,6.46,6.46,0,0,1-1.83,2.13l2.87,1.48a18.26,18.26,0,0,0,3.92,1.51,9.85,9.85,0,0,0,2.29.28,8.84,8.84,0,0,0,1.53-.13,7.23,7.23,0,0,0,1.39-.39l.09,0a.45.45,0,0,1,.19-.05.24.24,0,0,1,.25.25.24.24,0,0,1-.09.2.62.62,0,0,1-.16.1,12.09,12.09,0,0,1-2,.74,10.82,10.82,0,0,1-2.92.41,9.62,9.62,0,0,1-3.17-.49M108.76,42A4.18,4.18,0,0,0,112,43.52a3,3,0,0,0,2.13-.79c.71-.67,1.27-1.88,1.27-4.07a5.87,5.87,0,0,0-1.18-3.79,4,4,0,0,0-3.08-1.54,3.29,3.29,0,0,0-2.7,1.23,5.46,5.46,0,0,0-.95,3.46A6.08,6.08,0,0,0,108.76,42m15.81,0a3.83,3.83,0,0,0,1,1.5,4.09,4.09,0,0,0,1.86.93,7.72,7.72,0,0,0,1.6.15,5.59,5.59,0,0,0,1.58-.21,4.47,4.47,0,0,0,1.66-.92,4,4,0,0,0,1.24-2.13,10.74,10.74,0,0,0,.25-2.54V37.11c0-2.31,0-2.74,0-3.22a1.09,1.09,0,0,1,.12-.55.47.47,0,0,1,.34-.21l.22,0h.2a.6.6,0,0,0,.25,0,.21.21,0,0,0,.14-.22c0-.2-.14-.26-.44-.26s-.91,0-1.3,0h-.47c-.2,0-1,0-1.71,0a.72.72,0,0,0-.28,0,.21.21,0,0,0-.16.22.22.22,0,0,0,.14.22.55.55,0,0,0,.24,0h.31l.21,0h0a.68.68,0,0,1,.43.23,1.14,1.14,0,0,1,.13.53c0,.24,0,.47,0,.92V39a11.94,11.94,0,0,1-.13,2.14,2.8,2.8,0,0,1-.72,1.54,2.53,2.53,0,0,1-.89.58,3.07,3.07,0,0,1-1.12.21,3.45,3.45,0,0,1-.86-.1,2.4,2.4,0,0,1-1-.5,2.61,2.61,0,0,1-.84-1.22,7.43,7.43,0,0,1-.31-2.42V37.11c0-2.31,0-2.74,0-3.22a1.09,1.09,0,0,1,.12-.55.47.47,0,0,1,.34-.21l.22,0h.2a.53.53,0,0,0,.23,0,.24.24,0,0,0,0-.44.78.78,0,0,0-.29,0l-1.12,0-.75,0-.81,0-1.41,0a.8.8,0,0,0-.3,0,.21.21,0,0,0-.16.22.22.22,0,0,0,.14.22.55.55,0,0,0,.24,0h.34l.22,0h0a.7.7,0,0,1,.43.23,1.14,1.14,0,0,1,.13.53c0,.24,0,.47,0,.92v4.52a7.42,7.42,0,0,0,.39,2.62m17,1.13c.07-.63.07-1.83.07-3.3v-5c0-.45,0-.68,0-.92a1.2,1.2,0,0,0-.12-.54.46.46,0,0,0-.3-.2h0a.93.93,0,0,0-.23,0l-.29,0a.61.61,0,0,1-.24,0,.25.25,0,0,1-.13-.23.2.2,0,0,1,.18-.21.9.9,0,0,1,.31,0l1.12,0,.86,0,.74,0,1.11,0a.72.72,0,0,1,.28,0,.21.21,0,0,1,.17.21.25.25,0,0,1-.13.23.57.57,0,0,1-.24,0h-.2l-.23,0a.52.52,0,0,0-.35.21,1.36,1.36,0,0,0-.12.55c0,.48,0,.91,0,3.22v2.67c0,.75,0,1.43,0,2s0,1,0,1.35a1,1,0,0,0,.13.45.53.53,0,0,0,.38.19l.4,0,.36,0a.5.5,0,0,1,.23,0,.2.2,0,0,1,.13.2.24.24,0,0,1-.14.22.54.54,0,0,1-.27.06c-.6,0-1.21,0-1.67,0h-.7l-.71,0-1.21,0a.74.74,0,0,1-.28,0,.24.24,0,0,1-.14-.23.2.2,0,0,1,.11-.19.44.44,0,0,1,.25-.05l.29,0,.23,0a.3.3,0,0,0,.24-.18,1.31,1.31,0,0,0,.11-.48m13-9.19c0,.48,0,.91,0,3.22v2.67c0,1,0,1.72,0,2.26s.1.81.24.92a1,1,0,0,0,.51.23,7.18,7.18,0,0,0,1.25.08,6.08,6.08,0,0,0,1-.06,1.15,1.15,0,0,0,.67-.33,1.54,1.54,0,0,0,.23-.39,1.41,1.41,0,0,0,.13-.45.64.64,0,0,1,.06-.22.25.25,0,0,1,.23-.12.2.2,0,0,1,.21.14.54.54,0,0,1,0,.24c0,.1,0,.57-.1,1a5.13,5.13,0,0,1-.13.76c-.06.2-.11.33-.28.41a2.06,2.06,0,0,1-.8.09c-.81,0-1.47,0-2,0l-.53,0-1,0h-1.77l-.55,0-.5,0a.74.74,0,0,1-.28,0,.24.24,0,0,1-.14-.23.2.2,0,0,1,.11-.19.44.44,0,0,1,.25-.05l.3,0,.22,0a.32.32,0,0,0,.23-.21,2,2,0,0,0,.12-.52c.07-.63.07-1.83.07-3.23v-5c0-.45,0-.68,0-.92a1,1,0,0,0-.12-.53.68.68,0,0,0-.43-.23h0l-.2,0h-.27a.55.55,0,0,1-.24,0,.22.22,0,0,1-.14-.22.21.21,0,0,1,.16-.22.8.8,0,0,1,.3,0l1.31,0,.77,0,.8,0,1.27,0c.29,0,.44.06.44.26a.22.22,0,0,1-.14.22.62.62,0,0,1-.26,0h-.3l-.27,0a.49.49,0,0,0-.34.21,1.21,1.21,0,0,0-.12.55m15.21,6.43h-3.35c-.29.73-.55,1.48-.83,2.21a4.6,4.6,0,0,0-.16.49,2.73,2.73,0,0,0-.05.39.32.32,0,0,0,.08.25.59.59,0,0,0,.39.1h.23a.44.44,0,0,1,.23.05.19.19,0,0,1,.11.2.21.21,0,0,1-.13.22.43.43,0,0,1-.24.05l-.81,0-.77,0h-.33c-.35,0-.91,0-1.44,0a.62.62,0,0,1-.26,0,.24.24,0,0,1-.14-.23.2.2,0,0,1,.1-.2.39.39,0,0,1,.2-.05h.22l.23,0a1,1,0,0,0,.7-.39,3.35,3.35,0,0,0,.47-.89L168,32.92a2.9,2.9,0,0,1,.23-.49.35.35,0,0,1,.3-.19.33.33,0,0,1,.27.16,2,2,0,0,1,.21.4c.15.36.68,1.72,1.32,3.33.83,2.12,1.84,4.68,2.38,6a4.49,4.49,0,0,0,.73,1.27,1.07,1.07,0,0,0,.51.32l.28,0h.31a.42.42,0,0,1,.2,0,.21.21,0,0,1,.11.21c0,.12,0,.2-.23.24a3.58,3.58,0,0,1-.57,0h-1.17l-1.66,0h-.06c-.3,0-.5,0-.5-.23a.19.19,0,0,1,.11-.2.43.43,0,0,1,.19-.06h0s0,0,.05,0a.17.17,0,0,0,0-.1l-1.2-3.25Zm-1.55-4.58-1.34,3.6h2.66Z"/><path class="cls-3" d="M9.35,7.44h1.86L17.93,25l1.68.34V26.5H13.25V25.35L15,25.21l.21-.4-2-5.35H6.55l-2,5.35.28.4,1.83.14V26.5H1.16V25.35L2.78,25Zm.44,3L7,18.17h5.65Z"/><path class="cls-4" d="M9.35,7.44h1.86L17.93,25l1.68.34V26.5H13.25V25.35L15,25.21l.21-.4-2-5.35H6.55l-2,5.35.28.4,1.83.14V26.5H1.16V25.35L2.78,25Zm.44,3L7,18.17h5.65Z"/><path class="cls-3" d="M20.12,26.5V25.35l1.71-.22.51-.54V9.36L21.83,9,20,8.8V7.68h5.27v.7l9.58,14.37V9.55l-.51-.5L32.7,8.8V7.68h5.89V8.8l-1.69.25-.51.5v17H34.55L23.86,10.57v14l.51.54,1.68.22V26.5ZM32.44,1.12h1.15a1.72,1.72,0,0,0,0,.2c0,.09,0,.16,0,.22A3.37,3.37,0,0,1,33,3.69a2.07,2.07,0,0,1-1.69.82,5.2,5.2,0,0,1-2.34-.73,6.08,6.08,0,0,0-1.7-.73.83.83,0,0,0-.73.41,2,2,0,0,0-.27,1.11,1.1,1.1,0,0,0,0,.16,1.16,1.16,0,0,1,0,.17H25V4.62a3.66,3.66,0,0,1,.61-2.29,2.1,2.1,0,0,1,1.77-.79,4.75,4.75,0,0,1,2.17.73,5.27,5.27,0,0,0,1.7.72,1,1,0,0,0,.87-.41,2.46,2.46,0,0,0,.28-1.33Z"/><path class="cls-4" d="M20.12,26.5V25.35l1.71-.22.51-.54V9.36L21.83,9,20,8.8V7.68h5.27v.7l9.58,14.37V9.55l-.51-.5L32.7,8.8V7.68h5.89V8.8l-1.69.25-.51.5v17H34.55L23.86,10.57v14l.51.54,1.68.22V26.5ZM32.44,1.12h1.15a1.72,1.72,0,0,0,0,.2c0,.09,0,.16,0,.22A3.37,3.37,0,0,1,33,3.69a2.07,2.07,0,0,1-1.69.82,5.2,5.2,0,0,1-2.34-.73,6.08,6.08,0,0,0-1.7-.73.83.83,0,0,0-.73.41,2,2,0,0,0-.27,1.11,1.1,1.1,0,0,0,0,.16,1.16,1.16,0,0,1,0,.17H25V4.62a3.66,3.66,0,0,1,.61-2.29,2.1,2.1,0,0,1,1.77-.79,4.75,4.75,0,0,1,2.17.73,5.27,5.27,0,0,0,1.7.72,1,1,0,0,0,.87-.41,2.46,2.46,0,0,0,.28-1.33Z"/><polygon class="cls-3" points="40.24 26.5 40.24 25.35 41.83 25.21 42.31 24.81 42.31 9.36 41.83 8.97 40.24 8.8 40.24 7.68 53.68 7.68 53.68 11.77 52.1 11.77 51.71 9.39 51.32 8.97 44.83 8.97 44.83 16.06 49.44 16.06 49.83 15.66 50.11 13.62 51.44 13.62 51.44 19.8 50.11 19.8 49.83 17.77 49.44 17.35 44.83 17.35 44.83 25.21 52.35 25.21 52.75 24.76 53.23 21.92 54.68 21.92 54.68 26.5 40.24 26.5"/><polygon class="cls-4" points="40.24 26.5 40.24 25.35 41.83 25.21 42.31 24.81 42.31 9.36 41.83 8.97 40.24 8.8 40.24 7.68 53.68 7.68 53.68 11.77 52.1 11.77 51.71 9.39 51.32 8.97 44.83 8.97 44.83 16.06 49.44 16.06 49.83 15.66 50.11 13.62 51.44 13.62 51.44 19.8 50.11 19.8 49.83 17.77 49.44 17.35 44.83 17.35 44.83 25.21 52.35 25.21 52.75 24.76 53.23 21.92 54.68 21.92 54.68 26.5 40.24 26.5"/><path class="cls-3" d="M63.08,9.36,62.6,9,60.72,8.8V7.68h7.1V8.8L66.08,9l-.48.39v10c0,2.59-.5,4.5-1.48,5.7a5.6,5.6,0,0,1-4.63,1.82,10,10,0,0,1-1.79-.17,13.23,13.23,0,0,1-1.88-.51V21.47h1.56L58.05,25l.4.36a4.11,4.11,0,0,0,1,.12,3,3,0,0,0,2.77-1.43,9.26,9.26,0,0,0,.87-4.63Z"/><path class="cls-4" d="M63.08,9.36,62.6,9,60.72,8.8V7.68h7.1V8.8L66.08,9l-.48.39v10c0,2.59-.5,4.5-1.48,5.7a5.6,5.6,0,0,1-4.63,1.82,10,10,0,0,1-1.79-.17,13.23,13.23,0,0,1-1.88-.51V21.47h1.56L58.05,25l.4.36a4.11,4.11,0,0,0,1,.12,3,3,0,0,0,2.77-1.43,9.26,9.26,0,0,0,.87-4.63Z"/><path class="cls-3" d="M78.2,7.2a8.93,8.93,0,0,1,3.34.61,8.72,8.72,0,0,1,2.82,1.85,9.2,9.2,0,0,1,2.16,3.26,11.31,11.31,0,0,1,.73,4.15A12.17,12.17,0,0,1,86.9,20a10.4,10.4,0,0,1-1.07,2.6,8.55,8.55,0,0,1-3.21,3.19A8.79,8.79,0,0,1,78.2,27a9.06,9.06,0,0,1-3.38-.62A8.43,8.43,0,0,1,72,24.54a8.92,8.92,0,0,1-2.15-3.27,11.54,11.54,0,0,1-.74-4.2,11.32,11.32,0,0,1,.73-4.16A8.9,8.9,0,0,1,72,9.66a8.64,8.64,0,0,1,2.82-1.84A9.19,9.19,0,0,1,78.2,7.2m0,1.52A5.3,5.3,0,0,0,73.71,11a10.12,10.12,0,0,0-1.66,6.1,10,10,0,0,0,1.68,6.11,5.49,5.49,0,0,0,8.91,0,10.15,10.15,0,0,0,1.67-6.11A10,10,0,0,0,82.64,11,5.25,5.25,0,0,0,78.2,8.72"/><path class="cls-4" d="M78.2,7.2a8.93,8.93,0,0,1,3.34.61,8.72,8.72,0,0,1,2.82,1.85,9.2,9.2,0,0,1,2.16,3.26,11.31,11.31,0,0,1,.73,4.15A12.17,12.17,0,0,1,86.9,20a10.4,10.4,0,0,1-1.07,2.6,8.55,8.55,0,0,1-3.21,3.19A8.79,8.79,0,0,1,78.2,27a9.06,9.06,0,0,1-3.38-.62A8.43,8.43,0,0,1,72,24.54a8.92,8.92,0,0,1-2.15-3.27,11.54,11.54,0,0,1-.74-4.2,11.32,11.32,0,0,1,.73-4.16A8.9,8.9,0,0,1,72,9.66a8.64,8.64,0,0,1,2.82-1.84A9.19,9.19,0,0,1,78.2,7.2Zm0,1.52A5.3,5.3,0,0,0,73.71,11a10.12,10.12,0,0,0-1.66,6.1,10,10,0,0,0,1.68,6.11,5.49,5.49,0,0,0,8.91,0,10.15,10.15,0,0,0,1.67-6.11A10,10,0,0,0,82.64,11,5.25,5.25,0,0,0,78.2,8.72Z"/><path class="cls-3" d="M112.72,25.85a18.58,18.58,0,0,1-2.82.74,17.31,17.31,0,0,1-2.84.25,11.23,11.23,0,0,1-2.59-.29,8.8,8.8,0,0,1-2.19-.83,9.33,9.33,0,0,1-3.56-3.6,10.16,10.16,0,0,1-1.29-5A9.58,9.58,0,0,1,100.11,10a9.58,9.58,0,0,1,7.06-2.68,15.62,15.62,0,0,1,2.65.24,21.89,21.89,0,0,1,2.9.72v4.32h-1.56l-.43-2.55-.37-.51A8.87,8.87,0,0,0,108.79,9a6.87,6.87,0,0,0-1.57-.18,6.34,6.34,0,0,0-5,2.16,8.76,8.76,0,0,0-1.86,5.89,9.17,9.17,0,0,0,2,6.21,6.7,6.7,0,0,0,5.38,2.26,8.21,8.21,0,0,0,1.21-.09,7.83,7.83,0,0,0,1.23-.29l.44-.43.68-3.12h1.51Z"/><path class="cls-4" d="M112.72,25.85a18.58,18.58,0,0,1-2.82.74,17.31,17.31,0,0,1-2.84.25,11.23,11.23,0,0,1-2.59-.29,8.8,8.8,0,0,1-2.19-.83,9.33,9.33,0,0,1-3.56-3.6,10.16,10.16,0,0,1-1.29-5A9.58,9.58,0,0,1,100.11,10a9.58,9.58,0,0,1,7.06-2.68,15.62,15.62,0,0,1,2.65.24,21.89,21.89,0,0,1,2.9.72v4.32h-1.56l-.43-2.55-.37-.51A8.87,8.87,0,0,0,108.79,9a6.87,6.87,0,0,0-1.57-.18,6.34,6.34,0,0,0-5,2.16,8.76,8.76,0,0,0-1.86,5.89,9.17,9.17,0,0,0,2,6.21,6.7,6.7,0,0,0,5.38,2.26,8.21,8.21,0,0,0,1.21-.09,7.83,7.83,0,0,0,1.23-.29l.44-.43.68-3.12h1.51Z"/><path class="cls-3" d="M114.88,7.68H122a8.52,8.52,0,0,1,5.1,1.24,4.43,4.43,0,0,1,1.66,3.79,4.14,4.14,0,0,1-1.14,3,6.67,6.67,0,0,1-3.4,1.66,6.29,6.29,0,0,1,1.77.75,3.39,3.39,0,0,1,1.12,1.14,7.42,7.42,0,0,1,.8,2.22,13.66,13.66,0,0,0,.52,1.93A2.78,2.78,0,0,0,129.62,25a5.33,5.33,0,0,0,2.48.42h.25v1.07c-.42.08-.81.14-1.17.19a9,9,0,0,1-1,.06,6.26,6.26,0,0,1-1.67-.2,3.1,3.1,0,0,1-1.17-.61,7,7,0,0,1-1.65-3.43c-.17-.61-.3-1.06-.4-1.37a4.53,4.53,0,0,0-1.51-2.37,5.22,5.22,0,0,0-2.89-.65c-.27,0-.71,0-1.31,0h-.1v6.67l.48.4,1.6.14V26.5h-6.67V25.35l1.59-.14.48-.4V9.36L116.47,9l-1.59-.17ZM119.47,9v7.8l.81,0H121a6.25,6.25,0,0,0,3.79-.91,3.51,3.51,0,0,0,1.18-3,3.6,3.6,0,0,0-1.22-3A6.49,6.49,0,0,0,120.83,9Z"/><path class="cls-4" d="M114.88,7.68H122a8.52,8.52,0,0,1,5.1,1.24,4.43,4.43,0,0,1,1.66,3.79,4.14,4.14,0,0,1-1.14,3,6.67,6.67,0,0,1-3.4,1.66,6.29,6.29,0,0,1,1.77.75,3.39,3.39,0,0,1,1.12,1.14,7.42,7.42,0,0,1,.8,2.22,13.66,13.66,0,0,0,.52,1.93A2.78,2.78,0,0,0,129.62,25a5.33,5.33,0,0,0,2.48.42h.25v1.07c-.42.08-.81.14-1.17.19a9,9,0,0,1-1,.06,6.26,6.26,0,0,1-1.67-.2,3.1,3.1,0,0,1-1.17-.61,7,7,0,0,1-1.65-3.43c-.17-.61-.3-1.06-.4-1.37a4.53,4.53,0,0,0-1.51-2.37,5.22,5.22,0,0,0-2.89-.65c-.27,0-.71,0-1.31,0h-.1v6.67l.48.4,1.6.14V26.5h-6.67V25.35l1.59-.14.48-.4V9.36L116.47,9l-1.59-.17ZM119.47,9v7.8l.81,0H121a6.25,6.25,0,0,0,3.79-.91,3.51,3.51,0,0,0,1.18-3,3.6,3.6,0,0,0-1.22-3A6.49,6.49,0,0,0,120.83,9Z"/><polygon class="cls-3" points="133.06 26.5 133.06 25.35 134.85 25.21 135.33 24.81 135.33 9.36 134.85 8.97 133.06 8.8 133.06 7.68 140.18 7.68 140.18 8.8 138.39 8.97 137.91 9.36 137.91 24.81 138.39 25.21 140.18 25.35 140.18 26.5 133.06 26.5"/><polygon class="cls-4" points="133.06 26.5 133.06 25.35 134.85 25.21 135.33 24.81 135.33 9.36 134.85 8.97 133.06 8.8 133.06 7.68 140.18 7.68 140.18 8.8 138.39 8.97 137.91 9.36 137.91 24.81 138.39 25.21 140.18 25.35 140.18 26.5 133.06 26.5"/><path class="cls-3" d="M142.85,25.94V21h1.66l.33,3.22.37.47a5.56,5.56,0,0,0,1.41.48,8.46,8.46,0,0,0,1.73.17,4.85,4.85,0,0,0,3.1-.91A3,3,0,0,0,152.59,22c0-1.44-1.34-2.72-4-3.86l-.68-.29a11.45,11.45,0,0,1-3.81-2.32,4.12,4.12,0,0,1-.93-2.79,4.82,4.82,0,0,1,1.78-3.9,7.08,7.08,0,0,1,4.7-1.49,14.58,14.58,0,0,1,2.37.2,18.84,18.84,0,0,1,2.41.6v4.34H153l-.43-2.67-.41-.47A4.36,4.36,0,0,0,151,8.89a5.93,5.93,0,0,0-1.37-.15,4.06,4.06,0,0,0-2.78.91,3.16,3.16,0,0,0-1,2.48,2.58,2.58,0,0,0,.72,1.88,10.7,10.7,0,0,0,3.21,1.8l.7.28a10.47,10.47,0,0,1,3.53,2,3.87,3.87,0,0,1,.93,1.38,4.71,4.71,0,0,1,.31,1.7,4.94,4.94,0,0,1-2,4.09,8.34,8.34,0,0,1-5.27,1.55,16.05,16.05,0,0,1-2.76-.23,10.59,10.59,0,0,1-2.3-.67"/><path class="cls-4" d="M142.85,25.94V21h1.66l.33,3.22.37.47a5.56,5.56,0,0,0,1.41.48,8.46,8.46,0,0,0,1.73.17,4.85,4.85,0,0,0,3.1-.91A3,3,0,0,0,152.59,22c0-1.44-1.34-2.72-4-3.86l-.68-.29a11.45,11.45,0,0,1-3.81-2.32,4.12,4.12,0,0,1-.93-2.79,4.82,4.82,0,0,1,1.78-3.9,7.08,7.08,0,0,1,4.7-1.49,14.58,14.58,0,0,1,2.37.2,18.84,18.84,0,0,1,2.41.6v4.34H153l-.43-2.67-.41-.47A4.36,4.36,0,0,0,151,8.89a5.93,5.93,0,0,0-1.37-.15,4.06,4.06,0,0,0-2.78.91,3.16,3.16,0,0,0-1,2.48,2.58,2.58,0,0,0,.72,1.88,10.7,10.7,0,0,0,3.21,1.8l.7.28a10.47,10.47,0,0,1,3.53,2,3.87,3.87,0,0,1,.93,1.38,4.71,4.71,0,0,1,.31,1.7,4.94,4.94,0,0,1-2,4.09,8.34,8.34,0,0,1-5.27,1.55,16.05,16.05,0,0,1-2.76-.23A10.59,10.59,0,0,1,142.85,25.94Z"/><polygon class="cls-3" points="157.22 7.68 173.07 7.68 173.07 11.99 171.52 11.99 171.14 9.39 170.74 8.97 166.45 8.97 166.45 24.81 166.92 25.21 168.81 25.35 168.81 26.5 161.48 26.5 161.48 25.35 163.36 25.21 163.84 24.81 163.84 8.97 159.55 8.97 159.15 9.39 158.75 11.99 157.22 11.99 157.22 7.68"/><polygon class="cls-4" points="157.22 7.68 173.07 7.68 173.07 11.99 171.52 11.99 171.14 9.39 170.74 8.97 166.45 8.97 166.45 24.81 166.92 25.21 168.81 25.35 168.81 26.5 161.48 26.5 161.48 25.35 163.36 25.21 163.84 24.81 163.84 8.97 159.55 8.97 159.15 9.39 158.75 11.99 157.22 11.99 157.22 7.68"/><path class="cls-3" d="M178.41,7.44h1.85L187,25l1.68.34V26.5H182.3V25.35l1.74-.14.21-.4-2-5.35H175.6l-2,5.35.29.4,1.82.14V26.5h-5.49V25.35l1.62-.34Zm.44,3-2.77,7.78h5.66Z"/><path class="cls-4" d="M178.41,7.44h1.85L187,25l1.68.34V26.5H182.3V25.35l1.74-.14.21-.4-2-5.35H175.6l-2,5.35.29.4,1.82.14V26.5h-5.49V25.35l1.62-.34Zm.44,3-2.77,7.78h5.66Z"/><polygon class="cls-3" points="189.12 26.5 189.12 25.35 190.89 25.21 191.37 24.81 191.37 9.36 190.89 8.97 189.12 8.8 189.12 7.68 195.97 7.68 195.97 8.8 194.37 8.97 193.89 9.36 193.89 25.21 200.23 25.21 200.63 24.76 201.11 21.39 202.56 21.39 202.56 26.5 189.12 26.5"/><polygon class="cls-4" points="189.12 26.5 189.12 25.35 190.89 25.21 191.37 24.81 191.37 9.36 190.89 8.97 189.12 8.8 189.12 7.68 195.97 7.68 195.97 8.8 194.37 8.97 193.89 9.36 193.89 25.21 200.23 25.21 200.63 24.76 201.11 21.39 202.56 21.39 202.56 26.5 189.12 26.5"/><polygon class="cls-3" points="203.94 26.5 203.94 25.35 205.74 25.21 206.22 24.81 206.22 9.36 205.74 8.97 203.94 8.8 203.94 7.68 211.07 7.68 211.07 8.8 209.27 8.97 208.79 9.36 208.79 24.81 209.27 25.21 211.07 25.35 211.07 26.5 203.94 26.5"/><polygon class="cls-4" points="203.94 26.5 203.94 25.35 205.74 25.21 206.22 24.81 206.22 9.36 205.74 8.97 203.94 8.8 203.94 7.68 211.07 7.68 211.07 8.8 209.27 8.97 208.79 9.36 208.79 24.81 209.27 25.21 211.07 25.35 211.07 26.5 203.94 26.5"/><polygon class="cls-3" points="212.86 26.5 212.86 25.35 214.57 25.13 215.08 24.59 215.08 9.36 214.57 8.97 212.78 8.8 212.78 7.68 218.05 7.68 218.05 8.38 227.63 22.74 227.63 9.55 227.12 9.05 225.44 8.8 225.44 7.68 231.32 7.68 231.32 8.8 229.64 9.05 229.13 9.55 229.13 26.5 227.28 26.5 216.6 10.57 216.6 24.59 217.11 25.13 218.79 25.35 218.79 26.5 212.86 26.5"/><polygon class="cls-4" points="212.86 26.5 212.86 25.35 214.57 25.13 215.08 24.59 215.08 9.36 214.57 8.97 212.78 8.8 212.78 7.68 218.05 7.68 218.05 8.38 227.63 22.74 227.63 9.55 227.12 9.05 225.44 8.8 225.44 7.68 231.32 7.68 231.32 8.8 229.64 9.05 229.13 9.55 229.13 26.5 227.28 26.5 216.6 10.57 216.6 24.59 217.11 25.13 218.79 25.35 218.79 26.5 212.86 26.5"/><path class="cls-3" d="M242.32,7.2a9,9,0,0,1,3.35.61,8.83,8.83,0,0,1,2.82,1.85,9.2,9.2,0,0,1,2.16,3.26,11.52,11.52,0,0,1,.73,4.15A11.69,11.69,0,0,1,251,20a10,10,0,0,1-1.07,2.6,8.59,8.59,0,0,1-3.2,3.19A8.83,8.83,0,0,1,242.32,27a9,9,0,0,1-3.37-.62,8.43,8.43,0,0,1-2.8-1.79A9.07,9.07,0,0,1,234,21.27a11.54,11.54,0,0,1-.73-4.2,11.53,11.53,0,0,1,.72-4.16,9.16,9.16,0,0,1,2.14-3.25A8.69,8.69,0,0,1,239,7.82a9.13,9.13,0,0,1,3.37-.62m0,1.52A5.28,5.28,0,0,0,237.84,11a10.06,10.06,0,0,0-1.67,6.1,10,10,0,0,0,1.68,6.11,5.49,5.49,0,0,0,8.91,0,10.08,10.08,0,0,0,1.67-6.11A10,10,0,0,0,246.76,11a5.22,5.22,0,0,0-4.44-2.27"/><path class="cls-4" d="M242.32,7.2a9,9,0,0,1,3.35.61,8.83,8.83,0,0,1,2.82,1.85,9.2,9.2,0,0,1,2.16,3.26,11.52,11.52,0,0,1,.73,4.15A11.69,11.69,0,0,1,251,20a10,10,0,0,1-1.07,2.6,8.59,8.59,0,0,1-3.2,3.19A8.83,8.83,0,0,1,242.32,27a9,9,0,0,1-3.37-.62,8.43,8.43,0,0,1-2.8-1.79A9.07,9.07,0,0,1,234,21.27a11.54,11.54,0,0,1-.73-4.2,11.53,11.53,0,0,1,.72-4.16,9.16,9.16,0,0,1,2.14-3.25A8.69,8.69,0,0,1,239,7.82,9.13,9.13,0,0,1,242.32,7.2Zm0,1.52A5.28,5.28,0,0,0,237.84,11a10.06,10.06,0,0,0-1.67,6.1,10,10,0,0,0,1.68,6.11,5.49,5.49,0,0,0,8.91,0,10.08,10.08,0,0,0,1.67-6.11A10,10,0,0,0,246.76,11,5.22,5.22,0,0,0,242.32,8.72Z"/><path class="cls-5" d="M8.93,7h1.85L17.5,24.51l1.69.34V26H12.82V24.85l1.74-.13.21-.4-2-5.36H6.12l-2,5.36.29.4,1.82.13V26H.74V24.85l1.61-.34Zm.44,2.94L6.6,17.67h5.66Z"/><path class="cls-5" d="M8.93,7h1.85L17.5,24.51l1.69.34V26H12.82V24.85l1.74-.13.21-.4-2-5.36H6.12l-2,5.36.29.4,1.82.13V26H.74V24.85l1.61-.34Zm.44,2.94L6.6,17.67h5.66Z"/><path class="cls-5" d="M19.7,26V24.85l1.71-.22.51-.53V8.87l-.51-.4-1.8-.16V7.18h5.28v.7l9.57,14.37V9.06L34,8.55l-1.69-.24V7.18h5.89V8.31l-1.68.24L36,9.06V26H34.12L23.44,10.07v14l.5.53,1.69.22V26ZM32,.62h1.15a1.91,1.91,0,0,0,0,.2,2.11,2.11,0,0,1,0,.23,3.33,3.33,0,0,1-.66,2.14,2.1,2.1,0,0,1-1.7.83,5.27,5.27,0,0,1-2.34-.74,6,6,0,0,0-1.7-.73.83.83,0,0,0-.72.41,1.94,1.94,0,0,0-.28,1.11s0,.09,0,.17,0,.13,0,.16h-1.2V4.13a3.75,3.75,0,0,1,.6-2.3A2.13,2.13,0,0,1,27,1.05a4.83,4.83,0,0,1,2.17.72,5.38,5.38,0,0,0,1.69.73,1,1,0,0,0,.88-.41A2.52,2.52,0,0,0,32,.76Z"/><path class="cls-5" d="M19.7,26V24.85l1.71-.22.51-.53V8.87l-.51-.4-1.8-.16V7.18h5.28v.7l9.57,14.37V9.06L34,8.55l-1.69-.24V7.18h5.89V8.31l-1.68.24L36,9.06V26H34.12L23.44,10.07v14l.5.53,1.69.22V26ZM32,.62h1.15a1.91,1.91,0,0,0,0,.2,2.11,2.11,0,0,1,0,.23,3.33,3.33,0,0,1-.66,2.14,2.1,2.1,0,0,1-1.7.83,5.27,5.27,0,0,1-2.34-.74,6,6,0,0,0-1.7-.73.83.83,0,0,0-.72.41,1.94,1.94,0,0,0-.28,1.11s0,.09,0,.17,0,.13,0,.16h-1.2V4.13a3.75,3.75,0,0,1,.6-2.3A2.13,2.13,0,0,1,27,1.05a4.83,4.83,0,0,1,2.17.72,5.38,5.38,0,0,0,1.69.73,1,1,0,0,0,.88-.41A2.52,2.52,0,0,0,32,.76Z"/><polygon class="cls-5" points="39.82 26 39.82 24.85 41.41 24.71 41.89 24.32 41.89 8.87 41.41 8.47 39.82 8.3 39.82 7.18 53.26 7.18 53.26 11.28 51.68 11.28 51.28 8.89 50.9 8.47 44.41 8.47 44.41 15.56 49.01 15.56 49.41 15.17 49.68 13.13 51.01 13.13 51.01 19.3 49.68 19.3 49.41 17.28 49.01 16.85 44.41 16.85 44.41 24.71 51.93 24.71 52.33 24.26 52.8 21.43 54.26 21.43 54.26 26 39.82 26"/><polygon class="cls-5" points="39.82 26 39.82 24.85 41.41 24.71 41.89 24.32 41.89 8.87 41.41 8.47 39.82 8.3 39.82 7.18 53.26 7.18 53.26 11.28 51.68 11.28 51.28 8.89 50.9 8.47 44.41 8.47 44.41 15.56 49.01 15.56 49.41 15.17 49.68 13.13 51.01 13.13 51.01 19.3 49.68 19.3 49.41 17.28 49.01 16.85 44.41 16.85 44.41 24.71 51.93 24.71 52.33 24.26 52.8 21.43 54.26 21.43 54.26 26 39.82 26"/><path class="cls-5" d="M62.65,8.87l-.48-.4L60.3,8.3V7.18h7.09V8.3l-1.74.17-.48.4v10q0,3.89-1.48,5.7a5.62,5.62,0,0,1-4.63,1.81,9.09,9.09,0,0,1-1.78-.17,12.13,12.13,0,0,1-1.89-.51V21H57l.67,3.54.39.37a4.33,4.33,0,0,0,.5.08A3.91,3.91,0,0,0,59,25a3,3,0,0,0,2.77-1.43,9.24,9.24,0,0,0,.87-4.62Z"/><path class="cls-5" d="M62.65,8.87l-.48-.4L60.3,8.3V7.18h7.09V8.3l-1.74.17-.48.4v10q0,3.89-1.48,5.7a5.62,5.62,0,0,1-4.63,1.81,9.09,9.09,0,0,1-1.78-.17,12.13,12.13,0,0,1-1.89-.51V21H57l.67,3.54.39.37a4.33,4.33,0,0,0,.5.08A3.91,3.91,0,0,0,59,25a3,3,0,0,0,2.77-1.43,9.24,9.24,0,0,0,.87-4.62Z"/><path class="cls-5" d="M77.78,6.7a9,9,0,0,1,3.34.62,8.67,8.67,0,0,1,2.82,1.85,9,9,0,0,1,2.16,3.26,11.27,11.27,0,0,1,.73,4.15,11.61,11.61,0,0,1-.36,2.94,9.77,9.77,0,0,1-1.07,2.61,8.49,8.49,0,0,1-3.2,3.18,8.83,8.83,0,0,1-4.42,1.15,9.23,9.23,0,0,1-3.38-.62A8.21,8.21,0,0,1,71.6,24a9.07,9.07,0,0,1-2.16-3.27,11.48,11.48,0,0,1-.73-4.19,11.55,11.55,0,0,1,.72-4.17,9,9,0,0,1,2.14-3.24A8.53,8.53,0,0,1,74.4,7.33a9,9,0,0,1,3.38-.63m0,1.52a5.29,5.29,0,0,0-4.49,2.25,10.09,10.09,0,0,0-1.67,6.11,10.15,10.15,0,0,0,1.68,6.11A5.3,5.3,0,0,0,77.78,25a5.22,5.22,0,0,0,4.43-2.28,10,10,0,0,0,1.67-6.1,10,10,0,0,0-1.67-6.09,5.24,5.24,0,0,0-4.43-2.27"/><path class="cls-5" d="M77.78,6.7a9,9,0,0,1,3.34.62,8.67,8.67,0,0,1,2.82,1.85,9,9,0,0,1,2.16,3.26,11.27,11.27,0,0,1,.73,4.15,11.61,11.61,0,0,1-.36,2.94,9.77,9.77,0,0,1-1.07,2.61,8.49,8.49,0,0,1-3.2,3.18,8.83,8.83,0,0,1-4.42,1.15,9.23,9.23,0,0,1-3.38-.62A8.21,8.21,0,0,1,71.6,24a9.07,9.07,0,0,1-2.16-3.27,11.48,11.48,0,0,1-.73-4.19,11.55,11.55,0,0,1,.72-4.17,9,9,0,0,1,2.14-3.24A8.53,8.53,0,0,1,74.4,7.33,9,9,0,0,1,77.78,6.7Zm0,1.52a5.29,5.29,0,0,0-4.49,2.25,10.09,10.09,0,0,0-1.67,6.11,10.15,10.15,0,0,0,1.68,6.11A5.3,5.3,0,0,0,77.78,25a5.22,5.22,0,0,0,4.43-2.28,10,10,0,0,0,1.67-6.1,10,10,0,0,0-1.67-6.09A5.24,5.24,0,0,0,77.78,8.22Z"/><path class="cls-5" d="M112.29,25.36a18.25,18.25,0,0,1-2.82.73,16.17,16.17,0,0,1-2.83.25,11.18,11.18,0,0,1-2.59-.28,8.74,8.74,0,0,1-2.2-.84,9.35,9.35,0,0,1-3.55-3.59A10.2,10.2,0,0,1,97,16.58a9.55,9.55,0,0,1,2.67-7.06,9.55,9.55,0,0,1,7.07-2.68,15.62,15.62,0,0,1,2.65.24,21.76,21.76,0,0,1,2.89.72v4.31h-1.56l-.42-2.55-.37-.5a8.28,8.28,0,0,0-1.58-.55,6.79,6.79,0,0,0-1.56-.18,6.28,6.28,0,0,0-5,2.17,8.72,8.72,0,0,0-1.86,5.89,9.19,9.19,0,0,0,1.94,6.21,6.75,6.75,0,0,0,5.39,2.25,8.31,8.31,0,0,0,1.21-.09,7.92,7.92,0,0,0,1.22-.28l.44-.44.69-3.12h1.5Z"/><path class="cls-5" d="M112.29,25.36a18.25,18.25,0,0,1-2.82.73,16.17,16.17,0,0,1-2.83.25,11.18,11.18,0,0,1-2.59-.28,8.74,8.74,0,0,1-2.2-.84,9.35,9.35,0,0,1-3.55-3.59A10.2,10.2,0,0,1,97,16.58a9.55,9.55,0,0,1,2.67-7.06,9.55,9.55,0,0,1,7.07-2.68,15.62,15.62,0,0,1,2.65.24,21.76,21.76,0,0,1,2.89.72v4.31h-1.56l-.42-2.55-.37-.5a8.28,8.28,0,0,0-1.58-.55,6.79,6.79,0,0,0-1.56-.18,6.28,6.28,0,0,0-5,2.17,8.72,8.72,0,0,0-1.86,5.89,9.19,9.19,0,0,0,1.94,6.21,6.75,6.75,0,0,0,5.39,2.25,8.31,8.31,0,0,0,1.21-.09,7.92,7.92,0,0,0,1.22-.28l.44-.44.69-3.12h1.5Z"/><path class="cls-5" d="M114.46,7.18h7.15a8.46,8.46,0,0,1,5.09,1.24,4.43,4.43,0,0,1,1.66,3.8,4.11,4.11,0,0,1-1.14,3,6.59,6.59,0,0,1-3.39,1.66,6.1,6.1,0,0,1,1.76.75,3.39,3.39,0,0,1,1.12,1.14,7.25,7.25,0,0,1,.8,2.22,15.57,15.57,0,0,0,.52,1.94,2.83,2.83,0,0,0,1.17,1.57,5.31,5.31,0,0,0,2.47.42h.25V26c-.42.08-.81.14-1.16.18a9.26,9.26,0,0,1-1,.06,6.13,6.13,0,0,1-1.66-.2,3,3,0,0,1-1.17-.61A6.84,6.84,0,0,1,125.25,22c-.16-.61-.3-1.07-.4-1.37a4.47,4.47,0,0,0-1.51-2.37,5.09,5.09,0,0,0-2.88-.66l-1.32,0-.09,0v6.67l.47.4,1.61.13V26h-6.67V24.85l1.59-.13.47-.4V8.87l-.47-.4-1.59-.16Zm4.59,1.29v7.8l.8,0h.74a6.23,6.23,0,0,0,3.79-.91,3.48,3.48,0,0,0,1.19-2.94,3.61,3.61,0,0,0-1.22-3,6.52,6.52,0,0,0-3.95-.94Z"/><path class="cls-5" d="M114.46,7.18h7.15a8.46,8.46,0,0,1,5.09,1.24,4.43,4.43,0,0,1,1.66,3.8,4.11,4.11,0,0,1-1.14,3,6.59,6.59,0,0,1-3.39,1.66,6.1,6.1,0,0,1,1.76.75,3.39,3.39,0,0,1,1.12,1.14,7.25,7.25,0,0,1,.8,2.22,15.57,15.57,0,0,0,.52,1.94,2.83,2.83,0,0,0,1.17,1.57,5.31,5.31,0,0,0,2.47.42h.25V26c-.42.08-.81.14-1.16.18a9.26,9.26,0,0,1-1,.06,6.13,6.13,0,0,1-1.66-.2,3,3,0,0,1-1.17-.61A6.84,6.84,0,0,1,125.25,22c-.16-.61-.3-1.07-.4-1.37a4.47,4.47,0,0,0-1.51-2.37,5.09,5.09,0,0,0-2.88-.66l-1.32,0-.09,0v6.67l.47.4,1.61.13V26h-6.67V24.85l1.59-.13.47-.4V8.87l-.47-.4-1.59-.16Zm4.59,1.29v7.8l.8,0h.74a6.23,6.23,0,0,0,3.79-.91,3.48,3.48,0,0,0,1.19-2.94,3.61,3.61,0,0,0-1.22-3,6.52,6.52,0,0,0-3.95-.94Z"/><polygon class="cls-5" points="132.63 26 132.63 24.85 134.43 24.71 134.91 24.32 134.91 8.87 134.43 8.47 132.63 8.3 132.63 7.18 139.76 7.18 139.76 8.3 137.96 8.47 137.48 8.87 137.48 24.32 137.96 24.71 139.76 24.85 139.76 26 132.63 26"/><polygon class="cls-5" points="132.63 26 132.63 24.85 134.43 24.71 134.91 24.32 134.91 8.87 134.43 8.47 132.63 8.3 132.63 7.18 139.76 7.18 139.76 8.3 137.96 8.47 137.48 8.87 137.48 24.32 137.96 24.71 139.76 24.85 139.76 26 132.63 26"/><path class="cls-5" d="M142.43,25.44V20.51h1.66l.32,3.22.37.48a5.85,5.85,0,0,0,1.41.48,8.55,8.55,0,0,0,1.73.16,4.83,4.83,0,0,0,3.1-.91,3,3,0,0,0,1.15-2.46c0-1.43-1.35-2.72-4-3.86l-.67-.29A11.07,11.07,0,0,1,143.66,15a4.12,4.12,0,0,1-.93-2.79,4.82,4.82,0,0,1,1.77-3.89,7.09,7.09,0,0,1,4.71-1.49,13.51,13.51,0,0,1,2.36.2,17.37,17.37,0,0,1,2.42.59V12h-1.47l-.42-2.66-.41-.47a4.58,4.58,0,0,0-1.17-.45,6.48,6.48,0,0,0-1.37-.14,4,4,0,0,0-2.78.91,3.15,3.15,0,0,0-1,2.47,2.58,2.58,0,0,0,.72,1.89,10.88,10.88,0,0,0,3.21,1.8l.7.27a10.64,10.64,0,0,1,3.53,2,3.85,3.85,0,0,1,.92,1.38,4.51,4.51,0,0,1,.31,1.7,5,5,0,0,1-2,4.09,8.39,8.39,0,0,1-5.28,1.55,15.19,15.19,0,0,1-2.76-.23,10.12,10.12,0,0,1-2.29-.67"/><path class="cls-5" d="M142.43,25.44V20.51h1.66l.32,3.22.37.48a5.85,5.85,0,0,0,1.41.48,8.55,8.55,0,0,0,1.73.16,4.83,4.83,0,0,0,3.1-.91,3,3,0,0,0,1.15-2.46c0-1.43-1.35-2.72-4-3.86l-.67-.29A11.07,11.07,0,0,1,143.66,15a4.12,4.12,0,0,1-.93-2.79,4.82,4.82,0,0,1,1.77-3.89,7.09,7.09,0,0,1,4.71-1.49,13.51,13.51,0,0,1,2.36.2,17.37,17.37,0,0,1,2.42.59V12h-1.47l-.42-2.66-.41-.47a4.58,4.58,0,0,0-1.17-.45,6.48,6.48,0,0,0-1.37-.14,4,4,0,0,0-2.78.91,3.15,3.15,0,0,0-1,2.47,2.58,2.58,0,0,0,.72,1.89,10.88,10.88,0,0,0,3.21,1.8l.7.27a10.64,10.64,0,0,1,3.53,2,3.85,3.85,0,0,1,.92,1.38,4.51,4.51,0,0,1,.31,1.7,5,5,0,0,1-2,4.09,8.39,8.39,0,0,1-5.28,1.55,15.19,15.19,0,0,1-2.76-.23A10.12,10.12,0,0,1,142.43,25.44Z"/><polygon class="cls-5" points="156.8 7.18 172.65 7.18 172.65 11.49 171.1 11.49 170.71 8.89 170.32 8.47 166.03 8.47 166.03 24.32 166.49 24.71 168.38 24.85 168.38 26 161.06 26 161.06 24.85 162.93 24.71 163.41 24.32 163.41 8.47 159.12 8.47 158.73 8.89 158.33 11.49 156.8 11.49 156.8 7.18"/><polygon class="cls-5" points="156.8 7.18 172.65 7.18 172.65 11.49 171.1 11.49 170.71 8.89 170.32 8.47 166.03 8.47 166.03 24.32 166.49 24.71 168.38 24.85 168.38 26 161.06 26 161.06 24.85 162.93 24.71 163.41 24.32 163.41 8.47 159.12 8.47 158.73 8.89 158.33 11.49 156.8 11.49 156.8 7.18"/><path class="cls-5" d="M178,7h1.85l6.72,17.56,1.69.34V26h-6.37V24.85l1.74-.13.2-.4-2-5.36h-6.61l-2,5.36.29.4,1.82.13V26h-5.5V24.85l1.62-.34Zm.43,2.94-2.76,7.78h5.65Z"/><path class="cls-5" d="M178,7h1.85l6.72,17.56,1.69.34V26h-6.37V24.85l1.74-.13.2-.4-2-5.36h-6.61l-2,5.36.29.4,1.82.13V26h-5.5V24.85l1.62-.34Zm.43,2.94-2.76,7.78h5.65Z"/><polygon class="cls-5" points="188.7 26 188.7 24.85 190.46 24.71 190.94 24.32 190.94 8.87 190.46 8.47 188.7 8.3 188.7 7.18 195.55 7.18 195.55 8.3 193.94 8.47 193.47 8.87 193.47 24.71 199.81 24.71 200.21 24.26 200.68 20.89 202.13 20.89 202.13 26 188.7 26"/><polygon class="cls-5" points="188.7 26 188.7 24.85 190.46 24.71 190.94 24.32 190.94 8.87 190.46 8.47 188.7 8.3 188.7 7.18 195.55 7.18 195.55 8.3 193.94 8.47 193.47 8.87 193.47 24.71 199.81 24.71 200.21 24.26 200.68 20.89 202.13 20.89 202.13 26 188.7 26"/><polygon class="cls-5" points="203.52 26 203.52 24.85 205.31 24.71 205.79 24.32 205.79 8.87 205.31 8.47 203.52 8.3 203.52 7.18 210.64 7.18 210.64 8.3 208.85 8.47 208.37 8.87 208.37 24.32 208.85 24.71 210.64 24.85 210.64 26 203.52 26"/><polygon class="cls-5" points="203.52 26 203.52 24.85 205.31 24.71 205.79 24.32 205.79 8.87 205.31 8.47 203.52 8.3 203.52 7.18 210.64 7.18 210.64 8.3 208.85 8.47 208.37 8.87 208.37 24.32 208.85 24.71 210.64 24.85 210.64 26 203.52 26"/><polygon class="cls-5" points="212.44 26 212.44 24.85 214.15 24.63 214.66 24.1 214.66 8.87 214.15 8.47 212.35 8.3 212.35 7.18 217.63 7.18 217.63 7.88 227.2 22.25 227.2 9.06 226.69 8.55 225.01 8.3 225.01 7.18 230.9 7.18 230.9 8.3 229.22 8.55 228.71 9.06 228.71 26 226.86 26 216.18 10.07 216.18 24.1 216.68 24.63 218.37 24.85 218.37 26 212.44 26"/><polygon class="cls-5" points="212.44 26 212.44 24.85 214.15 24.63 214.66 24.1 214.66 8.87 214.15 8.47 212.35 8.3 212.35 7.18 217.63 7.18 217.63 7.88 227.2 22.25 227.2 9.06 226.69 8.55 225.01 8.3 225.01 7.18 230.9 7.18 230.9 8.3 229.22 8.55 228.71 9.06 228.71 26 226.86 26 216.18 10.07 216.18 24.1 216.68 24.63 218.37 24.85 218.37 26 212.44 26"/><path class="cls-5" d="M241.9,6.7a9,9,0,0,1,3.34.62,8.46,8.46,0,0,1,2.82,1.85,9,9,0,0,1,2.16,3.26,11.27,11.27,0,0,1,.73,4.15,11.61,11.61,0,0,1-.35,2.94,10.47,10.47,0,0,1-1.07,2.61,8.59,8.59,0,0,1-3.21,3.18,8.8,8.8,0,0,1-4.42,1.15,9.3,9.3,0,0,1-3.38-.62,8.3,8.3,0,0,1-2.8-1.8,9.07,9.07,0,0,1-2.16-3.27,11.7,11.7,0,0,1-.73-4.19,11.34,11.34,0,0,1,.73-4.17,8.88,8.88,0,0,1,2.13-3.24,8.63,8.63,0,0,1,2.83-1.84,9,9,0,0,1,3.38-.63m0,1.52a5.3,5.3,0,0,0-4.49,2.25,10.09,10.09,0,0,0-1.66,6.11,10.08,10.08,0,0,0,1.68,6.11,5.5,5.5,0,0,0,8.91,0,10.12,10.12,0,0,0,1.67-6.1,10.06,10.06,0,0,0-1.67-6.09,5.27,5.27,0,0,0-4.44-2.27"/><path class="cls-5" d="M241.9,6.7a9,9,0,0,1,3.34.62,8.46,8.46,0,0,1,2.82,1.85,9,9,0,0,1,2.16,3.26,11.27,11.27,0,0,1,.73,4.15,11.61,11.61,0,0,1-.35,2.94,10.47,10.47,0,0,1-1.07,2.61,8.59,8.59,0,0,1-3.21,3.18,8.8,8.8,0,0,1-4.42,1.15,9.3,9.3,0,0,1-3.38-.62,8.3,8.3,0,0,1-2.8-1.8,9.07,9.07,0,0,1-2.16-3.27,11.7,11.7,0,0,1-.73-4.19,11.34,11.34,0,0,1,.73-4.17,8.88,8.88,0,0,1,2.13-3.24,8.63,8.63,0,0,1,2.83-1.84A9,9,0,0,1,241.9,6.7Zm0,1.52a5.3,5.3,0,0,0-4.49,2.25,10.09,10.09,0,0,0-1.66,6.11,10.08,10.08,0,0,0,1.68,6.11,5.5,5.5,0,0,0,8.91,0,10.12,10.12,0,0,0,1.67-6.1,10.06,10.06,0,0,0-1.67-6.09A5.27,5.27,0,0,0,241.9,8.22Z"/><path d="M8.24,6.38h1.85l6.72,17.56,1.69.34v1.15H12.13V24.28l1.74-.14.21-.39-2-5.36H5.43l-2,5.36.29.39,1.82.14v1.15H.05V24.28l1.62-.34Zm.44,2.94L5.91,17.1h5.66Z"/><path class="cls-6" d="M8.24,6.38h1.85l6.72,17.56,1.69.34v1.15H12.13V24.28l1.74-.14.21-.39-2-5.36H5.43l-2,5.36.29.39,1.82.14v1.15H.05V24.28l1.62-.34Zm.44,2.94L5.91,17.1h5.66Z"/><path d="M19,25.43V24.28l1.71-.22.51-.53V8.29l-.51-.39-1.8-.17V6.61H24.2v.7l9.57,14.37V8.49L33.27,8l-1.69-.25V6.61h5.89V7.73L35.79,8l-.51.51V25.43H33.43L22.75,9.5v14l.5.53,1.69.22v1.15ZM31.32.05h1.15s0,.11,0,.2a2,2,0,0,1,0,.22,3.36,3.36,0,0,1-.66,2.15,2.1,2.1,0,0,1-1.7.83,5.27,5.27,0,0,1-2.34-.74A6,6,0,0,0,26.1,2a.83.83,0,0,0-.72.41A1.92,1.92,0,0,0,25.1,3.5a1.37,1.37,0,0,0,0,.16c0,.08,0,.13,0,.17h-1.2V3.56a3.75,3.75,0,0,1,.6-2.3A2.11,2.11,0,0,1,26.31.47a4.87,4.87,0,0,1,2.17.73,5.48,5.48,0,0,0,1.69.73,1,1,0,0,0,.88-.42A2.46,2.46,0,0,0,31.32.19Z"/><path class="cls-6" d="M19,25.43V24.28l1.71-.22.51-.53V8.29l-.51-.39-1.8-.17V6.61H24.2v.7l9.57,14.37V8.49L33.27,8l-1.69-.25V6.61h5.89V7.73L35.79,8l-.51.51V25.43H33.43L22.75,9.5v14l.5.53,1.69.22v1.15ZM31.32.05h1.15s0,.11,0,.2a2,2,0,0,1,0,.22,3.36,3.36,0,0,1-.66,2.15,2.1,2.1,0,0,1-1.7.83,5.27,5.27,0,0,1-2.34-.74A6,6,0,0,0,26.1,2a.83.83,0,0,0-.72.41A1.92,1.92,0,0,0,25.1,3.5a1.37,1.37,0,0,0,0,.16c0,.08,0,.13,0,.17h-1.2V3.56a3.75,3.75,0,0,1,.6-2.3A2.11,2.11,0,0,1,26.31.47a4.87,4.87,0,0,1,2.17.73,5.48,5.48,0,0,0,1.69.73,1,1,0,0,0,.88-.42A2.46,2.46,0,0,0,31.32.19Z"/><polygon points="39.13 25.43 39.13 24.28 40.72 24.14 41.2 23.75 41.2 8.3 40.72 7.9 39.13 7.73 39.13 6.61 52.57 6.61 52.57 10.71 50.99 10.71 50.59 8.32 50.21 7.9 43.72 7.9 43.72 14.99 48.32 14.99 48.72 14.6 48.99 12.56 50.32 12.56 50.32 18.73 48.99 18.73 48.72 16.7 48.32 16.28 43.72 16.28 43.72 24.14 51.24 24.14 51.64 23.69 52.12 20.86 53.57 20.86 53.57 25.43 39.13 25.43"/><polygon class="cls-6" points="39.13 25.43 39.13 24.28 40.72 24.14 41.2 23.75 41.2 8.3 40.72 7.9 39.13 7.73 39.13 6.61 52.57 6.61 52.57 10.71 50.99 10.71 50.59 8.32 50.21 7.9 43.72 7.9 43.72 14.99 48.32 14.99 48.72 14.6 48.99 12.56 50.32 12.56 50.32 18.73 48.99 18.73 48.72 16.7 48.32 16.28 43.72 16.28 43.72 24.14 51.24 24.14 51.64 23.69 52.12 20.86 53.57 20.86 53.57 25.43 39.13 25.43"/><path d="M62,8.3l-.48-.4-1.87-.17V6.61H66.7V7.73L65,7.9l-.48.4v10q0,3.9-1.48,5.71a5.61,5.61,0,0,1-4.62,1.81,9.11,9.11,0,0,1-1.79-.17,12.13,12.13,0,0,1-1.89-.51V20.4h1.57l.67,3.54.39.37a4.33,4.33,0,0,0,.5.08,3.91,3.91,0,0,0,.49,0A3,3,0,0,0,61.09,23,9.26,9.26,0,0,0,62,18.36Z"/><path class="cls-6" d="M62,8.3l-.48-.4-1.87-.17V6.61H66.7V7.73L65,7.9l-.48.4v10q0,3.9-1.48,5.71a5.61,5.61,0,0,1-4.62,1.81,9.11,9.11,0,0,1-1.79-.17,12.13,12.13,0,0,1-1.89-.51V20.4h1.57l.67,3.54.39.37a4.33,4.33,0,0,0,.5.08,3.91,3.91,0,0,0,.49,0A3,3,0,0,0,61.09,23,9.26,9.26,0,0,0,62,18.36Z"/><path d="M77.09,6.13a9,9,0,0,1,3.34.62A8.51,8.51,0,0,1,83.25,8.6a9,9,0,0,1,2.16,3.26A11.27,11.27,0,0,1,86.14,16,11.61,11.61,0,0,1,85.78,19a10.08,10.08,0,0,1-1.06,2.61,8.67,8.67,0,0,1-3.21,3.18,8.82,8.82,0,0,1-4.42,1.14,9.22,9.22,0,0,1-3.38-.61,8.21,8.21,0,0,1-2.8-1.8,9.07,9.07,0,0,1-2.16-3.27A11.48,11.48,0,0,1,68,16a11.55,11.55,0,0,1,.72-4.17A9,9,0,0,1,70.88,8.6a8.37,8.37,0,0,1,2.83-1.84,9,9,0,0,1,3.38-.63m0,1.52A5.3,5.3,0,0,0,72.6,9.9,10.09,10.09,0,0,0,70.94,16a10.15,10.15,0,0,0,1.67,6.11,5.3,5.3,0,0,0,4.48,2.27,5.22,5.22,0,0,0,4.43-2.28A10,10,0,0,0,83.19,16a10,10,0,0,0-1.67-6.09,5.24,5.24,0,0,0-4.43-2.27"/><path class="cls-6" d="M77.09,6.13a9,9,0,0,1,3.34.62A8.51,8.51,0,0,1,83.25,8.6a9,9,0,0,1,2.16,3.26A11.27,11.27,0,0,1,86.14,16,11.61,11.61,0,0,1,85.78,19a10.08,10.08,0,0,1-1.06,2.61,8.67,8.67,0,0,1-3.21,3.18,8.82,8.82,0,0,1-4.42,1.14,9.22,9.22,0,0,1-3.38-.61,8.21,8.21,0,0,1-2.8-1.8,9.07,9.07,0,0,1-2.16-3.27A11.48,11.48,0,0,1,68,16a11.55,11.55,0,0,1,.72-4.17A9,9,0,0,1,70.88,8.6a8.37,8.37,0,0,1,2.83-1.84A9,9,0,0,1,77.09,6.13Zm0,1.52A5.3,5.3,0,0,0,72.6,9.9,10.09,10.09,0,0,0,70.94,16a10.15,10.15,0,0,0,1.67,6.11,5.3,5.3,0,0,0,4.48,2.27,5.22,5.22,0,0,0,4.43-2.28A10,10,0,0,0,83.19,16a10,10,0,0,0-1.67-6.09A5.24,5.24,0,0,0,77.09,7.65Z"/><path d="M111.6,24.79a18.25,18.25,0,0,1-2.82.73,16.17,16.17,0,0,1-2.83.25,11.18,11.18,0,0,1-2.59-.28,8.52,8.52,0,0,1-2.19-.84,9.26,9.26,0,0,1-3.56-3.6,10.14,10.14,0,0,1-1.29-5A9.59,9.59,0,0,1,99,8.94a9.58,9.58,0,0,1,7.07-2.67,15.62,15.62,0,0,1,2.65.24,21.76,21.76,0,0,1,2.89.72v4.31H110L109.62,9l-.37-.5a8.28,8.28,0,0,0-1.58-.55,6.79,6.79,0,0,0-1.56-.18,6.28,6.28,0,0,0-5,2.17,8.71,8.71,0,0,0-1.86,5.88A9.26,9.26,0,0,0,101.15,22a6.75,6.75,0,0,0,5.39,2.25,8.31,8.31,0,0,0,1.21-.09,7.92,7.92,0,0,0,1.22-.28l.44-.44.69-3.12h1.5Z"/><path class="cls-6" d="M111.6,24.79a18.25,18.25,0,0,1-2.82.73,16.17,16.17,0,0,1-2.83.25,11.18,11.18,0,0,1-2.59-.28,8.52,8.52,0,0,1-2.19-.84,9.26,9.26,0,0,1-3.56-3.6,10.14,10.14,0,0,1-1.29-5A9.59,9.59,0,0,1,99,8.94a9.58,9.58,0,0,1,7.07-2.67,15.62,15.62,0,0,1,2.65.24,21.76,21.76,0,0,1,2.89.72v4.31H110L109.62,9l-.37-.5a8.28,8.28,0,0,0-1.58-.55,6.79,6.79,0,0,0-1.56-.18,6.28,6.28,0,0,0-5,2.17,8.71,8.71,0,0,0-1.86,5.88A9.26,9.26,0,0,0,101.15,22a6.75,6.75,0,0,0,5.39,2.25,8.31,8.31,0,0,0,1.21-.09,7.92,7.92,0,0,0,1.22-.28l.44-.44.69-3.12h1.5Z"/><path d="M113.77,6.61h7.15A8.46,8.46,0,0,1,126,7.85a4.41,4.41,0,0,1,1.66,3.8,4.11,4.11,0,0,1-1.14,3,6.59,6.59,0,0,1-3.39,1.66,6.1,6.1,0,0,1,1.76.75A3.51,3.51,0,0,1,126,18.19a7.55,7.55,0,0,1,.79,2.22,15.57,15.57,0,0,0,.52,1.94,2.87,2.87,0,0,0,1.17,1.57,5.47,5.47,0,0,0,2.48.42h.24V25.4c-.42.09-.81.15-1.16.19a9.26,9.26,0,0,1-1,.06,6.13,6.13,0,0,1-1.66-.2,3.1,3.1,0,0,1-1.17-.61,6.84,6.84,0,0,1-1.66-3.42c-.16-.62-.3-1.07-.4-1.37a4.47,4.47,0,0,0-1.51-2.37,5.09,5.09,0,0,0-2.88-.66l-1.32,0-.09,0v6.67l.48.39,1.6.14v1.15h-6.67V24.28l1.59-.14.48-.39V8.3l-.48-.4-1.59-.17Zm4.59,1.29v7.8l.81,0h.73a6.23,6.23,0,0,0,3.79-.91,3.48,3.48,0,0,0,1.19-2.94,3.61,3.61,0,0,0-1.22-3,6.52,6.52,0,0,0-4-.94Z"/><path class="cls-6" d="M113.77,6.61h7.15A8.46,8.46,0,0,1,126,7.85a4.41,4.41,0,0,1,1.66,3.8,4.11,4.11,0,0,1-1.14,3,6.59,6.59,0,0,1-3.39,1.66,6.1,6.1,0,0,1,1.76.75A3.51,3.51,0,0,1,126,18.19a7.55,7.55,0,0,1,.79,2.22,15.57,15.57,0,0,0,.52,1.94,2.87,2.87,0,0,0,1.17,1.57,5.47,5.47,0,0,0,2.48.42h.24V25.4c-.42.09-.81.15-1.16.19a9.26,9.26,0,0,1-1,.06,6.13,6.13,0,0,1-1.66-.2,3.1,3.1,0,0,1-1.17-.61,6.84,6.84,0,0,1-1.66-3.42c-.16-.62-.3-1.07-.4-1.37a4.47,4.47,0,0,0-1.51-2.37,5.09,5.09,0,0,0-2.88-.66l-1.32,0-.09,0v6.67l.48.39,1.6.14v1.15h-6.67V24.28l1.59-.14.48-.39V8.3l-.48-.4-1.59-.17Zm4.59,1.29v7.8l.81,0h.73a6.23,6.23,0,0,0,3.79-.91,3.48,3.48,0,0,0,1.19-2.94,3.61,3.61,0,0,0-1.22-3,6.52,6.52,0,0,0-4-.94Z"/><polygon points="131.94 25.43 131.94 24.28 133.74 24.14 134.22 23.75 134.22 8.3 133.74 7.9 131.94 7.73 131.94 6.61 139.07 6.61 139.07 7.73 137.27 7.9 136.79 8.3 136.79 23.75 137.27 24.14 139.07 24.28 139.07 25.43 131.94 25.43"/><polygon class="cls-6" points="131.94 25.43 131.94 24.28 133.74 24.14 134.22 23.75 134.22 8.3 133.74 7.9 131.94 7.73 131.94 6.61 139.07 6.61 139.07 7.73 137.27 7.9 136.79 8.3 136.79 23.75 137.27 24.14 139.07 24.28 139.07 25.43 131.94 25.43"/><path d="M141.74,24.87V19.94h1.66l.32,3.22.37.48a5.39,5.39,0,0,0,1.42.47,7.72,7.72,0,0,0,1.72.17,4.81,4.81,0,0,0,3.1-.91,3,3,0,0,0,1.15-2.46q0-2.14-4-3.86l-.67-.29A11.07,11.07,0,0,1,143,14.44a4.12,4.12,0,0,1-.93-2.79,4.84,4.84,0,0,1,1.77-3.9,7.09,7.09,0,0,1,4.71-1.48,13.51,13.51,0,0,1,2.36.2,17.37,17.37,0,0,1,2.42.59V11.4h-1.47l-.42-2.67L151,8.27a4.66,4.66,0,0,0-1.16-.45,6.65,6.65,0,0,0-1.38-.14,4,4,0,0,0-2.78.91,3.15,3.15,0,0,0-1,2.47,2.58,2.58,0,0,0,.72,1.88,10.61,10.61,0,0,0,3.21,1.81l.7.27a10.64,10.64,0,0,1,3.53,2,4,4,0,0,1,.93,1.38,4.71,4.71,0,0,1,.3,1.7,5,5,0,0,1-2,4.09,8.39,8.39,0,0,1-5.28,1.55,16.22,16.22,0,0,1-2.76-.23,10.66,10.66,0,0,1-2.29-.67"/><path class="cls-6" d="M141.74,24.87V19.94h1.66l.32,3.22.37.48a5.39,5.39,0,0,0,1.42.47,7.72,7.72,0,0,0,1.72.17,4.81,4.81,0,0,0,3.1-.91,3,3,0,0,0,1.15-2.46q0-2.14-4-3.86l-.67-.29A11.07,11.07,0,0,1,143,14.44a4.12,4.12,0,0,1-.93-2.79,4.84,4.84,0,0,1,1.77-3.9,7.09,7.09,0,0,1,4.71-1.48,13.51,13.51,0,0,1,2.36.2,17.37,17.37,0,0,1,2.42.59V11.4h-1.47l-.42-2.67L151,8.27a4.66,4.66,0,0,0-1.16-.45,6.65,6.65,0,0,0-1.38-.14,4,4,0,0,0-2.78.91,3.15,3.15,0,0,0-1,2.47,2.58,2.58,0,0,0,.72,1.88,10.61,10.61,0,0,0,3.21,1.81l.7.27a10.64,10.64,0,0,1,3.53,2,4,4,0,0,1,.93,1.38,4.71,4.71,0,0,1,.3,1.7,5,5,0,0,1-2,4.09,8.39,8.39,0,0,1-5.28,1.55,16.22,16.22,0,0,1-2.76-.23A10.66,10.66,0,0,1,141.74,24.87Z"/><polygon points="156.11 6.61 171.96 6.61 171.96 10.92 170.41 10.92 170.02 8.32 169.63 7.9 165.34 7.9 165.34 23.75 165.8 24.14 167.69 24.28 167.69 25.43 160.37 25.43 160.37 24.28 162.24 24.14 162.72 23.75 162.72 7.9 158.44 7.9 158.04 8.32 157.64 10.92 156.11 10.92 156.11 6.61"/><polygon class="cls-6" points="156.11 6.61 171.96 6.61 171.96 10.92 170.41 10.92 170.02 8.32 169.63 7.9 165.34 7.9 165.34 23.75 165.8 24.14 167.69 24.28 167.69 25.43 160.37 25.43 160.37 24.28 162.24 24.14 162.72 23.75 162.72 7.9 158.44 7.9 158.04 8.32 157.64 10.92 156.11 10.92 156.11 6.61"/><path d="M177.3,6.38h1.85l6.72,17.56,1.69.34v1.15h-6.37V24.28l1.74-.14.2-.39-2-5.36h-6.61l-2,5.36.29.39,1.82.14v1.15h-5.49V24.28l1.61-.34Zm.43,2.94L175,17.1h5.66Z"/><path class="cls-6" d="M177.3,6.38h1.85l6.72,17.56,1.69.34v1.15h-6.37V24.28l1.74-.14.2-.39-2-5.36h-6.61l-2,5.36.29.39,1.82.14v1.15h-5.49V24.28l1.61-.34Zm.43,2.94L175,17.1h5.66Z"/><polygon points="188.01 25.43 188.01 24.28 189.78 24.14 190.25 23.75 190.25 8.3 189.78 7.9 188.01 7.73 188.01 6.61 194.86 6.61 194.86 7.73 193.25 7.9 192.78 8.3 192.78 24.14 199.12 24.14 199.52 23.69 199.99 20.32 201.45 20.32 201.45 25.43 188.01 25.43"/><polygon class="cls-6" points="188.01 25.43 188.01 24.28 189.78 24.14 190.25 23.75 190.25 8.3 189.78 7.9 188.01 7.73 188.01 6.61 194.86 6.61 194.86 7.73 193.25 7.9 192.78 8.3 192.78 24.14 199.12 24.14 199.52 23.69 199.99 20.32 201.45 20.32 201.45 25.43 188.01 25.43"/><polygon points="202.83 25.43 202.83 24.28 204.63 24.14 205.1 23.75 205.1 8.3 204.63 7.9 202.83 7.73 202.83 6.61 209.95 6.61 209.95 7.73 208.16 7.9 207.68 8.3 207.68 23.75 208.16 24.14 209.95 24.28 209.95 25.43 202.83 25.43"/><polygon class="cls-6" points="202.83 25.43 202.83 24.28 204.63 24.14 205.1 23.75 205.1 8.3 204.63 7.9 202.83 7.73 202.83 6.61 209.95 6.61 209.95 7.73 208.16 7.9 207.68 8.3 207.68 23.75 208.16 24.14 209.95 24.28 209.95 25.43 202.83 25.43"/><polygon points="211.75 25.43 211.75 24.28 213.46 24.06 213.97 23.52 213.97 8.3 213.46 7.9 211.66 7.73 211.66 6.61 216.94 6.61 216.94 7.31 226.51 21.68 226.51 8.49 226 7.98 224.32 7.73 224.32 6.61 230.21 6.61 230.21 7.73 228.53 7.98 228.02 8.49 228.02 25.43 226.17 25.43 215.49 9.5 215.49 23.52 215.99 24.06 217.68 24.28 217.68 25.43 211.75 25.43"/><polygon class="cls-6" points="211.75 25.43 211.75 24.28 213.46 24.06 213.97 23.52 213.97 8.3 213.46 7.9 211.66 7.73 211.66 6.61 216.94 6.61 216.94 7.31 226.51 21.68 226.51 8.49 226 7.98 224.32 7.73 224.32 6.61 230.21 6.61 230.21 7.73 228.53 7.98 228.02 8.49 228.02 25.43 226.17 25.43 215.49 9.5 215.49 23.52 215.99 24.06 217.68 24.28 217.68 25.43 211.75 25.43"/><path d="M241.21,6.13a8.94,8.94,0,0,1,3.34.62,8.31,8.31,0,0,1,2.82,1.85,9,9,0,0,1,2.16,3.26,11.27,11.27,0,0,1,.73,4.15,11.61,11.61,0,0,1-.35,2.94,10.1,10.1,0,0,1-1.07,2.61,8.59,8.59,0,0,1-3.21,3.18,8.79,8.79,0,0,1-4.42,1.14,9.21,9.21,0,0,1-3.37-.61,8.34,8.34,0,0,1-2.81-1.8,8.92,8.92,0,0,1-2.15-3.27,11.48,11.48,0,0,1-.74-4.19,11.34,11.34,0,0,1,.73-4.17A8.88,8.88,0,0,1,235,8.6a8.51,8.51,0,0,1,2.84-1.84,8.94,8.94,0,0,1,3.37-.63m0,1.52a5.32,5.32,0,0,0-4.49,2.25A10.09,10.09,0,0,0,235.06,16a10.08,10.08,0,0,0,1.68,6.11,5.5,5.5,0,0,0,8.91,0,10.12,10.12,0,0,0,1.67-6.1,10.06,10.06,0,0,0-1.67-6.09,5.26,5.26,0,0,0-4.44-2.27"/><path class="cls-6" d="M241.21,6.13a8.94,8.94,0,0,1,3.34.62,8.31,8.31,0,0,1,2.82,1.85,9,9,0,0,1,2.16,3.26,11.27,11.27,0,0,1,.73,4.15,11.61,11.61,0,0,1-.35,2.94,10.1,10.1,0,0,1-1.07,2.61,8.59,8.59,0,0,1-3.21,3.18,8.79,8.79,0,0,1-4.42,1.14,9.21,9.21,0,0,1-3.37-.61,8.34,8.34,0,0,1-2.81-1.8,8.92,8.92,0,0,1-2.15-3.27,11.48,11.48,0,0,1-.74-4.19,11.34,11.34,0,0,1,.73-4.17A8.88,8.88,0,0,1,235,8.6a8.51,8.51,0,0,1,2.84-1.84A8.94,8.94,0,0,1,241.21,6.13Zm0,1.52a5.32,5.32,0,0,0-4.49,2.25A10.09,10.09,0,0,0,235.06,16a10.08,10.08,0,0,0,1.68,6.11,5.5,5.5,0,0,0,8.91,0,10.12,10.12,0,0,0,1.67-6.1,10.06,10.06,0,0,0-1.67-6.09A5.26,5.26,0,0,0,241.21,7.65Z"/></g></g></svg>