<?xml version="1.0" encoding="UTF-8"?><svg xmlns="http://www.w3.org/2000/svg" viewBox="0 0 104.56 27.59"><defs><style>.d{fill:#fdfefe;}.e{fill:#dad2be;}</style></defs><g id="a"/><g id="b"><g id="c"><g><path class="e" d="M7.85,4.72h1.65l5.99,15.65,1.5,.31v1.03h-5.68v-1.03l1.55-.12,.18-.35-1.81-4.77H5.35l-1.78,4.77,.26,.35,1.62,.12v1.03H.55v-1.03l1.44-.31L7.85,4.72Zm.39,2.62l-2.47,6.93h5.04l-2.58-6.93Z"/><path class="e" d="M22.11,21.7l-4.2-15.43-1.57-.34v-1h5.6v1l-1.58,.2-.21,.35,3.24,11.55,4.02-13.1h1.76l4.09,13.37,3.03-11.72-.27-.35-1.67-.29v-1h5.16v1l-1.67,.34-3.97,15.43h-1.71l-4.22-13.67-4.15,13.67h-1.67Z"/><path class="e" d="M45.81,4.72h1.65l5.99,15.65,1.5,.31v1.03h-5.68v-1.03l1.55-.12,.18-.35-1.81-4.77h-5.9l-1.78,4.77,.26,.35,1.62,.12v1.03h-4.89v-1.03l1.44-.31,5.86-15.65Zm.39,2.62l-2.47,6.93h5.04l-2.58-6.93Z"/><path class="e" d="M56.14,4.92h6.37c2.04,0,3.56,.37,4.54,1.1,.98,.74,1.48,1.87,1.48,3.39,0,1.08-.34,1.97-1.01,2.67-.68,.7-1.68,1.19-3.03,1.48,.63,.17,1.15,.39,1.57,.67,.42,.27,.76,.61,1,1.02,.28,.45,.51,1.1,.71,1.97,.2,.87,.35,1.44,.46,1.73,.25,.68,.6,1.15,1.04,1.4,.44,.25,1.18,.37,2.21,.37h.22v.95c-.38,.07-.72,.13-1.04,.17-.32,.04-.62,.05-.9,.05-.58,0-1.07-.06-1.48-.18-.41-.12-.76-.3-1.04-.54-.59-.52-1.09-1.54-1.48-3.05-.15-.54-.26-.95-.35-1.22-.33-1.02-.78-1.72-1.35-2.11s-1.42-.59-2.57-.59c-.24,0-.63,.01-1.17,.04h-.08v5.96l.43,.35,1.43,.12v1.03h-5.95v-1.03l1.42-.12,.43-.35V6.42l-.43-.35-1.42-.15v-1Zm4.09,1.15v6.97c.25,0,.49,.01,.72,.02,.23,0,.45,0,.66,0,1.55,0,2.67-.27,3.38-.82,.7-.54,1.06-1.42,1.06-2.62s-.36-2.15-1.09-2.71-1.9-.84-3.52-.84h-1.21Z"/><path class="e" d="M79.08,4.92c2.93,0,5.2,.73,6.81,2.19,1.61,1.46,2.42,3.52,2.42,6.18,0,1.48-.26,2.8-.79,3.95-.52,1.15-1.3,2.12-2.34,2.9-.73,.55-1.56,.95-2.48,1.19-.92,.24-2.13,.36-3.63,.36h-6.16v-1.03l1.42-.12,.43-.35V6.42l-.43-.35-1.42-.15v-1h6.16Zm-2.07,1.15v14.48h1.98c2.28,0,3.98-.6,5.11-1.8,1.13-1.2,1.69-3.02,1.69-5.45s-.56-4.25-1.68-5.44c-1.12-1.19-2.83-1.79-5.12-1.79h-1.98Z"/><path class="e" d="M91.53,21.19v-4.39h1.48l.29,2.87,.33,.43c.37,.19,.79,.33,1.26,.43s.98,.15,1.54,.15c1.16,0,2.08-.27,2.76-.81,.68-.54,1.02-1.27,1.02-2.19,0-1.28-1.2-2.42-3.59-3.44-.26-.11-.46-.2-.6-.26-1.71-.74-2.84-1.43-3.39-2.07-.55-.64-.83-1.47-.83-2.48,0-1.43,.53-2.59,1.58-3.47,1.05-.88,2.45-1.32,4.19-1.32,.7,0,1.4,.06,2.11,.18,.7,.12,1.42,.29,2.16,.53v3.87h-1.31l-.38-2.38-.37-.42c-.32-.18-.66-.31-1.04-.4-.37-.08-.78-.13-1.22-.13-1.04,0-1.87,.27-2.48,.81-.61,.54-.92,1.28-.92,2.2,0,.68,.21,1.23,.64,1.68,.43,.44,1.38,.98,2.86,1.61,.14,.06,.35,.14,.62,.24,1.46,.57,2.51,1.17,3.15,1.81,.37,.36,.64,.77,.82,1.23,.18,.46,.27,.97,.27,1.51,0,1.51-.59,2.72-1.77,3.64-1.18,.92-2.75,1.38-4.7,1.38-.87,0-1.69-.07-2.46-.21-.77-.14-1.45-.34-2.04-.6Z"/></g><g><path class="d" d="M7.61,4.34h1.65l5.99,15.65,1.5,.31v1.03h-5.68v-1.03l1.55-.12,.18-.35-1.81-4.77H5.11l-1.78,4.77,.26,.35,1.62,.12v1.03H.31v-1.03l1.44-.31L7.61,4.34Zm.39,2.62l-2.47,6.93h5.04l-2.58-6.93Z"/><path class="d" d="M21.87,21.32l-4.2-15.43-1.57-.34v-1h5.6v1l-1.58,.2-.21,.35,3.24,11.55,4.02-13.1h1.76l4.09,13.37,3.03-11.72-.27-.35-1.67-.29v-1h5.16v1l-1.67,.34-3.97,15.43h-1.71l-4.22-13.67-4.15,13.67h-1.67Z"/><path class="d" d="M45.57,4.34h1.65l5.99,15.65,1.5,.31v1.03h-5.68v-1.03l1.55-.12,.18-.35-1.81-4.77h-5.9l-1.78,4.77,.26,.35,1.62,.12v1.03h-4.89v-1.03l1.44-.31,5.86-15.65Zm.39,2.62l-2.47,6.93h5.04l-2.58-6.93Z"/><path class="d" d="M55.9,4.54h6.37c2.04,0,3.56,.37,4.54,1.1,.98,.74,1.48,1.87,1.48,3.39,0,1.08-.34,1.97-1.01,2.67-.68,.7-1.68,1.19-3.03,1.48,.63,.17,1.15,.39,1.57,.67,.42,.27,.76,.61,1,1.02,.28,.45,.51,1.1,.71,1.97,.2,.87,.35,1.44,.46,1.73,.25,.68,.6,1.15,1.04,1.4,.44,.25,1.18,.37,2.21,.37h.22v.95c-.38,.07-.72,.13-1.04,.17-.32,.04-.62,.05-.9,.05-.58,0-1.07-.06-1.48-.18-.41-.12-.76-.3-1.04-.54-.59-.52-1.09-1.54-1.48-3.05-.15-.54-.26-.95-.35-1.22-.33-1.02-.78-1.72-1.35-2.11s-1.42-.59-2.57-.59c-.24,0-.63,.01-1.17,.04h-.08v5.96l.43,.35,1.43,.12v1.03h-5.95v-1.03l1.42-.12,.43-.35V6.05l-.43-.35-1.42-.15v-1Zm4.09,1.15v6.97c.25,0,.49,.01,.72,.02,.23,0,.45,0,.66,0,1.55,0,2.67-.27,3.38-.82,.7-.54,1.06-1.42,1.06-2.62s-.36-2.15-1.09-2.71-1.9-.84-3.52-.84h-1.21Z"/><path class="d" d="M78.84,4.54c2.93,0,5.2,.73,6.81,2.19,1.61,1.46,2.42,3.52,2.42,6.18,0,1.48-.26,2.8-.79,3.95-.52,1.15-1.3,2.12-2.34,2.9-.73,.55-1.56,.95-2.48,1.19-.92,.24-2.13,.36-3.63,.36h-6.16v-1.03l1.42-.12,.43-.35V6.05l-.43-.35-1.42-.15v-1h6.16Zm-2.07,1.15v14.48h1.98c2.28,0,3.98-.6,5.11-1.8,1.13-1.2,1.69-3.02,1.69-5.45s-.56-4.25-1.68-5.44c-1.12-1.19-2.83-1.79-5.12-1.79h-1.98Z"/><path class="d" d="M91.29,20.82v-4.39h1.48l.29,2.87,.33,.43c.37,.19,.79,.33,1.26,.43s.98,.15,1.54,.15c1.16,0,2.08-.27,2.76-.81,.68-.54,1.02-1.27,1.02-2.19,0-1.28-1.2-2.42-3.59-3.44-.26-.11-.46-.2-.6-.26-1.71-.74-2.84-1.43-3.39-2.07-.55-.64-.83-1.47-.83-2.48,0-1.43,.53-2.59,1.58-3.47,1.05-.88,2.45-1.32,4.19-1.32,.7,0,1.4,.06,2.11,.18,.7,.12,1.42,.29,2.16,.53v3.87h-1.31l-.38-2.38-.37-.42c-.32-.18-.66-.31-1.04-.4-.37-.08-.78-.13-1.22-.13-1.04,0-1.87,.27-2.48,.81-.61,.54-.92,1.28-.92,2.2,0,.68,.21,1.23,.64,1.68,.43,.44,1.38,.98,2.86,1.61,.14,.06,.35,.14,.62,.24,1.46,.57,2.51,1.17,3.15,1.81,.37,.36,.64,.77,.82,1.23,.18,.46,.27,.97,.27,1.51,0,1.51-.59,2.72-1.77,3.64-1.18,.92-2.75,1.38-4.7,1.38-.87,0-1.69-.07-2.46-.21-.77-.14-1.45-.34-2.04-.6Z"/></g><g><path d="M7.3,3.91h1.65l5.99,15.65,1.5,.31v1.03h-5.68v-1.03l1.55-.12,.18-.35-1.81-4.77H4.8l-1.78,4.77,.26,.35,1.62,.12v1.03H0v-1.03l1.44-.31L7.3,3.91Zm.39,2.62l-2.47,6.93h5.04l-2.58-6.93Z"/><path d="M21.56,20.89l-4.2-15.43-1.57-.34v-1h5.6v1l-1.58,.2-.21,.35,3.24,11.55,4.02-13.1h1.76l4.09,13.37,3.03-11.72-.27-.35-1.67-.29v-1h5.16v1l-1.67,.34-3.97,15.43h-1.71l-4.22-13.67-4.15,13.67h-1.67Z"/><path d="M45.26,3.91h1.65l5.99,15.65,1.5,.31v1.03h-5.68v-1.03l1.55-.12,.18-.35-1.81-4.77h-5.9l-1.78,4.77,.26,.35,1.62,.12v1.03h-4.89v-1.03l1.44-.31,5.86-15.65Zm.39,2.62l-2.47,6.93h5.04l-2.58-6.93Z"/><path d="M55.59,4.11h6.37c2.04,0,3.56,.37,4.54,1.1,.98,.74,1.48,1.87,1.48,3.39,0,1.08-.34,1.97-1.01,2.67-.68,.7-1.68,1.19-3.03,1.48,.63,.17,1.15,.39,1.57,.67,.42,.27,.76,.61,1,1.02,.28,.45,.51,1.1,.71,1.97,.2,.87,.35,1.44,.46,1.73,.25,.68,.6,1.15,1.04,1.4,.44,.25,1.18,.37,2.21,.37h.22v.95c-.38,.07-.72,.13-1.04,.17-.32,.04-.62,.05-.9,.05-.58,0-1.07-.06-1.48-.18-.41-.12-.76-.3-1.04-.54-.59-.52-1.09-1.54-1.48-3.05-.15-.54-.26-.95-.35-1.22-.33-1.02-.78-1.72-1.35-2.11s-1.42-.59-2.57-.59c-.24,0-.63,.01-1.17,.04h-.08v5.96l.43,.35,1.43,.12v1.03h-5.95v-1.03l1.42-.12,.43-.35V5.62l-.43-.35-1.42-.15v-1Zm4.09,1.15v6.97c.25,0,.49,.01,.72,.02,.23,0,.45,0,.66,0,1.55,0,2.67-.27,3.38-.82,.7-.54,1.06-1.42,1.06-2.62s-.36-2.15-1.09-2.71-1.9-.84-3.52-.84h-1.21Z"/><path d="M78.53,4.11c2.93,0,5.2,.73,6.81,2.19,1.61,1.46,2.42,3.52,2.42,6.18,0,1.48-.26,2.8-.79,3.95-.52,1.15-1.3,2.12-2.34,2.9-.73,.55-1.56,.95-2.48,1.19-.92,.24-2.13,.36-3.63,.36h-6.16v-1.03l1.42-.12,.43-.35V5.62l-.43-.35-1.42-.15v-1h6.16Zm-2.07,1.15v14.48h1.98c2.28,0,3.98-.6,5.11-1.8,1.13-1.2,1.69-3.02,1.69-5.45s-.56-4.25-1.68-5.44c-1.12-1.19-2.83-1.79-5.12-1.79h-1.98Z"/><path d="M90.98,20.39v-4.39h1.48l.29,2.87,.33,.43c.37,.19,.79,.33,1.26,.43s.98,.15,1.54,.15c1.16,0,2.08-.27,2.76-.81,.68-.54,1.02-1.27,1.02-2.19,0-1.28-1.2-2.42-3.59-3.44-.26-.11-.46-.2-.6-.26-1.71-.74-2.84-1.43-3.39-2.07-.55-.64-.83-1.47-.83-2.48,0-1.43,.53-2.59,1.58-3.47,1.05-.88,2.45-1.32,4.19-1.32,.7,0,1.4,.06,2.11,.18,.7,.12,1.42,.29,2.16,.53v3.87h-1.31l-.38-2.38-.37-.42c-.32-.18-.66-.31-1.04-.4-.37-.08-.78-.13-1.22-.13-1.04,0-1.87,.27-2.48,.81-.61,.54-.92,1.28-.92,2.2,0,.68,.21,1.23,.64,1.68,.43,.44,1.38,.98,2.86,1.61,.14,.06,.35,.14,.62,.24,1.46,.57,2.51,1.17,3.15,1.81,.37,.36,.64,.77,.82,1.23,.18,.46,.27,.97,.27,1.51,0,1.51-.59,2.72-1.77,3.64-1.18,.92-2.75,1.38-4.7,1.38-.87,0-1.69-.07-2.46-.21-.77-.14-1.45-.34-2.04-.6Z"/></g></g></g></svg>