<svg height='100px' width='100px'  fill="#020406" xmlns="http://www.w3.org/2000/svg" xmlnsXlink="http://www.w3.org/1999/xlink" version="1.1" x="0px" y="0px" viewBox="0 0 100 100" style="enable-background:new 0 0 100 100;" xmlSpace="preserve"><g><defs><path id="c" d="M64.02,85.3L59.27,100l-4.75-14.7c-2.24-6.95-7.69-12.4-14.64-14.64l-14.7-4.75l14.7-4.75    c6.95-2.24,12.4-7.69,14.64-14.64l4.75-14.7l4.75,14.7c2.24,6.95,7.69,12.4,14.64,14.64l14.7,4.75l-14.7,4.75    C71.71,72.9,66.27,78.35,64.02,85.3z"></path></defs><use xlinkHref="#c" style="" overflow="visible"></use><clipPath><use xlinkHref="#c" style="" overflow="visible"></use></clipPath></g><g><defs><path id="b" d="M27.83,46.34l-2.65,8.21l-2.65-8.21c-1.12-3.47-3.85-6.2-7.32-7.32L7,36.36l8.21-2.65    c3.47-1.12,6.2-3.85,7.32-7.32l2.65-8.21l2.65,8.21c1.12,3.47,3.85,6.2,7.32,7.32l8.21,2.65l-8.21,2.65    C31.68,40.14,28.96,42.86,27.83,46.34z"></path></defs><use xlinkHref="#b" style="" overflow="visible"></use><clipPath><use xlinkHref="#b" style="" overflow="visible"></use></clipPath></g><g><defs><path id="a" d="M51.79,17.73l-1.61,4.99l-1.61-4.99c-0.73-2.26-2.5-4.03-4.76-4.76l-4.99-1.61l4.99-1.61    c2.26-0.73,4.03-2.5,4.76-4.76L50.18,0l1.61,4.99c0.73,2.26,2.5,4.03,4.76,4.76l4.99,1.61l-4.99,1.61    C54.29,13.71,52.52,15.48,51.79,17.73z"></path></defs><use xlinkHref="#a" style="" overflow="visible"></use><clipPath><use xlinkHref="#a" style="" overflow="visible"></use></clipPath></g></svg>